<svg width="364" height="364" viewBox="0 0 364 364" fill="none" xmlns="http://www.w3.org/2000/svg">
<path d="M58.3946 130.737C56.1809 120.765 56.5208 110.396 59.3828 100.59C62.2448 90.7852 67.5363 81.8612 74.7665 74.6461C81.9968 67.4309 90.9318 62.1582 100.743 59.3167C110.554 56.4753 120.924 56.1571 130.891 58.3916C136.377 49.8119 143.935 42.7512 152.867 37.8603C161.799 32.9695 171.819 30.4059 182.003 30.4059C192.187 30.4059 202.206 32.9695 211.139 37.8603C220.071 42.7512 227.629 49.8119 233.115 58.3916C243.097 56.1473 253.484 56.4641 263.311 59.3125C273.138 62.1608 282.085 67.4483 289.32 74.683C296.555 81.9177 301.842 90.8646 304.69 100.691C307.539 110.518 307.856 120.906 305.611 130.888C314.191 136.374 321.252 143.932 326.143 152.864C331.033 161.796 333.597 171.816 333.597 182C333.597 192.184 331.033 202.204 326.143 211.136C321.252 220.068 314.191 227.626 305.611 233.112C307.846 243.079 307.528 253.449 304.686 263.26C301.845 273.071 296.572 282.006 289.357 289.236C282.142 296.467 273.218 301.758 263.412 304.62C253.607 307.482 243.238 307.822 233.266 305.608C227.787 314.221 220.224 321.312 211.276 326.225C202.329 331.137 192.286 333.713 182.079 333.713C171.871 333.713 161.829 331.137 152.881 326.225C143.933 321.312 136.37 314.221 130.891 305.608C120.924 307.843 110.554 307.525 100.743 304.683C90.9318 301.842 81.9968 296.569 74.7665 289.354C67.5363 282.139 62.2448 273.215 59.3828 263.409C56.5208 253.604 56.1809 243.235 58.3946 233.263C49.7489 227.792 42.6275 220.223 37.6928 211.26C32.7581 202.297 30.1704 192.232 30.1704 182C30.1704 171.768 32.7581 161.703 37.6928 152.74C42.6275 143.777 49.7489 136.208 58.3946 130.737Z" stroke="url(#paint0_linear_518_20)" stroke-width="10" stroke-linecap="round" stroke-linejoin="round"/>
<path d="M182 106.167V257.833" stroke="url(#paint1_linear_518_20)" stroke-width="10" stroke-linecap="round" stroke-linejoin="round"/>
<path d="M233.569 151.667C226.891 140.101 216.584 131.062 204.246 125.951C191.908 120.841 178.228 119.944 165.328 123.401C152.429 126.857 141.03 134.473 132.9 145.069C124.77 155.664 120.363 168.645 120.363 182C120.363 195.355 124.77 208.336 132.9 218.932C141.03 229.527 152.429 237.143 165.328 240.6C178.228 244.056 191.908 243.159 204.246 238.049C216.584 232.938 226.891 223.899 233.569 212.333" stroke="url(#paint2_linear_518_20)" stroke-width="10" stroke-linecap="round" stroke-linejoin="round"/>
<defs>
<linearGradient id="paint0_linear_518_20" x1="98" y1="-116" x2="182" y2="311" gradientUnits="userSpaceOnUse">
<stop stop-color="white"/>
<stop offset="1" stop-color="white" stop-opacity="0"/>
</linearGradient>
<linearGradient id="paint1_linear_518_20" x1="182.5" y1="106.167" x2="182.5" y2="257.833" gradientUnits="userSpaceOnUse">
<stop stop-color="white"/>
<stop offset="1" stop-color="white" stop-opacity="0"/>
</linearGradient>
<linearGradient id="paint2_linear_518_20" x1="176.966" y1="121.333" x2="176.966" y2="242.667" gradientUnits="userSpaceOnUse">
<stop stop-color="white"/>
<stop offset="1" stop-color="white" stop-opacity="0"/>
</linearGradient>
</defs>
</svg>
