<svg width="636" height="196" viewBox="0 0 636 196" fill="none" xmlns="http://www.w3.org/2000/svg">
<g filter="url(#filter0_b_520_33)">
<rect width="196" height="196" rx="50" fill="url(#paint0_linear_520_33)" fill-opacity="0.1"/>
<rect x="0.5" y="0.5" width="195" height="195" rx="49.5" stroke="url(#paint1_linear_520_33)" stroke-opacity="0.13"/>
</g>
<path d="M73.3339 131V63.8H114.038V74.744H85.6219V91.736H107.414V101.72H85.6219V120.056H115.766V131H73.3339Z" fill="white"/>
<g filter="url(#filter1_b_520_33)">
<rect x="220" width="196" height="196" rx="50" fill="url(#paint2_linear_520_33)" fill-opacity="0.1"/>
<rect x="220.5" y="0.5" width="195" height="195" rx="49.5" stroke="url(#paint3_linear_520_33)" stroke-opacity="0.13"/>
</g>
<path d="M316.069 132.152C302.437 132.152 290.821 126.68 286.021 113.048L295.717 107.384C299.461 117.944 307.909 121.496 316.261 121.496C323.461 121.496 328.933 118.04 328.933 111.896C328.933 96.824 289.669 108.536 289.669 82.232C289.669 70.328 299.845 62.84 313.381 62.84C325.285 62.84 335.461 66.776 340.741 80.312L331.429 85.88C327.493 77.144 321.061 73.304 313.189 73.304C306.469 73.304 301.861 76.568 301.861 82.232C301.861 97.208 341.413 86.072 341.413 111.416C341.413 125.72 328.741 132.152 316.069 132.152Z" fill="white"/>
<g filter="url(#filter2_b_520_33)">
<rect x="440" width="196" height="196" rx="50" fill="url(#paint4_linear_520_33)" fill-opacity="0.1"/>
<rect x="440.5" y="0.5" width="195" height="195" rx="49.5" stroke="url(#paint5_linear_520_33)" stroke-opacity="0.13"/>
</g>
<path d="M528.901 132.152C510.373 132.152 502.405 118.616 502.405 97.784C502.405 77.912 513.541 62.552 535.237 62.552C550.309 62.552 559.909 70.232 564.805 84.056L553.669 87.8C550.117 78.296 544.837 73.592 534.853 73.592C522.469 73.592 515.077 81.08 515.077 97.784C515.077 114.68 521.413 121.112 533.221 121.112C544.357 121.112 551.749 114.296 551.749 105.272V104.792H533.413V95.288H564.229V131H553.573L554.725 112.088H553.957C551.749 121.784 545.413 132.152 528.901 132.152Z" fill="white"/>
<defs>
<filter id="filter0_b_520_33" x="-47" y="-47" width="290" height="290" filterUnits="userSpaceOnUse" color-interpolation-filters="sRGB">
<feFlood flood-opacity="0" result="BackgroundImageFix"/>
<feGaussianBlur in="BackgroundImageFix" stdDeviation="23.5"/>
<feComposite in2="SourceAlpha" operator="in" result="effect1_backgroundBlur_520_33"/>
<feBlend mode="normal" in="SourceGraphic" in2="effect1_backgroundBlur_520_33" result="shape"/>
</filter>
<filter id="filter1_b_520_33" x="173" y="-47" width="290" height="290" filterUnits="userSpaceOnUse" color-interpolation-filters="sRGB">
<feFlood flood-opacity="0" result="BackgroundImageFix"/>
<feGaussianBlur in="BackgroundImageFix" stdDeviation="23.5"/>
<feComposite in2="SourceAlpha" operator="in" result="effect1_backgroundBlur_520_33"/>
<feBlend mode="normal" in="SourceGraphic" in2="effect1_backgroundBlur_520_33" result="shape"/>
</filter>
<filter id="filter2_b_520_33" x="393" y="-47" width="290" height="290" filterUnits="userSpaceOnUse" color-interpolation-filters="sRGB">
<feFlood flood-opacity="0" result="BackgroundImageFix"/>
<feGaussianBlur in="BackgroundImageFix" stdDeviation="23.5"/>
<feComposite in2="SourceAlpha" operator="in" result="effect1_backgroundBlur_520_33"/>
<feBlend mode="normal" in="SourceGraphic" in2="effect1_backgroundBlur_520_33" result="shape"/>
</filter>
<linearGradient id="paint0_linear_520_33" x1="98" y1="188.904" x2="101.585" y2="-4.20764" gradientUnits="userSpaceOnUse">
<stop stop-color="#155339"/>
<stop offset="1" stop-color="#155339" stop-opacity="0"/>
</linearGradient>
<linearGradient id="paint1_linear_520_33" x1="98" y1="0" x2="98" y2="189.415" gradientUnits="userSpaceOnUse">
<stop stop-color="#BDFFDF"/>
<stop offset="1" stop-color="#BDFFDF" stop-opacity="0"/>
</linearGradient>
<linearGradient id="paint2_linear_520_33" x1="318" y1="188.904" x2="321.585" y2="-4.20764" gradientUnits="userSpaceOnUse">
<stop stop-color="#155339"/>
<stop offset="1" stop-color="#155339" stop-opacity="0"/>
</linearGradient>
<linearGradient id="paint3_linear_520_33" x1="318" y1="0" x2="318" y2="189.415" gradientUnits="userSpaceOnUse">
<stop stop-color="#BDFFDF"/>
<stop offset="1" stop-color="#BDFFDF" stop-opacity="0"/>
</linearGradient>
<linearGradient id="paint4_linear_520_33" x1="538" y1="188.904" x2="541.585" y2="-4.20764" gradientUnits="userSpaceOnUse">
<stop stop-color="#155339"/>
<stop offset="1" stop-color="#155339" stop-opacity="0"/>
</linearGradient>
<linearGradient id="paint5_linear_520_33" x1="538" y1="0" x2="538" y2="189.415" gradientUnits="userSpaceOnUse">
<stop stop-color="#BDFFDF"/>
<stop offset="1" stop-color="#BDFFDF" stop-opacity="0"/>
</linearGradient>
</defs>
</svg>
