<svg width="371" height="244" viewBox="0 0 371 244" fill="none" xmlns="http://www.w3.org/2000/svg">
<g filter="url(#filter0_b_528_68)">
<rect width="371" height="244" rx="50" fill="url(#paint0_linear_528_68)" fill-opacity="0.1"/>
<rect x="0.5" y="0.5" width="370" height="243" rx="49.5" stroke="url(#paint1_linear_528_68)" stroke-opacity="0.13"/>
</g>
<path d="M57.7926 44.4545V59H55.598V44.4545H57.7926ZM62.9418 52.5227V59H60.8182V48.0909H62.8565V49.8665H62.9915C63.2424 49.2888 63.6354 48.8248 64.1705 48.4744C64.7102 48.1241 65.3897 47.9489 66.2088 47.9489C66.9522 47.9489 67.6032 48.1051 68.1619 48.4176C68.7206 48.7254 69.1539 49.1847 69.4616 49.7955C69.7694 50.4062 69.9233 51.1615 69.9233 52.0611V59H67.7997V52.3168C67.7997 51.526 67.5938 50.9081 67.1818 50.4631C66.7699 50.0133 66.2041 49.7884 65.4844 49.7884C64.992 49.7884 64.554 49.8949 64.1705 50.108C63.7917 50.321 63.491 50.6335 63.2685 51.0455C63.0507 51.4527 62.9418 51.9451 62.9418 52.5227ZM81.7131 48.0909L77.7571 59H75.4844L71.5213 48.0909H73.8011L76.5639 56.4858H76.6776L79.4332 48.0909H81.7131ZM88.0394 59.2202C86.9646 59.2202 86.0389 58.9905 85.2624 58.5312C84.4906 58.0672 83.8941 57.4162 83.4727 56.5781C83.056 55.7353 82.8477 54.7481 82.8477 53.6165C82.8477 52.4991 83.056 51.5142 83.4727 50.6619C83.8941 49.8097 84.4812 49.1444 85.234 48.6662C85.9916 48.188 86.877 47.9489 87.8903 47.9489C88.5058 47.9489 89.1024 48.0507 89.68 48.2543C90.2577 48.4579 90.7762 48.7775 91.2354 49.2131C91.6947 49.6487 92.0569 50.2145 92.3221 50.9105C92.5872 51.6018 92.7198 52.4422 92.7198 53.4318V54.1847H84.0479V52.5938H90.6388C90.6388 52.035 90.5252 51.5402 90.2979 51.1094C90.0707 50.6738 89.7511 50.3305 89.3391 50.0795C88.9319 49.8286 88.4537 49.7031 87.9045 49.7031C87.3079 49.7031 86.7871 49.8499 86.342 50.1435C85.9016 50.4323 85.5607 50.8111 85.3192 51.2798C85.0825 51.7438 84.9641 52.2481 84.9641 52.7926V54.0355C84.9641 54.7647 85.092 55.3849 85.3477 55.8963C85.6081 56.4077 85.9703 56.7983 86.4343 57.0682C86.8983 57.3333 87.4405 57.4659 88.0607 57.4659C88.4632 57.4659 88.8301 57.4091 89.1616 57.2955C89.493 57.1771 89.7795 57.0019 90.021 56.7699C90.2624 56.5379 90.4471 56.2514 90.5749 55.9105L92.5849 56.2727C92.4239 56.8646 92.1351 57.383 91.7184 57.8281C91.3065 58.2685 90.788 58.6117 90.163 58.858C89.5427 59.0994 88.8349 59.2202 88.0394 59.2202ZM97.1996 52.5227V59H95.076V48.0909H97.1143V49.8665H97.2493C97.5002 49.2888 97.8932 48.8248 98.4283 48.4744C98.968 48.1241 99.6475 47.9489 100.467 47.9489C101.21 47.9489 101.861 48.1051 102.42 48.4176C102.978 48.7254 103.412 49.1847 103.719 49.7955C104.027 50.4062 104.181 51.1615 104.181 52.0611V59H102.058V52.3168C102.058 51.526 101.852 50.9081 101.44 50.4631C101.028 50.0133 100.462 49.7884 99.7422 49.7884C99.2498 49.7884 98.8118 49.8949 98.4283 50.108C98.0495 50.321 97.7488 50.6335 97.5263 51.0455C97.3085 51.4527 97.1996 51.9451 97.1996 52.5227ZM112.121 48.0909V49.7955H106.163V48.0909H112.121ZM107.761 45.4773H109.884V55.7969C109.884 56.2088 109.946 56.5189 110.069 56.7273C110.192 56.9309 110.351 57.0705 110.545 57.1463C110.744 57.2173 110.959 57.2528 111.191 57.2528C111.362 57.2528 111.511 57.241 111.638 57.2173C111.766 57.1937 111.866 57.1747 111.937 57.1605L112.32 58.9148C112.197 58.9621 112.022 59.0095 111.795 59.0568C111.567 59.1089 111.283 59.1373 110.942 59.142C110.384 59.1515 109.863 59.0521 109.38 58.8438C108.897 58.6354 108.506 58.3134 108.208 57.8778C107.91 57.4422 107.761 56.8954 107.761 56.2372V45.4773ZM117.645 59.2415C116.954 59.2415 116.329 59.1136 115.77 58.858C115.212 58.5975 114.769 58.2211 114.442 57.7287C114.12 57.2363 113.959 56.6326 113.959 55.9176C113.959 55.3021 114.078 54.7955 114.314 54.3977C114.551 54 114.871 53.6851 115.273 53.4531C115.676 53.2211 116.125 53.0459 116.623 52.9276C117.12 52.8092 117.626 52.7192 118.142 52.6577C118.796 52.5819 119.326 52.5204 119.733 52.473C120.141 52.4209 120.436 52.3381 120.621 52.2244C120.806 52.1108 120.898 51.9261 120.898 51.6705V51.6207C120.898 51.0005 120.723 50.5199 120.373 50.179C120.027 49.8381 119.511 49.6676 118.824 49.6676C118.109 49.6676 117.546 49.8262 117.134 50.1435C116.727 50.456 116.445 50.804 116.289 51.1875L114.293 50.733C114.53 50.0701 114.875 49.535 115.33 49.1278C115.789 48.7159 116.317 48.4176 116.914 48.233C117.51 48.0436 118.138 47.9489 118.796 47.9489C119.231 47.9489 119.693 48.0009 120.181 48.1051C120.673 48.2045 121.132 48.3892 121.559 48.6591C121.989 48.929 122.342 49.3149 122.617 49.8168C122.891 50.3139 123.029 50.9602 123.029 51.7557V59H120.955V57.5085H120.87C120.732 57.7831 120.526 58.053 120.252 58.3182C119.977 58.5833 119.624 58.8035 119.194 58.9787C118.763 59.1539 118.247 59.2415 117.645 59.2415ZM118.107 57.5369C118.694 57.5369 119.196 57.4209 119.613 57.1889C120.034 56.9569 120.354 56.6539 120.571 56.2798C120.794 55.901 120.905 55.4962 120.905 55.0653V53.6591C120.829 53.7348 120.683 53.8059 120.465 53.8722C120.252 53.9337 120.008 53.9882 119.733 54.0355C119.459 54.0781 119.191 54.1184 118.931 54.1562C118.67 54.1894 118.453 54.2178 118.277 54.2415C117.865 54.2936 117.489 54.3812 117.148 54.5043C116.812 54.6274 116.542 54.8049 116.338 55.0369C116.14 55.2642 116.04 55.5672 116.04 55.946C116.04 56.4716 116.234 56.8693 116.623 57.1392C117.011 57.4044 117.506 57.5369 118.107 57.5369ZM118.029 46.6349L119.691 43.3608H121.928L119.726 46.6349H118.029ZM125.857 59V48.0909H127.91V49.8239H128.023C128.222 49.2367 128.573 48.7751 129.075 48.4389C129.581 48.098 130.154 47.9276 130.793 47.9276C130.926 47.9276 131.082 47.9323 131.262 47.9418C131.447 47.9512 131.591 47.9631 131.695 47.9773V50.0085C131.61 49.9848 131.459 49.9588 131.241 49.9304C131.023 49.8973 130.805 49.8807 130.587 49.8807C130.085 49.8807 129.638 49.9872 129.245 50.2003C128.857 50.4086 128.549 50.6998 128.322 51.0739C128.094 51.4432 127.981 51.8646 127.981 52.3381V59H125.857ZM133.533 59V48.0909H135.657V59H133.533ZM134.605 46.4077C134.236 46.4077 133.919 46.2846 133.654 46.0384C133.393 45.7874 133.263 45.4891 133.263 45.1435C133.263 44.7931 133.393 44.4948 133.654 44.2486C133.919 43.9976 134.236 43.8722 134.605 43.8722C134.975 43.8722 135.29 43.9976 135.55 44.2486C135.815 44.4948 135.948 44.7931 135.948 45.1435C135.948 45.4891 135.815 45.7874 135.55 46.0384C135.29 46.2846 134.975 46.4077 134.605 46.4077ZM143.109 59.2202C142.086 59.2202 141.193 58.9858 140.431 58.517C139.669 58.0483 139.077 57.3925 138.656 56.5497C138.234 55.7069 138.023 54.7221 138.023 53.5952C138.023 52.4635 138.234 51.474 138.656 50.6264C139.077 49.7789 139.669 49.1207 140.431 48.652C141.193 48.1832 142.086 47.9489 143.109 47.9489C144.131 47.9489 145.024 48.1832 145.786 48.652C146.549 49.1207 147.14 49.7789 147.562 50.6264C147.983 51.474 148.194 52.4635 148.194 53.5952C148.194 54.7221 147.983 55.7069 147.562 56.5497C147.14 57.3925 146.549 58.0483 145.786 58.517C145.024 58.9858 144.131 59.2202 143.109 59.2202ZM143.116 57.4375C143.779 57.4375 144.328 57.2623 144.763 56.9119C145.199 56.5616 145.521 56.0952 145.729 55.5128C145.942 54.9304 146.049 54.2888 146.049 53.5881C146.049 52.892 145.942 52.2528 145.729 51.6705C145.521 51.0833 145.199 50.6122 144.763 50.2571C144.328 49.902 143.779 49.7244 143.116 49.7244C142.448 49.7244 141.894 49.902 141.454 50.2571C141.018 50.6122 140.694 51.0833 140.481 51.6705C140.272 52.2528 140.168 52.892 140.168 53.5881C140.168 54.2888 140.272 54.9304 140.481 55.5128C140.694 56.0952 141.018 56.5616 141.454 56.9119C141.894 57.2623 142.448 57.4375 143.116 57.4375ZM159.941 59.2131C159.06 59.2131 158.274 58.9882 157.583 58.5384C156.897 58.0838 156.357 57.4375 155.964 56.5994C155.576 55.7566 155.381 54.7457 155.381 53.5668C155.381 52.3878 155.578 51.3793 155.971 50.5412C156.369 49.7031 156.913 49.0616 157.604 48.6165C158.296 48.1714 159.079 47.9489 159.955 47.9489C160.632 47.9489 161.177 48.0625 161.589 48.2898C162.005 48.5123 162.327 48.7727 162.555 49.071C162.787 49.3693 162.967 49.6321 163.094 49.8594H163.222V44.4545H165.346V59H163.272V57.3026H163.094C162.967 57.5346 162.782 57.7997 162.54 58.098C162.304 58.3963 161.977 58.6567 161.56 58.8793C161.144 59.1018 160.604 59.2131 159.941 59.2131ZM160.41 57.402C161.021 57.402 161.537 57.241 161.958 56.919C162.384 56.5923 162.706 56.1402 162.924 55.5625C163.147 54.9848 163.258 54.3125 163.258 53.5455C163.258 52.7879 163.149 52.125 162.931 51.5568C162.713 50.9886 162.394 50.5459 161.972 50.2287C161.551 49.9115 161.03 49.7528 160.41 49.7528C159.771 49.7528 159.238 49.9186 158.812 50.25C158.386 50.5814 158.064 51.0336 157.846 51.6065C157.633 52.1795 157.526 52.8258 157.526 53.5455C157.526 54.2746 157.635 54.9304 157.853 55.5128C158.071 56.0952 158.393 56.5568 158.819 56.8977C159.25 57.2339 159.78 57.402 160.41 57.402ZM173.078 59.2202C172.004 59.2202 171.078 58.9905 170.301 58.5312C169.53 58.0672 168.933 57.4162 168.512 56.5781C168.095 55.7353 167.887 54.7481 167.887 53.6165C167.887 52.4991 168.095 51.5142 168.512 50.6619C168.933 49.8097 169.52 49.1444 170.273 48.6662C171.031 48.188 171.916 47.9489 172.929 47.9489C173.545 47.9489 174.141 48.0507 174.719 48.2543C175.297 48.4579 175.815 48.7775 176.275 49.2131C176.734 49.6487 177.096 50.2145 177.361 50.9105C177.626 51.6018 177.759 52.4422 177.759 53.4318V54.1847H169.087V52.5938H175.678C175.678 52.035 175.564 51.5402 175.337 51.1094C175.11 50.6738 174.79 50.3305 174.378 50.0795C173.971 49.8286 173.493 49.7031 172.944 49.7031C172.347 49.7031 171.826 49.8499 171.381 50.1435C170.941 50.4323 170.6 50.8111 170.358 51.2798C170.122 51.7438 170.003 52.2481 170.003 52.7926V54.0355C170.003 54.7647 170.131 55.3849 170.387 55.8963C170.647 56.4077 171.009 56.7983 171.473 57.0682C171.937 57.3333 172.48 57.4659 173.1 57.4659C173.502 57.4659 173.869 57.4091 174.201 57.2955C174.532 57.1771 174.819 57.0019 175.06 56.7699C175.301 56.5379 175.486 56.2514 175.614 55.9105L177.624 56.2727C177.463 56.8646 177.174 57.383 176.757 57.8281C176.346 58.2685 175.827 58.6117 175.202 58.858C174.582 59.0994 173.874 59.2202 173.078 59.2202ZM189.982 63.3182C189.115 63.3182 188.37 63.2045 187.745 62.9773C187.124 62.75 186.618 62.4493 186.225 62.0753C185.832 61.7012 185.538 61.2917 185.344 60.8466L187.169 60.0938C187.297 60.3021 187.468 60.5223 187.681 60.7543C187.899 60.991 188.192 61.1922 188.561 61.358C188.935 61.5237 189.416 61.6065 190.003 61.6065C190.808 61.6065 191.473 61.41 191.999 61.017C192.525 60.6288 192.787 60.0085 192.787 59.1562V57.0114H192.652C192.525 57.2434 192.34 57.5014 192.098 57.7855C191.862 58.0696 191.535 58.3158 191.118 58.5241C190.702 58.7325 190.159 58.8366 189.492 58.8366C188.63 58.8366 187.854 58.6354 187.162 58.233C186.476 57.8258 185.931 57.2268 185.529 56.4361C185.131 55.6406 184.932 54.6629 184.932 53.5028C184.932 52.3428 185.129 51.3485 185.522 50.5199C185.919 49.6913 186.464 49.0568 187.155 48.6165C187.846 48.1714 188.63 47.9489 189.506 47.9489C190.183 47.9489 190.73 48.0625 191.147 48.2898C191.563 48.5123 191.888 48.7727 192.12 49.071C192.356 49.3693 192.539 49.6321 192.667 49.8594H192.823V48.0909H194.904V59.2415C194.904 60.179 194.686 60.9484 194.25 61.5497C193.815 62.151 193.225 62.5961 192.482 62.8849C191.743 63.1738 190.91 63.3182 189.982 63.3182ZM189.961 57.0753C190.571 57.0753 191.087 56.9332 191.509 56.6491C191.935 56.3603 192.257 55.9484 192.475 55.4134C192.697 54.8736 192.809 54.2273 192.809 53.4744C192.809 52.7405 192.7 52.0942 192.482 51.5355C192.264 50.9768 191.944 50.5412 191.523 50.2287C191.102 49.9115 190.581 49.7528 189.961 49.7528C189.321 49.7528 188.789 49.9186 188.363 50.25C187.936 50.5767 187.614 51.0218 187.397 51.5852C187.184 52.1487 187.077 52.7784 187.077 53.4744C187.077 54.1894 187.186 54.8168 187.404 55.3565C187.622 55.8963 187.944 56.3177 188.37 56.6207C188.801 56.9238 189.331 57.0753 189.961 57.0753ZM200.926 59.2415C200.235 59.2415 199.61 59.1136 199.051 58.858C198.493 58.5975 198.05 58.2211 197.723 57.7287C197.401 57.2363 197.24 56.6326 197.24 55.9176C197.24 55.3021 197.359 54.7955 197.596 54.3977C197.832 54 198.152 53.6851 198.554 53.4531C198.957 53.2211 199.407 53.0459 199.904 52.9276C200.401 52.8092 200.908 52.7192 201.424 52.6577C202.077 52.5819 202.607 52.5204 203.015 52.473C203.422 52.4209 203.718 52.3381 203.902 52.2244C204.087 52.1108 204.179 51.9261 204.179 51.6705V51.6207C204.179 51.0005 204.004 50.5199 203.654 50.179C203.308 49.8381 202.792 49.6676 202.105 49.6676C201.391 49.6676 200.827 49.8262 200.415 50.1435C200.008 50.456 199.726 50.804 199.57 51.1875L197.574 50.733C197.811 50.0701 198.157 49.535 198.611 49.1278C199.07 48.7159 199.598 48.4176 200.195 48.233C200.792 48.0436 201.419 47.9489 202.077 47.9489C202.513 47.9489 202.974 48.0009 203.462 48.1051C203.954 48.2045 204.414 48.3892 204.84 48.6591C205.271 48.929 205.623 49.3149 205.898 49.8168C206.173 50.3139 206.31 50.9602 206.31 51.7557V59H204.236V57.5085H204.151C204.014 57.7831 203.808 58.053 203.533 58.3182C203.258 58.5833 202.906 58.8035 202.475 58.9787C202.044 59.1539 201.528 59.2415 200.926 59.2415ZM201.388 57.5369C201.975 57.5369 202.477 57.4209 202.894 57.1889C203.315 56.9569 203.635 56.6539 203.853 56.2798C204.075 55.901 204.186 55.4962 204.186 55.0653V53.6591C204.111 53.7348 203.964 53.8059 203.746 53.8722C203.533 53.9337 203.289 53.9882 203.015 54.0355C202.74 54.0781 202.472 54.1184 202.212 54.1562C201.952 54.1894 201.734 54.2178 201.559 54.2415C201.147 54.2936 200.77 54.3812 200.429 54.5043C200.093 54.6274 199.823 54.8049 199.62 55.0369C199.421 55.2642 199.321 55.5672 199.321 55.946C199.321 56.4716 199.516 56.8693 199.904 57.1392C200.292 57.4044 200.787 57.5369 201.388 57.5369ZM217.313 50.7543L215.388 51.0952C215.308 50.849 215.18 50.6146 215.005 50.392C214.835 50.1695 214.603 49.9872 214.309 49.8452C214.015 49.7031 213.648 49.6321 213.208 49.6321C212.607 49.6321 212.105 49.767 211.702 50.0369C211.3 50.3021 211.099 50.6454 211.099 51.0668C211.099 51.4313 211.234 51.7249 211.504 51.9474C211.773 52.17 212.209 52.3523 212.81 52.4943L214.543 52.892C215.547 53.1241 216.295 53.4815 216.788 53.9645C217.28 54.4474 217.526 55.0748 217.526 55.8466C217.526 56.5 217.337 57.0824 216.958 57.5938C216.584 58.1004 216.061 58.4981 215.388 58.7869C214.721 59.0758 213.947 59.2202 213.066 59.2202C211.844 59.2202 210.848 58.9598 210.076 58.4389C209.304 57.9134 208.831 57.1676 208.656 56.2017L210.708 55.8892C210.836 56.4242 211.099 56.8291 211.496 57.1037C211.894 57.3736 212.413 57.5085 213.052 57.5085C213.748 57.5085 214.304 57.3641 214.721 57.0753C215.138 56.7817 215.346 56.4242 215.346 56.0028C215.346 55.6619 215.218 55.3755 214.962 55.1435C214.711 54.9115 214.326 54.7363 213.805 54.6179L211.958 54.2131C210.94 53.9811 210.187 53.6117 209.7 53.1051C209.217 52.5985 208.975 51.9569 208.975 51.1804C208.975 50.5365 209.155 49.973 209.515 49.4901C209.875 49.0071 210.372 48.6307 211.006 48.3608C211.641 48.0862 212.368 47.9489 213.187 47.9489C214.366 47.9489 215.294 48.2045 215.971 48.7159C216.648 49.2225 217.095 49.902 217.313 50.7543ZM224.563 59.2202C223.488 59.2202 222.562 58.9905 221.786 58.5312C221.014 58.0672 220.417 57.4162 219.996 56.5781C219.579 55.7353 219.371 54.7481 219.371 53.6165C219.371 52.4991 219.579 51.5142 219.996 50.6619C220.417 49.8097 221.005 49.1444 221.757 48.6662C222.515 48.188 223.4 47.9489 224.414 47.9489C225.029 47.9489 225.626 48.0507 226.203 48.2543C226.781 48.4579 227.3 48.7775 227.759 49.2131C228.218 49.6487 228.58 50.2145 228.846 50.9105C229.111 51.6018 229.243 52.4422 229.243 53.4318V54.1847H220.571V52.5938H227.162C227.162 52.035 227.049 51.5402 226.821 51.1094C226.594 50.6738 226.275 50.3305 225.863 50.0795C225.455 49.8286 224.977 49.7031 224.428 49.7031C223.831 49.7031 223.31 49.8499 222.865 50.1435C222.425 50.4323 222.084 50.8111 221.843 51.2798C221.606 51.7438 221.488 52.2481 221.488 52.7926V54.0355C221.488 54.7647 221.615 55.3849 221.871 55.8963C222.132 56.4077 222.494 56.7983 222.958 57.0682C223.422 57.3333 223.964 57.4659 224.584 57.4659C224.987 57.4659 225.354 57.4091 225.685 57.2955C226.016 57.1771 226.303 57.0019 226.544 56.7699C226.786 56.5379 226.971 56.2514 227.098 55.9105L229.108 56.2727C228.947 56.8646 228.658 57.383 228.242 57.8281C227.83 58.2685 227.311 58.6117 226.686 58.858C226.066 59.0994 225.358 59.2202 224.563 59.2202ZM239.774 50.7543L237.849 51.0952C237.769 50.849 237.641 50.6146 237.466 50.392C237.295 50.1695 237.063 49.9872 236.77 49.8452C236.476 49.7031 236.109 49.6321 235.669 49.6321C235.068 49.6321 234.566 49.767 234.163 50.0369C233.761 50.3021 233.56 50.6454 233.56 51.0668C233.56 51.4313 233.695 51.7249 233.964 51.9474C234.234 52.17 234.67 52.3523 235.271 52.4943L237.004 52.892C238.008 53.1241 238.756 53.4815 239.249 53.9645C239.741 54.4474 239.987 55.0748 239.987 55.8466C239.987 56.5 239.798 57.0824 239.419 57.5938C239.045 58.1004 238.522 58.4981 237.849 58.7869C237.182 59.0758 236.408 59.2202 235.527 59.2202C234.305 59.2202 233.309 58.9598 232.537 58.4389C231.765 57.9134 231.292 57.1676 231.116 56.2017L233.169 55.8892C233.297 56.4242 233.56 56.8291 233.957 57.1037C234.355 57.3736 234.874 57.5085 235.513 57.5085C236.209 57.5085 236.765 57.3641 237.182 57.0753C237.598 56.7817 237.807 56.4242 237.807 56.0028C237.807 55.6619 237.679 55.3755 237.423 55.1435C237.172 54.9115 236.786 54.7363 236.266 54.6179L234.419 54.2131C233.401 53.9811 232.648 53.6117 232.161 53.1051C231.678 52.5985 231.436 51.9569 231.436 51.1804C231.436 50.5365 231.616 49.973 231.976 49.4901C232.336 49.0071 232.833 48.6307 233.467 48.3608C234.102 48.0862 234.829 47.9489 235.648 47.9489C236.827 47.9489 237.755 48.2045 238.432 48.7159C239.109 49.2225 239.556 49.902 239.774 50.7543Z" fill="white"/>
<path d="M61.7727 159.273C61.7045 158.697 61.428 158.25 60.9432 157.932C60.4583 157.614 59.8636 157.455 59.1591 157.455C58.6439 157.455 58.1932 157.538 57.8068 157.705C57.4242 157.871 57.125 158.1 56.9091 158.392C56.697 158.684 56.5909 159.015 56.5909 159.386C56.5909 159.697 56.6648 159.964 56.8125 160.188C56.964 160.407 57.1572 160.591 57.392 160.739C57.6269 160.883 57.8731 161.002 58.1307 161.097C58.3883 161.187 58.625 161.261 58.8409 161.318L60.0227 161.636C60.3258 161.716 60.6629 161.826 61.0341 161.966C61.4091 162.106 61.767 162.297 62.108 162.54C62.4527 162.778 62.7367 163.085 62.9602 163.46C63.1837 163.835 63.2955 164.295 63.2955 164.841C63.2955 165.47 63.1307 166.038 62.8011 166.545C62.4754 167.053 61.9981 167.456 61.3693 167.756C60.7443 168.055 59.9848 168.205 59.0909 168.205C58.2576 168.205 57.536 168.07 56.9261 167.801C56.3201 167.532 55.8428 167.157 55.4943 166.676C55.1496 166.195 54.9545 165.636 54.9091 165H56.3636C56.4015 165.439 56.5492 165.803 56.8068 166.091C57.0682 166.375 57.3977 166.587 57.7955 166.727C58.197 166.864 58.6288 166.932 59.0909 166.932C59.6288 166.932 60.1117 166.845 60.5398 166.67C60.9678 166.492 61.3068 166.246 61.5568 165.932C61.8068 165.614 61.9318 165.242 61.9318 164.818C61.9318 164.432 61.8239 164.117 61.608 163.875C61.392 163.633 61.108 163.436 60.7557 163.284C60.4034 163.133 60.0227 163 59.6136 162.886L58.1818 162.477C57.2727 162.216 56.553 161.843 56.0227 161.358C55.4924 160.873 55.2273 160.239 55.2273 159.455C55.2273 158.803 55.4034 158.235 55.7557 157.75C56.1117 157.261 56.589 156.883 57.1875 156.614C57.7898 156.341 58.4621 156.205 59.2045 156.205C59.9545 156.205 60.6212 156.339 61.2045 156.608C61.7879 156.873 62.25 157.237 62.5909 157.699C62.9356 158.161 63.1174 158.686 63.1364 159.273H61.7727ZM70.9304 164.432V159.273H72.2713V168H70.9304V166.523H70.8395C70.6349 166.966 70.3168 167.343 69.8849 167.653C69.4531 167.96 68.9077 168.114 68.2486 168.114C67.7031 168.114 67.2183 167.994 66.794 167.756C66.3698 167.513 66.0365 167.15 65.794 166.665C65.5516 166.176 65.4304 165.561 65.4304 164.818V159.273H66.7713V164.727C66.7713 165.364 66.9493 165.871 67.3054 166.25C67.6652 166.629 68.1236 166.818 68.6804 166.818C69.0137 166.818 69.3527 166.733 69.6974 166.562C70.0459 166.392 70.3376 166.131 70.5724 165.778C70.8111 165.426 70.9304 164.977 70.9304 164.432ZM77.2955 168.205C76.7424 168.205 76.2405 168.1 75.7898 167.892C75.339 167.68 74.9811 167.375 74.7159 166.977C74.4508 166.576 74.3182 166.091 74.3182 165.523C74.3182 165.023 74.4167 164.617 74.6136 164.307C74.8106 163.992 75.0739 163.746 75.4034 163.568C75.733 163.39 76.0966 163.258 76.4943 163.17C76.8958 163.08 77.2992 163.008 77.7045 162.955C78.2348 162.886 78.6648 162.835 78.9943 162.801C79.3277 162.763 79.5701 162.701 79.7216 162.614C79.8769 162.527 79.9545 162.375 79.9545 162.159V162.114C79.9545 161.553 79.8011 161.117 79.4943 160.807C79.1913 160.496 78.7311 160.341 78.1136 160.341C77.4735 160.341 76.9716 160.481 76.608 160.761C76.2443 161.042 75.9886 161.341 75.8409 161.659L74.5682 161.205C74.7955 160.674 75.0985 160.261 75.4773 159.966C75.8598 159.667 76.2765 159.458 76.7273 159.341C77.1818 159.22 77.6288 159.159 78.0682 159.159C78.3485 159.159 78.6705 159.193 79.0341 159.261C79.4015 159.326 79.7557 159.46 80.0966 159.665C80.4413 159.869 80.7273 160.178 80.9545 160.591C81.1818 161.004 81.2955 161.557 81.2955 162.25V168H79.9545V166.818H79.8864C79.7955 167.008 79.6439 167.21 79.4318 167.426C79.2197 167.642 78.9375 167.826 78.5852 167.977C78.233 168.129 77.803 168.205 77.2955 168.205ZM77.5 167C78.0303 167 78.4773 166.896 78.8409 166.688C79.2083 166.479 79.4848 166.21 79.6705 165.881C79.8598 165.551 79.9545 165.205 79.9545 164.841V163.614C79.8977 163.682 79.7727 163.744 79.5795 163.801C79.3902 163.854 79.1705 163.902 78.9205 163.943C78.6742 163.981 78.4337 164.015 78.1989 164.045C77.9678 164.072 77.7803 164.095 77.6364 164.114C77.2879 164.159 76.9621 164.233 76.6591 164.335C76.3598 164.434 76.1174 164.583 75.9318 164.784C75.75 164.981 75.6591 165.25 75.6591 165.591C75.6591 166.057 75.8314 166.409 76.1761 166.648C76.5246 166.883 76.9659 167 77.5 167ZM89.9247 161.227L88.7202 161.568C88.6444 161.367 88.5327 161.172 88.3849 160.983C88.241 160.79 88.044 160.631 87.794 160.506C87.544 160.381 87.224 160.318 86.8338 160.318C86.2997 160.318 85.8546 160.441 85.4986 160.688C85.1463 160.93 84.9702 161.239 84.9702 161.614C84.9702 161.947 85.0914 162.21 85.3338 162.403C85.5762 162.597 85.955 162.758 86.4702 162.886L87.7656 163.205C88.5459 163.394 89.1274 163.684 89.5099 164.074C89.8925 164.46 90.0838 164.958 90.0838 165.568C90.0838 166.068 89.9399 166.515 89.652 166.909C89.3679 167.303 88.9702 167.614 88.4588 167.841C87.9474 168.068 87.3527 168.182 86.6747 168.182C85.7846 168.182 85.0478 167.989 84.4645 167.602C83.8812 167.216 83.5118 166.652 83.3565 165.909L84.6293 165.591C84.7505 166.061 84.9796 166.413 85.3168 166.648C85.6577 166.883 86.1027 167 86.652 167C87.277 167 87.7732 166.867 88.1406 166.602C88.5118 166.333 88.6974 166.011 88.6974 165.636C88.6974 165.333 88.5914 165.08 88.3793 164.875C88.1671 164.667 87.8414 164.511 87.402 164.409L85.9474 164.068C85.1482 163.879 84.5611 163.585 84.1861 163.188C83.8149 162.786 83.6293 162.284 83.6293 161.682C83.6293 161.189 83.7675 160.754 84.044 160.375C84.3243 159.996 84.705 159.699 85.1861 159.483C85.6709 159.267 86.2202 159.159 86.8338 159.159C87.6974 159.159 88.3755 159.348 88.8679 159.727C89.3641 160.106 89.7164 160.606 89.9247 161.227ZM100.261 168.182C99.4205 168.182 98.6951 167.996 98.0852 167.625C97.4792 167.25 97.0114 166.727 96.6818 166.057C96.3561 165.383 96.1932 164.598 96.1932 163.705C96.1932 162.811 96.3561 162.023 96.6818 161.341C97.0114 160.655 97.4697 160.121 98.0568 159.739C98.6477 159.352 99.3371 159.159 100.125 159.159C100.58 159.159 101.028 159.235 101.472 159.386C101.915 159.538 102.318 159.784 102.682 160.125C103.045 160.462 103.335 160.909 103.551 161.466C103.767 162.023 103.875 162.708 103.875 163.523V164.091H97.1477V162.932H102.511C102.511 162.439 102.413 162 102.216 161.614C102.023 161.227 101.746 160.922 101.386 160.699C101.03 160.475 100.61 160.364 100.125 160.364C99.5909 160.364 99.1288 160.496 98.7386 160.761C98.3523 161.023 98.0549 161.364 97.8466 161.784C97.6383 162.205 97.5341 162.655 97.5341 163.136V163.909C97.5341 164.568 97.6477 165.127 97.875 165.585C98.1061 166.04 98.4261 166.386 98.8352 166.625C99.2443 166.86 99.7197 166.977 100.261 166.977C100.614 166.977 100.932 166.928 101.216 166.83C101.504 166.727 101.752 166.576 101.96 166.375C102.169 166.17 102.33 165.917 102.443 165.614L103.739 165.977C103.602 166.417 103.373 166.803 103.051 167.136C102.729 167.466 102.331 167.723 101.858 167.909C101.384 168.091 100.852 168.182 100.261 168.182ZM105.915 168V159.273H107.21V160.636H107.324C107.506 160.17 107.799 159.809 108.205 159.551C108.61 159.29 109.097 159.159 109.665 159.159C110.241 159.159 110.72 159.29 111.102 159.551C111.489 159.809 111.79 160.17 112.006 160.636H112.097C112.32 160.186 112.655 159.828 113.102 159.562C113.549 159.294 114.085 159.159 114.71 159.159C115.491 159.159 116.129 159.403 116.625 159.892C117.121 160.377 117.369 161.133 117.369 162.159V168H116.028V162.159C116.028 161.515 115.852 161.055 115.5 160.778C115.148 160.502 114.733 160.364 114.256 160.364C113.642 160.364 113.167 160.549 112.83 160.92C112.492 161.288 112.324 161.754 112.324 162.318V168H110.96V162.023C110.96 161.527 110.799 161.127 110.477 160.824C110.155 160.517 109.741 160.364 109.233 160.364C108.884 160.364 108.559 160.456 108.256 160.642C107.956 160.828 107.714 161.085 107.528 161.415C107.347 161.741 107.256 162.117 107.256 162.545V168H105.915ZM119.821 168V159.273H121.162V168H119.821ZM120.503 157.818C120.241 157.818 120.016 157.729 119.827 157.551C119.641 157.373 119.548 157.159 119.548 156.909C119.548 156.659 119.641 156.445 119.827 156.267C120.016 156.089 120.241 156 120.503 156C120.764 156 120.988 156.089 121.173 156.267C121.363 156.445 121.457 156.659 121.457 156.909C121.457 157.159 121.363 157.373 121.173 157.551C120.988 157.729 120.764 157.818 120.503 157.818ZM129.8 161.227L128.595 161.568C128.519 161.367 128.408 161.172 128.26 160.983C128.116 160.79 127.919 160.631 127.669 160.506C127.419 160.381 127.099 160.318 126.709 160.318C126.175 160.318 125.73 160.441 125.374 160.688C125.021 160.93 124.845 161.239 124.845 161.614C124.845 161.947 124.966 162.21 125.209 162.403C125.451 162.597 125.83 162.758 126.345 162.886L127.641 163.205C128.421 163.394 129.002 163.684 129.385 164.074C129.768 164.46 129.959 164.958 129.959 165.568C129.959 166.068 129.815 166.515 129.527 166.909C129.243 167.303 128.845 167.614 128.334 167.841C127.822 168.068 127.228 168.182 126.55 168.182C125.66 168.182 124.923 167.989 124.339 167.602C123.756 167.216 123.387 166.652 123.232 165.909L124.504 165.591C124.625 166.061 124.855 166.413 125.192 166.648C125.533 166.883 125.978 167 126.527 167C127.152 167 127.648 166.867 128.016 166.602C128.387 166.333 128.572 166.011 128.572 165.636C128.572 165.333 128.466 165.08 128.254 164.875C128.042 164.667 127.716 164.511 127.277 164.409L125.822 164.068C125.023 163.879 124.436 163.585 124.061 163.188C123.69 162.786 123.504 162.284 123.504 161.682C123.504 161.189 123.643 160.754 123.919 160.375C124.199 159.996 124.58 159.699 125.061 159.483C125.546 159.267 126.095 159.159 126.709 159.159C127.572 159.159 128.25 159.348 128.743 159.727C129.239 160.106 129.591 160.606 129.8 161.227ZM138.159 161.227L136.955 161.568C136.879 161.367 136.767 161.172 136.619 160.983C136.475 160.79 136.278 160.631 136.028 160.506C135.778 160.381 135.458 160.318 135.068 160.318C134.534 160.318 134.089 160.441 133.733 160.688C133.381 160.93 133.205 161.239 133.205 161.614C133.205 161.947 133.326 162.21 133.568 162.403C133.811 162.597 134.189 162.758 134.705 162.886L136 163.205C136.78 163.394 137.362 163.684 137.744 164.074C138.127 164.46 138.318 164.958 138.318 165.568C138.318 166.068 138.174 166.515 137.886 166.909C137.602 167.303 137.205 167.614 136.693 167.841C136.182 168.068 135.587 168.182 134.909 168.182C134.019 168.182 133.282 167.989 132.699 167.602C132.116 167.216 131.746 166.652 131.591 165.909L132.864 165.591C132.985 166.061 133.214 166.413 133.551 166.648C133.892 166.883 134.337 167 134.886 167C135.511 167 136.008 166.867 136.375 166.602C136.746 166.333 136.932 166.011 136.932 165.636C136.932 165.333 136.826 165.08 136.614 164.875C136.402 164.667 136.076 164.511 135.636 164.409L134.182 164.068C133.383 163.879 132.795 163.585 132.42 163.188C132.049 162.786 131.864 162.284 131.864 161.682C131.864 161.189 132.002 160.754 132.278 160.375C132.559 159.996 132.939 159.699 133.42 159.483C133.905 159.267 134.455 159.159 135.068 159.159C135.932 159.159 136.61 159.348 137.102 159.727C137.598 160.106 137.951 160.606 138.159 161.227ZM143.882 168.182C143.094 168.182 142.403 167.994 141.808 167.619C141.217 167.244 140.755 166.72 140.422 166.045C140.092 165.371 139.928 164.583 139.928 163.682C139.928 162.773 140.092 161.979 140.422 161.301C140.755 160.623 141.217 160.097 141.808 159.722C142.403 159.347 143.094 159.159 143.882 159.159C144.67 159.159 145.359 159.347 145.95 159.722C146.545 160.097 147.007 160.623 147.337 161.301C147.67 161.979 147.837 162.773 147.837 163.682C147.837 164.583 147.67 165.371 147.337 166.045C147.007 166.72 146.545 167.244 145.95 167.619C145.359 167.994 144.67 168.182 143.882 168.182ZM143.882 166.977C144.481 166.977 144.973 166.824 145.359 166.517C145.746 166.21 146.032 165.807 146.217 165.307C146.403 164.807 146.496 164.265 146.496 163.682C146.496 163.098 146.403 162.555 146.217 162.051C146.032 161.547 145.746 161.14 145.359 160.83C144.973 160.519 144.481 160.364 143.882 160.364C143.284 160.364 142.791 160.519 142.405 160.83C142.018 161.14 141.732 161.547 141.547 162.051C141.361 162.555 141.268 163.098 141.268 163.682C141.268 164.265 141.361 164.807 141.547 165.307C141.732 165.807 142.018 166.21 142.405 166.517C142.791 166.824 143.284 166.977 143.882 166.977ZM142.132 158.227L141.087 158.182C141.087 157.602 141.251 157.129 141.581 156.761C141.914 156.39 142.325 156.205 142.814 156.205C143.03 156.205 143.221 156.242 143.388 156.318C143.554 156.39 143.714 156.473 143.865 156.568C144.017 156.663 144.172 156.748 144.331 156.824C144.494 156.896 144.678 156.932 144.882 156.932C145.098 156.932 145.28 156.848 145.428 156.682C145.579 156.511 145.655 156.307 145.655 156.068L146.678 156.159C146.678 156.75 146.511 157.22 146.178 157.568C145.848 157.917 145.439 158.091 144.95 158.091C144.689 158.091 144.473 158.055 144.303 157.983C144.132 157.907 143.981 157.822 143.848 157.727C143.715 157.633 143.575 157.549 143.428 157.477C143.28 157.402 143.098 157.364 142.882 157.364C142.666 157.364 142.486 157.449 142.342 157.619C142.202 157.786 142.132 157.989 142.132 158.227ZM153.543 168.182C152.702 168.182 151.976 167.996 151.366 167.625C150.76 167.25 150.293 166.727 149.963 166.057C149.637 165.383 149.474 164.598 149.474 163.705C149.474 162.811 149.637 162.023 149.963 161.341C150.293 160.655 150.751 160.121 151.338 159.739C151.929 159.352 152.618 159.159 153.406 159.159C153.861 159.159 154.31 159.235 154.753 159.386C155.196 159.538 155.599 159.784 155.963 160.125C156.327 160.462 156.616 160.909 156.832 161.466C157.048 162.023 157.156 162.708 157.156 163.523V164.091H150.429V162.932H155.793C155.793 162.439 155.694 162 155.497 161.614C155.304 161.227 155.027 160.922 154.668 160.699C154.312 160.475 153.891 160.364 153.406 160.364C152.872 160.364 152.41 160.496 152.02 160.761C151.634 161.023 151.336 161.364 151.128 161.784C150.92 162.205 150.815 162.655 150.815 163.136V163.909C150.815 164.568 150.929 165.127 151.156 165.585C151.387 166.04 151.707 166.386 152.116 166.625C152.526 166.86 153.001 166.977 153.543 166.977C153.895 166.977 154.213 166.928 154.497 166.83C154.785 166.727 155.033 166.576 155.241 166.375C155.45 166.17 155.611 165.917 155.724 165.614L157.02 165.977C156.884 166.417 156.654 166.803 156.332 167.136C156.01 167.466 155.613 167.723 155.139 167.909C154.666 168.091 154.134 168.182 153.543 168.182ZM165.378 161.227L164.173 161.568C164.098 161.367 163.986 161.172 163.838 160.983C163.694 160.79 163.497 160.631 163.247 160.506C162.997 160.381 162.677 160.318 162.287 160.318C161.753 160.318 161.308 160.441 160.952 160.688C160.599 160.93 160.423 161.239 160.423 161.614C160.423 161.947 160.545 162.21 160.787 162.403C161.029 162.597 161.408 162.758 161.923 162.886L163.219 163.205C163.999 163.394 164.58 163.684 164.963 164.074C165.346 164.46 165.537 164.958 165.537 165.568C165.537 166.068 165.393 166.515 165.105 166.909C164.821 167.303 164.423 167.614 163.912 167.841C163.401 168.068 162.806 168.182 162.128 168.182C161.238 168.182 160.501 167.989 159.918 167.602C159.334 167.216 158.965 166.652 158.81 165.909L160.082 165.591C160.204 166.061 160.433 166.413 160.77 166.648C161.111 166.883 161.556 167 162.105 167C162.73 167 163.226 166.867 163.594 166.602C163.965 166.333 164.151 166.011 164.151 165.636C164.151 165.333 164.045 165.08 163.832 164.875C163.62 164.667 163.295 164.511 162.855 164.409L161.401 164.068C160.601 163.879 160.014 163.585 159.639 163.188C159.268 162.786 159.082 162.284 159.082 161.682C159.082 161.189 159.221 160.754 159.497 160.375C159.777 159.996 160.158 159.699 160.639 159.483C161.124 159.267 161.673 159.159 162.287 159.159C163.151 159.159 163.829 159.348 164.321 159.727C164.817 160.106 165.17 160.606 165.378 161.227ZM172.533 162.182C172.533 160.75 172.718 159.434 173.089 158.233C173.464 157.028 173.999 155.92 174.692 154.909H175.874C175.601 155.284 175.345 155.746 175.107 156.295C174.872 156.841 174.665 157.441 174.487 158.097C174.309 158.748 174.169 159.422 174.067 160.119C173.968 160.816 173.919 161.504 173.919 162.182C173.919 163.083 174.006 163.998 174.18 164.926C174.355 165.854 174.589 166.716 174.885 167.511C175.18 168.307 175.51 168.955 175.874 169.455H174.692C173.999 168.443 173.464 167.337 173.089 166.136C172.718 164.932 172.533 163.614 172.533 162.182ZM178.034 168V156.364H185.057V157.614H179.443V161.545H184.693V162.795H179.443V166.75H185.148V168H178.034ZM187.415 168V159.273H188.71V160.636H188.824C189.006 160.17 189.299 159.809 189.705 159.551C190.11 159.29 190.597 159.159 191.165 159.159C191.741 159.159 192.22 159.29 192.602 159.551C192.989 159.809 193.29 160.17 193.506 160.636H193.597C193.82 160.186 194.155 159.828 194.602 159.562C195.049 159.294 195.585 159.159 196.21 159.159C196.991 159.159 197.629 159.403 198.125 159.892C198.621 160.377 198.869 161.133 198.869 162.159V168H197.528V162.159C197.528 161.515 197.352 161.055 197 160.778C196.648 160.502 196.233 160.364 195.756 160.364C195.142 160.364 194.667 160.549 194.33 160.92C193.992 161.288 193.824 161.754 193.824 162.318V168H192.46V162.023C192.46 161.527 192.299 161.127 191.977 160.824C191.655 160.517 191.241 160.364 190.733 160.364C190.384 160.364 190.059 160.456 189.756 160.642C189.456 160.828 189.214 161.085 189.028 161.415C188.847 161.741 188.756 162.117 188.756 162.545V168H187.415ZM209.616 159.273V160.409H205.094V159.273H209.616ZM206.412 157.182H207.753V165.5C207.753 165.879 207.808 166.163 207.918 166.352C208.031 166.538 208.175 166.663 208.349 166.727C208.527 166.788 208.715 166.818 208.912 166.818C209.06 166.818 209.181 166.811 209.276 166.795C209.37 166.777 209.446 166.761 209.503 166.75L209.776 167.955C209.685 167.989 209.558 168.023 209.395 168.057C209.232 168.095 209.026 168.114 208.776 168.114C208.397 168.114 208.026 168.032 207.662 167.869C207.302 167.706 207.003 167.458 206.764 167.125C206.529 166.792 206.412 166.371 206.412 165.864V157.182ZM215.085 168.182C214.297 168.182 213.606 167.994 213.011 167.619C212.42 167.244 211.958 166.72 211.625 166.045C211.295 165.371 211.131 164.583 211.131 163.682C211.131 162.773 211.295 161.979 211.625 161.301C211.958 160.623 212.42 160.097 213.011 159.722C213.606 159.347 214.297 159.159 215.085 159.159C215.873 159.159 216.563 159.347 217.153 159.722C217.748 160.097 218.21 160.623 218.54 161.301C218.873 161.979 219.04 162.773 219.04 163.682C219.04 164.583 218.873 165.371 218.54 166.045C218.21 166.72 217.748 167.244 217.153 167.619C216.563 167.994 215.873 168.182 215.085 168.182ZM215.085 166.977C215.684 166.977 216.176 166.824 216.562 166.517C216.949 166.21 217.235 165.807 217.42 165.307C217.606 164.807 217.699 164.265 217.699 163.682C217.699 163.098 217.606 162.555 217.42 162.051C217.235 161.547 216.949 161.14 216.562 160.83C216.176 160.519 215.684 160.364 215.085 160.364C214.487 160.364 213.994 160.519 213.608 160.83C213.222 161.14 212.936 161.547 212.75 162.051C212.564 162.555 212.472 163.098 212.472 163.682C212.472 164.265 212.564 164.807 212.75 165.307C212.936 165.807 213.222 166.21 213.608 166.517C213.994 166.824 214.487 166.977 215.085 166.977ZM222.428 162.75V168H221.087V159.273H222.382V160.636H222.496C222.7 160.193 223.011 159.837 223.428 159.568C223.844 159.295 224.382 159.159 225.041 159.159C225.632 159.159 226.149 159.28 226.592 159.523C227.036 159.761 227.38 160.125 227.626 160.614C227.873 161.098 227.996 161.712 227.996 162.455V168H226.655V162.545C226.655 161.86 226.477 161.326 226.121 160.943C225.765 160.557 225.276 160.364 224.655 160.364C224.227 160.364 223.844 160.456 223.507 160.642C223.174 160.828 222.911 161.098 222.717 161.455C222.524 161.811 222.428 162.242 222.428 162.75ZM234.105 168.182C233.264 168.182 232.539 167.996 231.929 167.625C231.323 167.25 230.855 166.727 230.526 166.057C230.2 165.383 230.037 164.598 230.037 163.705C230.037 162.811 230.2 162.023 230.526 161.341C230.855 160.655 231.313 160.121 231.901 159.739C232.491 159.352 233.181 159.159 233.969 159.159C234.423 159.159 234.872 159.235 235.315 159.386C235.759 159.538 236.162 159.784 236.526 160.125C236.889 160.462 237.179 160.909 237.395 161.466C237.611 162.023 237.719 162.708 237.719 163.523V164.091H230.991V162.932H236.355C236.355 162.439 236.257 162 236.06 161.614C235.866 161.227 235.59 160.922 235.23 160.699C234.874 160.475 234.454 160.364 233.969 160.364C233.435 160.364 232.973 160.496 232.582 160.761C232.196 161.023 231.899 161.364 231.69 161.784C231.482 162.205 231.378 162.655 231.378 163.136V163.909C231.378 164.568 231.491 165.127 231.719 165.585C231.95 166.04 232.27 166.386 232.679 166.625C233.088 166.86 233.563 166.977 234.105 166.977C234.457 166.977 234.776 166.928 235.06 166.83C235.348 166.727 235.596 166.576 235.804 166.375C236.012 166.17 236.173 165.917 236.287 165.614L237.582 165.977C237.446 166.417 237.217 166.803 236.895 167.136C236.573 167.466 236.175 167.723 235.702 167.909C235.228 168.091 234.696 168.182 234.105 168.182ZM241.099 156.364V168H239.759V156.364H241.099ZM246.124 168.205C245.571 168.205 245.069 168.1 244.618 167.892C244.167 167.68 243.809 167.375 243.544 166.977C243.279 166.576 243.146 166.091 243.146 165.523C243.146 165.023 243.245 164.617 243.442 164.307C243.639 163.992 243.902 163.746 244.232 163.568C244.561 163.39 244.925 163.258 245.322 163.17C245.724 163.08 246.127 163.008 246.533 162.955C247.063 162.886 247.493 162.835 247.822 162.801C248.156 162.763 248.398 162.701 248.55 162.614C248.705 162.527 248.783 162.375 248.783 162.159V162.114C248.783 161.553 248.629 161.117 248.322 160.807C248.019 160.496 247.559 160.341 246.942 160.341C246.302 160.341 245.8 160.481 245.436 160.761C245.072 161.042 244.817 161.341 244.669 161.659L243.396 161.205C243.624 160.674 243.927 160.261 244.305 159.966C244.688 159.667 245.105 159.458 245.555 159.341C246.01 159.22 246.457 159.159 246.896 159.159C247.177 159.159 247.499 159.193 247.862 159.261C248.23 159.326 248.584 159.46 248.925 159.665C249.269 159.869 249.555 160.178 249.783 160.591C250.01 161.004 250.124 161.557 250.124 162.25V168H248.783V166.818H248.714C248.624 167.008 248.472 167.21 248.26 167.426C248.048 167.642 247.766 167.826 247.413 167.977C247.061 168.129 246.631 168.205 246.124 168.205ZM246.328 167C246.858 167 247.305 166.896 247.669 166.688C248.036 166.479 248.313 166.21 248.499 165.881C248.688 165.551 248.783 165.205 248.783 164.841V163.614C248.726 163.682 248.601 163.744 248.408 163.801C248.218 163.854 247.999 163.902 247.749 163.943C247.502 163.981 247.262 164.015 247.027 164.045C246.796 164.072 246.608 164.095 246.464 164.114C246.116 164.159 245.79 164.233 245.487 164.335C245.188 164.434 244.946 164.583 244.76 164.784C244.578 164.981 244.487 165.25 244.487 165.591C244.487 166.057 244.66 166.409 245.004 166.648C245.353 166.883 245.794 167 246.328 167ZM255.866 168.182C255.139 168.182 254.497 167.998 253.94 167.631C253.384 167.259 252.948 166.737 252.634 166.062C252.319 165.384 252.162 164.583 252.162 163.659C252.162 162.742 252.319 161.947 252.634 161.273C252.948 160.598 253.385 160.078 253.946 159.71C254.507 159.343 255.154 159.159 255.889 159.159C256.457 159.159 256.906 159.254 257.236 159.443C257.569 159.629 257.823 159.841 257.997 160.08C258.175 160.314 258.313 160.508 258.412 160.659H258.526V156.364H259.866V168H258.571V166.659H258.412C258.313 166.818 258.173 167.019 257.991 167.261C257.81 167.5 257.55 167.714 257.213 167.903C256.876 168.089 256.427 168.182 255.866 168.182ZM256.048 166.977C256.586 166.977 257.041 166.837 257.412 166.557C257.783 166.273 258.065 165.881 258.259 165.381C258.452 164.877 258.548 164.295 258.548 163.636C258.548 162.985 258.454 162.415 258.264 161.926C258.075 161.434 257.795 161.051 257.423 160.778C257.052 160.502 256.594 160.364 256.048 160.364C255.48 160.364 255.007 160.509 254.628 160.801C254.253 161.089 253.971 161.481 253.781 161.977C253.596 162.47 253.503 163.023 253.503 163.636C253.503 164.258 253.598 164.822 253.787 165.33C253.98 165.833 254.264 166.235 254.639 166.534C255.018 166.83 255.488 166.977 256.048 166.977ZM265.077 168.205C264.524 168.205 264.022 168.1 263.571 167.892C263.12 167.68 262.762 167.375 262.497 166.977C262.232 166.576 262.099 166.091 262.099 165.523C262.099 165.023 262.198 164.617 262.395 164.307C262.592 163.992 262.855 163.746 263.185 163.568C263.514 163.39 263.878 163.258 264.276 163.17C264.677 163.08 265.08 163.008 265.486 162.955C266.016 162.886 266.446 162.835 266.776 162.801C267.109 162.763 267.351 162.701 267.503 162.614C267.658 162.527 267.736 162.375 267.736 162.159V162.114C267.736 161.553 267.582 161.117 267.276 160.807C266.973 160.496 266.512 160.341 265.895 160.341C265.255 160.341 264.753 160.481 264.389 160.761C264.026 161.042 263.77 161.341 263.622 161.659L262.349 161.205C262.577 160.674 262.88 160.261 263.259 159.966C263.641 159.667 264.058 159.458 264.509 159.341C264.963 159.22 265.41 159.159 265.849 159.159C266.13 159.159 266.452 159.193 266.815 159.261C267.183 159.326 267.537 159.46 267.878 159.665C268.223 159.869 268.509 160.178 268.736 160.591C268.963 161.004 269.077 161.557 269.077 162.25V168H267.736V166.818H267.668C267.577 167.008 267.425 167.21 267.213 167.426C267.001 167.642 266.719 167.826 266.366 167.977C266.014 168.129 265.584 168.205 265.077 168.205ZM265.281 167C265.812 167 266.259 166.896 266.622 166.688C266.99 166.479 267.266 166.21 267.452 165.881C267.641 165.551 267.736 165.205 267.736 164.841V163.614C267.679 163.682 267.554 163.744 267.361 163.801C267.171 163.854 266.952 163.902 266.702 163.943C266.455 163.981 266.215 164.015 265.98 164.045C265.749 164.072 265.562 164.095 265.418 164.114C265.069 164.159 264.743 164.233 264.44 164.335C264.141 164.434 263.899 164.583 263.713 164.784C263.531 164.981 263.44 165.25 263.44 165.591C263.44 166.057 263.613 166.409 263.957 166.648C264.306 166.883 264.747 167 265.281 167ZM277.706 161.227L276.501 161.568C276.426 161.367 276.314 161.172 276.166 160.983C276.022 160.79 275.825 160.631 275.575 160.506C275.325 160.381 275.005 160.318 274.615 160.318C274.081 160.318 273.636 160.441 273.28 160.688C272.928 160.93 272.751 161.239 272.751 161.614C272.751 161.947 272.873 162.21 273.115 162.403C273.357 162.597 273.736 162.758 274.251 162.886L275.547 163.205C276.327 163.394 276.909 163.684 277.291 164.074C277.674 164.46 277.865 164.958 277.865 165.568C277.865 166.068 277.721 166.515 277.433 166.909C277.149 167.303 276.751 167.614 276.24 167.841C275.729 168.068 275.134 168.182 274.456 168.182C273.566 168.182 272.829 167.989 272.246 167.602C271.662 167.216 271.293 166.652 271.138 165.909L272.411 165.591C272.532 166.061 272.761 166.413 273.098 166.648C273.439 166.883 273.884 167 274.433 167C275.058 167 275.554 166.867 275.922 166.602C276.293 166.333 276.479 166.011 276.479 165.636C276.479 165.333 276.373 165.08 276.161 164.875C275.948 164.667 275.623 164.511 275.183 164.409L273.729 164.068C272.929 163.879 272.342 163.585 271.967 163.188C271.596 162.786 271.411 162.284 271.411 161.682C271.411 161.189 271.549 160.754 271.825 160.375C272.106 159.996 272.486 159.699 272.967 159.483C273.452 159.267 274.001 159.159 274.615 159.159C275.479 159.159 276.157 159.348 276.649 159.727C277.145 160.106 277.498 160.606 277.706 161.227ZM282.747 163.091C282.747 164.523 282.56 165.841 282.185 167.045C281.813 168.246 281.281 169.352 280.588 170.364H279.406C279.679 169.989 279.933 169.527 280.168 168.977C280.406 168.432 280.615 167.833 280.793 167.182C280.971 166.527 281.109 165.85 281.207 165.153C281.31 164.453 281.361 163.765 281.361 163.091C281.361 162.189 281.274 161.275 281.099 160.347C280.925 159.419 280.69 158.557 280.395 157.761C280.099 156.966 279.77 156.318 279.406 155.818H280.588C281.281 156.83 281.813 157.937 282.185 159.142C282.56 160.343 282.747 161.659 282.747 163.091Z" fill="white"/>
<path d="M85.2955 190.364V202H83.8864V191.841H83.8182L80.9773 193.727V192.295L83.8864 190.364H85.2955ZM88.3693 199.614V198.455L93.483 190.364H94.3239V192.159H93.7557L89.892 198.273V198.364H96.7784V199.614H88.3693ZM93.8466 202V199.261V198.722V190.364H95.1875V202H93.8466ZM104.839 199.818V199.205C104.839 198.78 104.927 198.392 105.101 198.04C105.279 197.684 105.536 197.4 105.874 197.188C106.214 196.972 106.627 196.864 107.112 196.864C107.605 196.864 108.018 196.972 108.351 197.188C108.684 197.4 108.936 197.684 109.107 198.04C109.277 198.392 109.362 198.78 109.362 199.205V199.818C109.362 200.242 109.275 200.633 109.101 200.989C108.93 201.341 108.677 201.625 108.339 201.841C108.006 202.053 107.597 202.159 107.112 202.159C106.62 202.159 106.205 202.053 105.868 201.841C105.531 201.625 105.275 201.341 105.101 200.989C104.927 200.633 104.839 200.242 104.839 199.818ZM105.999 199.205V199.818C105.999 200.17 106.082 200.487 106.249 200.767C106.415 201.044 106.703 201.182 107.112 201.182C107.51 201.182 107.79 201.044 107.953 200.767C108.12 200.487 108.203 200.17 108.203 199.818V199.205C108.203 198.852 108.124 198.538 107.964 198.261C107.805 197.981 107.521 197.841 107.112 197.841C106.714 197.841 106.429 197.981 106.254 198.261C106.084 198.538 105.999 198.852 105.999 199.205ZM99.044 193.159V192.545C99.044 192.121 99.1312 191.733 99.3054 191.381C99.4834 191.025 99.741 190.741 100.078 190.528C100.419 190.312 100.832 190.205 101.317 190.205C101.809 190.205 102.222 190.312 102.555 190.528C102.889 190.741 103.141 191.025 103.311 191.381C103.482 191.733 103.567 192.121 103.567 192.545V193.159C103.567 193.583 103.48 193.973 103.305 194.33C103.135 194.682 102.881 194.966 102.544 195.182C102.211 195.394 101.802 195.5 101.317 195.5C100.824 195.5 100.41 195.394 100.072 195.182C99.7353 194.966 99.4796 194.682 99.3054 194.33C99.1312 193.973 99.044 193.583 99.044 193.159ZM100.203 192.545V193.159C100.203 193.511 100.286 193.828 100.453 194.108C100.62 194.384 100.908 194.523 101.317 194.523C101.714 194.523 101.995 194.384 102.158 194.108C102.324 193.828 102.408 193.511 102.408 193.159V192.545C102.408 192.193 102.328 191.879 102.169 191.602C102.01 191.322 101.726 191.182 101.317 191.182C100.919 191.182 100.633 191.322 100.459 191.602C100.288 191.879 100.203 192.193 100.203 192.545ZM99.4759 202L107.476 190.364H108.771L100.771 202H99.4759ZM118.999 202.205C118.446 202.205 117.944 202.1 117.493 201.892C117.042 201.68 116.684 201.375 116.419 200.977C116.154 200.576 116.021 200.091 116.021 199.523C116.021 199.023 116.12 198.617 116.317 198.307C116.514 197.992 116.777 197.746 117.107 197.568C117.436 197.39 117.8 197.258 118.197 197.17C118.599 197.08 119.002 197.008 119.408 196.955C119.938 196.886 120.368 196.835 120.697 196.801C121.031 196.763 121.273 196.701 121.425 196.614C121.58 196.527 121.658 196.375 121.658 196.159V196.114C121.658 195.553 121.504 195.117 121.197 194.807C120.894 194.496 120.434 194.341 119.817 194.341C119.177 194.341 118.675 194.481 118.311 194.761C117.947 195.042 117.692 195.341 117.544 195.659L116.271 195.205C116.499 194.674 116.802 194.261 117.18 193.966C117.563 193.667 117.98 193.458 118.43 193.341C118.885 193.22 119.332 193.159 119.771 193.159C120.052 193.159 120.374 193.193 120.737 193.261C121.105 193.326 121.459 193.46 121.8 193.665C122.144 193.869 122.43 194.178 122.658 194.591C122.885 195.004 122.999 195.557 122.999 196.25V202H121.658V200.818H121.589C121.499 201.008 121.347 201.21 121.135 201.426C120.923 201.642 120.641 201.826 120.288 201.977C119.936 202.129 119.506 202.205 118.999 202.205ZM119.203 201C119.733 201 120.18 200.896 120.544 200.688C120.911 200.479 121.188 200.21 121.374 199.881C121.563 199.551 121.658 199.205 121.658 198.841V197.614C121.601 197.682 121.476 197.744 121.283 197.801C121.093 197.854 120.874 197.902 120.624 197.943C120.377 197.981 120.137 198.015 119.902 198.045C119.671 198.072 119.483 198.095 119.339 198.114C118.991 198.159 118.665 198.233 118.362 198.335C118.063 198.434 117.821 198.583 117.635 198.784C117.453 198.981 117.362 199.25 117.362 199.591C117.362 200.057 117.535 200.409 117.879 200.648C118.228 200.883 118.669 201 119.203 201ZM129.946 202V193.273H131.241V194.636H131.355C131.537 194.17 131.83 193.809 132.236 193.551C132.641 193.29 133.128 193.159 133.696 193.159C134.272 193.159 134.751 193.29 135.134 193.551C135.52 193.809 135.821 194.17 136.037 194.636H136.128C136.351 194.186 136.687 193.828 137.134 193.562C137.58 193.294 138.116 193.159 138.741 193.159C139.522 193.159 140.16 193.403 140.656 193.892C141.152 194.377 141.401 195.133 141.401 196.159V202H140.06V196.159C140.06 195.515 139.884 195.055 139.531 194.778C139.179 194.502 138.764 194.364 138.287 194.364C137.673 194.364 137.198 194.549 136.861 194.92C136.524 195.288 136.355 195.754 136.355 196.318V202H134.991V196.023C134.991 195.527 134.83 195.127 134.509 194.824C134.187 194.517 133.772 194.364 133.264 194.364C132.916 194.364 132.59 194.456 132.287 194.642C131.988 194.828 131.745 195.085 131.56 195.415C131.378 195.741 131.287 196.117 131.287 196.545V202H129.946ZM146.42 202.205C145.867 202.205 145.366 202.1 144.915 201.892C144.464 201.68 144.106 201.375 143.841 200.977C143.576 200.576 143.443 200.091 143.443 199.523C143.443 199.023 143.542 198.617 143.739 198.307C143.936 197.992 144.199 197.746 144.528 197.568C144.858 197.39 145.222 197.258 145.619 197.17C146.021 197.08 146.424 197.008 146.83 196.955C147.36 196.886 147.79 196.835 148.119 196.801C148.453 196.763 148.695 196.701 148.847 196.614C149.002 196.527 149.08 196.375 149.08 196.159V196.114C149.08 195.553 148.926 195.117 148.619 194.807C148.316 194.496 147.856 194.341 147.239 194.341C146.598 194.341 146.097 194.481 145.733 194.761C145.369 195.042 145.114 195.341 144.966 195.659L143.693 195.205C143.92 194.674 144.223 194.261 144.602 193.966C144.985 193.667 145.402 193.458 145.852 193.341C146.307 193.22 146.754 193.159 147.193 193.159C147.473 193.159 147.795 193.193 148.159 193.261C148.527 193.326 148.881 193.46 149.222 193.665C149.566 193.869 149.852 194.178 150.08 194.591C150.307 195.004 150.42 195.557 150.42 196.25V202H149.08V200.818H149.011C148.92 201.008 148.769 201.21 148.557 201.426C148.345 201.642 148.063 201.826 147.71 201.977C147.358 202.129 146.928 202.205 146.42 202.205ZM146.625 201C147.155 201 147.602 200.896 147.966 200.688C148.333 200.479 148.61 200.21 148.795 199.881C148.985 199.551 149.08 199.205 149.08 198.841V197.614C149.023 197.682 148.898 197.744 148.705 197.801C148.515 197.854 148.295 197.902 148.045 197.943C147.799 197.981 147.559 198.015 147.324 198.045C147.093 198.072 146.905 198.095 146.761 198.114C146.413 198.159 146.087 198.233 145.784 198.335C145.485 198.434 145.242 198.583 145.057 198.784C144.875 198.981 144.784 199.25 144.784 199.591C144.784 200.057 144.956 200.409 145.301 200.648C145.65 200.883 146.091 201 146.625 201ZM152.868 202V193.273H154.209V202H152.868ZM153.55 191.818C153.288 191.818 153.063 191.729 152.874 191.551C152.688 191.373 152.595 191.159 152.595 190.909C152.595 190.659 152.688 190.445 152.874 190.267C153.063 190.089 153.288 190 153.55 190C153.811 190 154.035 190.089 154.22 190.267C154.41 190.445 154.504 190.659 154.504 190.909C154.504 191.159 154.41 191.373 154.22 191.551C154.035 191.729 153.811 191.818 153.55 191.818ZM162.847 195.227L161.642 195.568C161.566 195.367 161.455 195.172 161.307 194.983C161.163 194.79 160.966 194.631 160.716 194.506C160.466 194.381 160.146 194.318 159.756 194.318C159.222 194.318 158.777 194.441 158.42 194.688C158.068 194.93 157.892 195.239 157.892 195.614C157.892 195.947 158.013 196.21 158.256 196.403C158.498 196.597 158.877 196.758 159.392 196.886L160.688 197.205C161.468 197.394 162.049 197.684 162.432 198.074C162.814 198.46 163.006 198.958 163.006 199.568C163.006 200.068 162.862 200.515 162.574 200.909C162.29 201.303 161.892 201.614 161.381 201.841C160.869 202.068 160.275 202.182 159.597 202.182C158.706 202.182 157.97 201.989 157.386 201.602C156.803 201.216 156.434 200.652 156.278 199.909L157.551 199.591C157.672 200.061 157.902 200.413 158.239 200.648C158.58 200.883 159.025 201 159.574 201C160.199 201 160.695 200.867 161.062 200.602C161.434 200.333 161.619 200.011 161.619 199.636C161.619 199.333 161.513 199.08 161.301 198.875C161.089 198.667 160.763 198.511 160.324 198.409L158.869 198.068C158.07 197.879 157.483 197.585 157.108 197.188C156.737 196.786 156.551 196.284 156.551 195.682C156.551 195.189 156.689 194.754 156.966 194.375C157.246 193.996 157.627 193.699 158.108 193.483C158.593 193.267 159.142 193.159 159.756 193.159C160.619 193.159 161.297 193.348 161.79 193.727C162.286 194.106 162.638 194.606 162.847 195.227ZM175.479 205.273V200.659H175.365C175.267 200.818 175.126 201.019 174.945 201.261C174.763 201.5 174.503 201.714 174.166 201.903C173.829 202.089 173.38 202.182 172.82 202.182C172.092 202.182 171.45 201.998 170.893 201.631C170.337 201.259 169.901 200.737 169.587 200.062C169.272 199.384 169.115 198.583 169.115 197.659C169.115 196.742 169.272 195.947 169.587 195.273C169.901 194.598 170.339 194.078 170.899 193.71C171.46 193.343 172.107 193.159 172.842 193.159C173.411 193.159 173.859 193.254 174.189 193.443C174.522 193.629 174.776 193.841 174.95 194.08C175.128 194.314 175.267 194.508 175.365 194.659H175.524V193.273H176.82V205.273H175.479ZM173.001 200.977C173.539 200.977 173.994 200.837 174.365 200.557C174.736 200.273 175.018 199.881 175.212 199.381C175.405 198.877 175.501 198.295 175.501 197.636C175.501 196.985 175.407 196.415 175.217 195.926C175.028 195.434 174.748 195.051 174.376 194.778C174.005 194.502 173.547 194.364 173.001 194.364C172.433 194.364 171.96 194.509 171.581 194.801C171.206 195.089 170.924 195.481 170.734 195.977C170.549 196.47 170.456 197.023 170.456 197.636C170.456 198.258 170.551 198.822 170.74 199.33C170.933 199.833 171.217 200.235 171.592 200.534C171.971 200.83 172.441 200.977 173.001 200.977ZM184.774 198.432V193.273H186.115V202H184.774V200.523H184.683C184.479 200.966 184.161 201.343 183.729 201.653C183.297 201.96 182.751 202.114 182.092 202.114C181.547 202.114 181.062 201.994 180.638 201.756C180.214 201.513 179.88 201.15 179.638 200.665C179.395 200.176 179.274 199.561 179.274 198.818V193.273H180.615V198.727C180.615 199.364 180.793 199.871 181.149 200.25C181.509 200.629 181.967 200.818 182.524 200.818C182.857 200.818 183.196 200.733 183.541 200.562C183.89 200.392 184.181 200.131 184.416 199.778C184.655 199.426 184.774 198.977 184.774 198.432ZM192.23 202.182C191.389 202.182 190.664 201.996 190.054 201.625C189.448 201.25 188.98 200.727 188.651 200.057C188.325 199.383 188.162 198.598 188.162 197.705C188.162 196.811 188.325 196.023 188.651 195.341C188.98 194.655 189.438 194.121 190.026 193.739C190.616 193.352 191.306 193.159 192.094 193.159C192.548 193.159 192.997 193.235 193.44 193.386C193.884 193.538 194.287 193.784 194.651 194.125C195.014 194.462 195.304 194.909 195.52 195.466C195.736 196.023 195.844 196.708 195.844 197.523V198.091H189.116V196.932H194.48C194.48 196.439 194.382 196 194.185 195.614C193.991 195.227 193.715 194.922 193.355 194.699C192.999 194.475 192.579 194.364 192.094 194.364C191.56 194.364 191.098 194.496 190.707 194.761C190.321 195.023 190.024 195.364 189.815 195.784C189.607 196.205 189.503 196.655 189.503 197.136V197.909C189.503 198.568 189.616 199.127 189.844 199.585C190.075 200.04 190.395 200.386 190.804 200.625C191.213 200.86 191.688 200.977 192.23 200.977C192.582 200.977 192.901 200.928 193.185 200.83C193.473 200.727 193.721 200.576 193.929 200.375C194.137 200.17 194.298 199.917 194.412 199.614L195.707 199.977C195.571 200.417 195.342 200.803 195.02 201.136C194.698 201.466 194.3 201.723 193.827 201.909C193.353 202.091 192.821 202.182 192.23 202.182ZM203.724 196.75V202H202.384V193.273H203.679V194.636H203.793C203.997 194.193 204.308 193.837 204.724 193.568C205.141 193.295 205.679 193.159 206.338 193.159C206.929 193.159 207.446 193.28 207.889 193.523C208.332 193.761 208.677 194.125 208.923 194.614C209.17 195.098 209.293 195.712 209.293 196.455V202H207.952V196.545C207.952 195.86 207.774 195.326 207.418 194.943C207.062 194.557 206.573 194.364 205.952 194.364C205.524 194.364 205.141 194.456 204.804 194.642C204.471 194.828 204.207 195.098 204.014 195.455C203.821 195.811 203.724 196.242 203.724 196.75ZM215.288 202.182C214.5 202.182 213.809 201.994 213.214 201.619C212.624 201.244 212.161 200.72 211.828 200.045C211.499 199.371 211.334 198.583 211.334 197.682C211.334 196.773 211.499 195.979 211.828 195.301C212.161 194.623 212.624 194.097 213.214 193.722C213.809 193.347 214.5 193.159 215.288 193.159C216.076 193.159 216.766 193.347 217.357 193.722C217.951 194.097 218.413 194.623 218.743 195.301C219.076 195.979 219.243 196.773 219.243 197.682C219.243 198.583 219.076 199.371 218.743 200.045C218.413 200.72 217.951 201.244 217.357 201.619C216.766 201.994 216.076 202.182 215.288 202.182ZM215.288 200.977C215.887 200.977 216.379 200.824 216.766 200.517C217.152 200.21 217.438 199.807 217.624 199.307C217.809 198.807 217.902 198.265 217.902 197.682C217.902 197.098 217.809 196.555 217.624 196.051C217.438 195.547 217.152 195.14 216.766 194.83C216.379 194.519 215.887 194.364 215.288 194.364C214.69 194.364 214.197 194.519 213.811 194.83C213.425 195.14 213.139 195.547 212.953 196.051C212.768 196.555 212.675 197.098 212.675 197.682C212.675 198.265 212.768 198.807 212.953 199.307C213.139 199.807 213.425 200.21 213.811 200.517C214.197 200.824 214.69 200.977 215.288 200.977ZM225.79 202V193.273H227.085V194.636H227.199C227.381 194.17 227.674 193.809 228.08 193.551C228.485 193.29 228.972 193.159 229.54 193.159C230.116 193.159 230.595 193.29 230.977 193.551C231.364 193.809 231.665 194.17 231.881 194.636H231.972C232.195 194.186 232.53 193.828 232.977 193.562C233.424 193.294 233.96 193.159 234.585 193.159C235.366 193.159 236.004 193.403 236.5 193.892C236.996 194.377 237.244 195.133 237.244 196.159V202H235.903V196.159C235.903 195.515 235.727 195.055 235.375 194.778C235.023 194.502 234.608 194.364 234.131 194.364C233.517 194.364 233.042 194.549 232.705 194.92C232.367 195.288 232.199 195.754 232.199 196.318V202H230.835V196.023C230.835 195.527 230.674 195.127 230.352 194.824C230.03 194.517 229.616 194.364 229.108 194.364C228.759 194.364 228.434 194.456 228.131 194.642C227.831 194.828 227.589 195.085 227.403 195.415C227.222 195.741 227.131 196.117 227.131 196.545V202H225.79ZM243.355 202.182C242.514 202.182 241.789 201.996 241.179 201.625C240.573 201.25 240.105 200.727 239.776 200.057C239.45 199.383 239.287 198.598 239.287 197.705C239.287 196.811 239.45 196.023 239.776 195.341C240.105 194.655 240.563 194.121 241.151 193.739C241.741 193.352 242.431 193.159 243.219 193.159C243.673 193.159 244.122 193.235 244.565 193.386C245.009 193.538 245.412 193.784 245.776 194.125C246.139 194.462 246.429 194.909 246.645 195.466C246.861 196.023 246.969 196.708 246.969 197.523V198.091H240.241V196.932H245.605C245.605 196.439 245.507 196 245.31 195.614C245.116 195.227 244.84 194.922 244.48 194.699C244.124 194.475 243.704 194.364 243.219 194.364C242.685 194.364 242.223 194.496 241.832 194.761C241.446 195.023 241.149 195.364 240.94 195.784C240.732 196.205 240.628 196.655 240.628 197.136V197.909C240.628 198.568 240.741 199.127 240.969 199.585C241.2 200.04 241.52 200.386 241.929 200.625C242.338 200.86 242.813 200.977 243.355 200.977C243.707 200.977 244.026 200.928 244.31 200.83C244.598 200.727 244.846 200.576 245.054 200.375C245.262 200.17 245.423 199.917 245.537 199.614L246.832 199.977C246.696 200.417 246.467 200.803 246.145 201.136C245.823 201.466 245.425 201.723 244.952 201.909C244.478 202.091 243.946 202.182 243.355 202.182ZM244.332 192.227L243.151 190.636L241.969 192.227H240.696V192.136L242.537 189.773H243.764L245.605 192.136V192.227H244.332ZM255.19 195.227L253.986 195.568C253.91 195.367 253.798 195.172 253.651 194.983C253.507 194.79 253.31 194.631 253.06 194.506C252.81 194.381 252.49 194.318 252.099 194.318C251.565 194.318 251.12 194.441 250.764 194.688C250.412 194.93 250.236 195.239 250.236 195.614C250.236 195.947 250.357 196.21 250.599 196.403C250.842 196.597 251.221 196.758 251.736 196.886L253.031 197.205C253.812 197.394 254.393 197.684 254.776 198.074C255.158 198.46 255.349 198.958 255.349 199.568C255.349 200.068 255.205 200.515 254.918 200.909C254.634 201.303 254.236 201.614 253.724 201.841C253.213 202.068 252.618 202.182 251.94 202.182C251.05 202.182 250.313 201.989 249.73 201.602C249.147 201.216 248.777 200.652 248.622 199.909L249.895 199.591C250.016 200.061 250.245 200.413 250.582 200.648C250.923 200.883 251.368 201 251.918 201C252.543 201 253.039 200.867 253.406 200.602C253.777 200.333 253.963 200.011 253.963 199.636C253.963 199.333 253.857 199.08 253.645 198.875C253.433 198.667 253.107 198.511 252.668 198.409L251.213 198.068C250.414 197.879 249.827 197.585 249.452 197.188C249.08 196.786 248.895 196.284 248.895 195.682C248.895 195.189 249.033 194.754 249.31 194.375C249.59 193.996 249.971 193.699 250.452 193.483C250.937 193.267 251.486 193.159 252.099 193.159C252.963 193.159 253.641 193.348 254.134 193.727C254.63 194.106 254.982 194.606 255.19 195.227ZM264.436 202.205C263.883 202.205 263.381 202.1 262.93 201.892C262.48 201.68 262.122 201.375 261.857 200.977C261.591 200.576 261.459 200.091 261.459 199.523C261.459 199.023 261.557 198.617 261.754 198.307C261.951 197.992 262.214 197.746 262.544 197.568C262.874 197.39 263.237 197.258 263.635 197.17C264.036 197.08 264.44 197.008 264.845 196.955C265.375 196.886 265.805 196.835 266.135 196.801C266.468 196.763 266.711 196.701 266.862 196.614C267.018 196.527 267.095 196.375 267.095 196.159V196.114C267.095 195.553 266.942 195.117 266.635 194.807C266.332 194.496 265.872 194.341 265.254 194.341C264.614 194.341 264.112 194.481 263.749 194.761C263.385 195.042 263.129 195.341 262.982 195.659L261.709 195.205C261.936 194.674 262.239 194.261 262.618 193.966C263 193.667 263.417 193.458 263.868 193.341C264.322 193.22 264.769 193.159 265.209 193.159C265.489 193.159 265.811 193.193 266.175 193.261C266.542 193.326 266.896 193.46 267.237 193.665C267.582 193.869 267.868 194.178 268.095 194.591C268.322 195.004 268.436 195.557 268.436 196.25V202H267.095V200.818H267.027C266.936 201.008 266.785 201.21 266.572 201.426C266.36 201.642 266.078 201.826 265.726 201.977C265.374 202.129 264.944 202.205 264.436 202.205ZM264.641 201C265.171 201 265.618 200.896 265.982 200.688C266.349 200.479 266.625 200.21 266.811 199.881C267 199.551 267.095 199.205 267.095 198.841V197.614C267.038 197.682 266.913 197.744 266.72 197.801C266.531 197.854 266.311 197.902 266.061 197.943C265.815 197.981 265.574 198.015 265.339 198.045C265.108 198.072 264.921 198.095 264.777 198.114C264.429 198.159 264.103 198.233 263.8 198.335C263.5 198.434 263.258 198.583 263.072 198.784C262.891 198.981 262.8 199.25 262.8 199.591C262.8 200.057 262.972 200.409 263.317 200.648C263.665 200.883 264.107 201 264.641 201ZM272.224 196.75V202H270.884V193.273H272.179V194.636H272.293C272.497 194.193 272.808 193.837 273.224 193.568C273.641 193.295 274.179 193.159 274.838 193.159C275.429 193.159 275.946 193.28 276.389 193.523C276.832 193.761 277.177 194.125 277.423 194.614C277.67 195.098 277.793 195.712 277.793 196.455V202H276.452V196.545C276.452 195.86 276.274 195.326 275.918 194.943C275.562 194.557 275.073 194.364 274.452 194.364C274.024 194.364 273.641 194.456 273.304 194.642C272.971 194.828 272.707 195.098 272.514 195.455C272.321 195.811 272.224 196.242 272.224 196.75ZM284.038 193.273V194.409H279.516V193.273H284.038ZM280.834 191.182H282.175V199.5C282.175 199.879 282.23 200.163 282.339 200.352C282.453 200.538 282.597 200.663 282.771 200.727C282.949 200.788 283.137 200.818 283.334 200.818C283.482 200.818 283.603 200.811 283.697 200.795C283.792 200.777 283.868 200.761 283.925 200.75L284.197 201.955C284.107 201.989 283.98 202.023 283.817 202.057C283.654 202.095 283.447 202.114 283.197 202.114C282.819 202.114 282.447 202.032 282.084 201.869C281.724 201.706 281.425 201.458 281.186 201.125C280.951 200.792 280.834 200.371 280.834 199.864V191.182ZM289.621 202.182C288.78 202.182 288.054 201.996 287.445 201.625C286.839 201.25 286.371 200.727 286.041 200.057C285.715 199.383 285.553 198.598 285.553 197.705C285.553 196.811 285.715 196.023 286.041 195.341C286.371 194.655 286.829 194.121 287.416 193.739C288.007 193.352 288.696 193.159 289.484 193.159C289.939 193.159 290.388 193.235 290.831 193.386C291.274 193.538 291.678 193.784 292.041 194.125C292.405 194.462 292.695 194.909 292.911 195.466C293.126 196.023 293.234 196.708 293.234 197.523V198.091H286.507V196.932H291.871C291.871 196.439 291.772 196 291.575 195.614C291.382 195.227 291.106 194.922 290.746 194.699C290.39 194.475 289.969 194.364 289.484 194.364C288.95 194.364 288.488 194.496 288.098 194.761C287.712 195.023 287.414 195.364 287.206 195.784C286.998 196.205 286.893 196.655 286.893 197.136V197.909C286.893 198.568 287.007 199.127 287.234 199.585C287.465 200.04 287.786 200.386 288.195 200.625C288.604 200.86 289.079 200.977 289.621 200.977C289.973 200.977 290.291 200.928 290.575 200.83C290.863 200.727 291.111 200.576 291.32 200.375C291.528 200.17 291.689 199.917 291.803 199.614L293.098 199.977C292.962 200.417 292.732 200.803 292.411 201.136C292.089 201.466 291.691 201.723 291.217 201.909C290.744 202.091 290.212 202.182 289.621 202.182ZM295.274 202V193.273H296.57V194.591H296.661C296.82 194.159 297.107 193.809 297.524 193.54C297.941 193.271 298.411 193.136 298.933 193.136C299.032 193.136 299.155 193.138 299.303 193.142C299.45 193.146 299.562 193.152 299.638 193.159V194.523C299.592 194.511 299.488 194.494 299.325 194.472C299.166 194.445 298.998 194.432 298.82 194.432C298.395 194.432 298.017 194.521 297.683 194.699C297.354 194.873 297.092 195.116 296.899 195.426C296.71 195.733 296.615 196.083 296.615 196.477V202H295.274ZM301.227 202V193.273H302.568V202H301.227ZM301.909 191.818C301.648 191.818 301.422 191.729 301.233 191.551C301.047 191.373 300.955 191.159 300.955 190.909C300.955 190.659 301.047 190.445 301.233 190.267C301.422 190.089 301.648 190 301.909 190C302.17 190 302.394 190.089 302.58 190.267C302.769 190.445 302.864 190.659 302.864 190.909C302.864 191.159 302.769 191.373 302.58 191.551C302.394 191.729 302.17 191.818 301.909 191.818ZM308.57 202.182C307.782 202.182 307.09 201.994 306.496 201.619C305.905 201.244 305.443 200.72 305.109 200.045C304.78 199.371 304.615 198.583 304.615 197.682C304.615 196.773 304.78 195.979 305.109 195.301C305.443 194.623 305.905 194.097 306.496 193.722C307.09 193.347 307.782 193.159 308.57 193.159C309.357 193.159 310.047 193.347 310.638 193.722C311.232 194.097 311.695 194.623 312.024 195.301C312.357 195.979 312.524 196.773 312.524 197.682C312.524 198.583 312.357 199.371 312.024 200.045C311.695 200.72 311.232 201.244 310.638 201.619C310.047 201.994 309.357 202.182 308.57 202.182ZM308.57 200.977C309.168 200.977 309.661 200.824 310.047 200.517C310.433 200.21 310.719 199.807 310.905 199.307C311.09 198.807 311.183 198.265 311.183 197.682C311.183 197.098 311.09 196.555 310.905 196.051C310.719 195.547 310.433 195.14 310.047 194.83C309.661 194.519 309.168 194.364 308.57 194.364C307.971 194.364 307.479 194.519 307.092 194.83C306.706 195.14 306.42 195.547 306.234 196.051C306.049 196.555 305.956 197.098 305.956 197.682C305.956 198.265 306.049 198.807 306.234 199.307C306.42 199.807 306.706 200.21 307.092 200.517C307.479 200.824 307.971 200.977 308.57 200.977ZM314.571 202V193.273H315.866V194.591H315.957C316.116 194.159 316.404 193.809 316.821 193.54C317.238 193.271 317.707 193.136 318.23 193.136C318.329 193.136 318.452 193.138 318.599 193.142C318.747 193.146 318.859 193.152 318.935 193.159V194.523C318.889 194.511 318.785 194.494 318.622 194.472C318.463 194.445 318.295 194.432 318.116 194.432C317.692 194.432 317.313 194.521 316.98 194.699C316.651 194.873 316.389 195.116 316.196 195.426C316.007 195.733 315.912 196.083 315.912 196.477V202H314.571Z" fill="white"/>
<path d="M74.6818 134.636C71.5606 134.636 68.7727 134.098 66.3182 133.023C63.8788 131.947 61.947 130.455 60.5227 128.545C59.1136 126.621 58.3561 124.394 58.25 121.864H65.3864C65.4773 123.242 65.9394 124.439 66.7727 125.455C67.6212 126.455 68.7273 127.227 70.0909 127.773C71.4545 128.318 72.9697 128.591 74.6364 128.591C76.4697 128.591 78.0909 128.273 79.5 127.636C80.9242 127 82.0379 126.114 82.8409 124.977C83.6439 123.826 84.0455 122.5 84.0455 121C84.0455 119.439 83.6439 118.068 82.8409 116.886C82.053 115.689 80.8939 114.75 79.3636 114.068C77.8485 113.386 76.0152 113.045 73.8636 113.045H69.9318V107.318H73.8636C75.5909 107.318 77.1061 107.008 78.4091 106.386C79.7273 105.765 80.7576 104.902 81.5 103.795C82.2424 102.674 82.6136 101.364 82.6136 99.8636C82.6136 98.4242 82.2879 97.1742 81.6364 96.1136C81 95.0379 80.0909 94.197 78.9091 93.5909C77.7424 92.9848 76.3636 92.6818 74.7727 92.6818C73.2576 92.6818 71.8409 92.9621 70.5227 93.5227C69.2197 94.0682 68.1591 94.8561 67.3409 95.8864C66.5227 96.9015 66.0833 98.1212 66.0227 99.5455H59.2273C59.303 97.0303 60.0455 94.8182 61.4545 92.9091C62.8788 91 64.7576 89.5076 67.0909 88.4318C69.4242 87.3561 72.0152 86.8182 74.8636 86.8182C77.8485 86.8182 80.4242 87.4015 82.5909 88.5682C84.7727 89.7197 86.4545 91.2576 87.6364 93.1818C88.8333 95.1061 89.4242 97.2121 89.4091 99.5C89.4242 102.106 88.697 104.318 87.2273 106.136C85.7727 107.955 83.8333 109.174 81.4091 109.795V110.159C84.5 110.629 86.8939 111.856 88.5909 113.841C90.303 115.826 91.1515 118.288 91.1364 121.227C91.1515 123.788 90.4394 126.083 89 128.114C87.5758 130.144 85.6288 131.742 83.1591 132.909C80.6894 134.061 77.8636 134.636 74.6818 134.636ZM99.7273 134V128.909L115.477 112.591C117.159 110.818 118.545 109.265 119.636 107.932C120.742 106.583 121.568 105.303 122.114 104.091C122.659 102.879 122.932 101.591 122.932 100.227C122.932 98.6818 122.568 97.3485 121.841 96.2273C121.114 95.0909 120.121 94.2197 118.864 93.6136C117.606 92.9924 116.189 92.6818 114.614 92.6818C112.947 92.6818 111.492 93.0227 110.25 93.7045C109.008 94.3864 108.053 95.3485 107.386 96.5909C106.72 97.8333 106.386 99.2879 106.386 100.955H99.6818C99.6818 98.1212 100.333 95.6439 101.636 93.5227C102.939 91.4015 104.727 89.7576 107 88.5909C109.273 87.4091 111.856 86.8182 114.75 86.8182C117.674 86.8182 120.25 87.4015 122.477 88.5682C124.72 89.7197 126.47 91.2955 127.727 93.2955C128.985 95.2803 129.614 97.5227 129.614 100.023C129.614 101.75 129.288 103.439 128.636 105.091C128 106.742 126.886 108.583 125.295 110.614C123.705 112.629 121.492 115.076 118.659 117.955L109.409 127.636V127.977H130.364V134H99.7273ZM154.705 134.636C151.447 134.636 148.568 134.076 146.068 132.955C143.583 131.833 141.636 130.288 140.227 128.318C138.818 126.348 138.121 124.106 138.136 121.591C138.121 119.621 138.523 117.811 139.341 116.159C140.174 114.492 141.303 113.106 142.727 112C144.152 110.879 145.742 110.167 147.5 109.864V109.591C145.182 109.03 143.326 107.788 141.932 105.864C140.538 103.939 139.848 101.727 139.864 99.2273C139.848 96.8485 140.477 94.7273 141.75 92.8636C143.038 90.9848 144.803 89.5076 147.045 88.4318C149.288 87.3561 151.841 86.8182 154.705 86.8182C157.538 86.8182 160.068 87.3636 162.295 88.4545C164.538 89.5303 166.303 91.0076 167.591 92.8864C168.879 94.75 169.53 96.8636 169.545 99.2273C169.53 101.727 168.818 103.939 167.409 105.864C166 107.788 164.167 109.03 161.909 109.591V109.864C163.652 110.167 165.22 110.879 166.614 112C168.023 113.106 169.144 114.492 169.977 116.159C170.826 117.811 171.258 119.621 171.273 121.591C171.258 124.106 170.545 126.348 169.136 128.318C167.727 130.288 165.773 131.833 163.273 132.955C160.788 134.076 157.932 134.636 154.705 134.636ZM154.705 128.886C156.629 128.886 158.295 128.568 159.705 127.932C161.114 127.28 162.205 126.379 162.977 125.227C163.75 124.061 164.144 122.697 164.159 121.136C164.144 119.515 163.72 118.083 162.886 116.841C162.068 115.598 160.955 114.621 159.545 113.909C158.136 113.197 156.523 112.841 154.705 112.841C152.871 112.841 151.242 113.197 149.818 113.909C148.394 114.621 147.273 115.598 146.455 116.841C145.636 118.083 145.235 119.515 145.25 121.136C145.235 122.697 145.606 124.061 146.364 125.227C147.136 126.379 148.235 127.28 149.659 127.932C151.083 128.568 152.765 128.886 154.705 128.886ZM154.705 107.227C156.25 107.227 157.621 106.917 158.818 106.295C160.015 105.674 160.955 104.811 161.636 103.705C162.333 102.598 162.689 101.303 162.705 99.8182C162.689 98.3636 162.341 97.0909 161.659 96C160.992 94.9091 160.061 94.0682 158.864 93.4773C157.667 92.8712 156.28 92.5682 154.705 92.5682C153.098 92.5682 151.689 92.8712 150.477 93.4773C149.28 94.0682 148.348 94.9091 147.682 96C147.015 97.0909 146.689 98.3636 146.705 99.8182C146.689 101.303 147.023 102.598 147.705 103.705C148.386 104.811 149.326 105.674 150.523 106.295C151.735 106.917 153.129 107.227 154.705 107.227ZM180.983 134L201.301 93.8182V93.4773H177.801V87.4545H208.574V93.6818L188.324 134H180.983ZM228.415 122.222H225.756C225.653 121.653 225.463 121.153 225.185 120.722C224.906 120.29 224.565 119.923 224.162 119.622C223.759 119.321 223.307 119.094 222.807 118.94C222.313 118.787 221.787 118.71 221.23 118.71C220.224 118.71 219.324 118.963 218.528 119.469C217.739 119.974 217.114 120.716 216.653 121.693C216.199 122.67 215.972 123.864 215.972 125.273C215.972 126.693 216.199 127.892 216.653 128.869C217.114 129.847 217.741 130.585 218.537 131.085C219.332 131.585 220.227 131.835 221.222 131.835C221.773 131.835 222.295 131.761 222.79 131.614C223.29 131.46 223.741 131.236 224.145 130.94C224.548 130.645 224.889 130.284 225.168 129.858C225.452 129.426 225.648 128.932 225.756 128.375L228.415 128.384C228.273 129.241 227.997 130.031 227.588 130.753C227.185 131.469 226.665 132.088 226.028 132.611C225.398 133.128 224.676 133.528 223.864 133.812C223.051 134.097 222.165 134.239 221.205 134.239C219.693 134.239 218.347 133.881 217.165 133.165C215.983 132.443 215.051 131.412 214.369 130.071C213.693 128.73 213.355 127.131 213.355 125.273C213.355 123.409 213.696 121.81 214.378 120.474C215.06 119.134 215.991 118.105 217.173 117.389C218.355 116.668 219.699 116.307 221.205 116.307C222.131 116.307 222.994 116.44 223.795 116.707C224.602 116.969 225.327 117.355 225.969 117.866C226.611 118.372 227.142 118.991 227.562 119.724C227.983 120.452 228.267 121.284 228.415 122.222ZM246.728 125.273C246.728 127.136 246.387 128.739 245.705 130.08C245.023 131.415 244.089 132.443 242.901 133.165C241.719 133.881 240.376 134.239 238.87 134.239C237.359 134.239 236.009 133.881 234.822 133.165C233.64 132.443 232.708 131.412 232.026 130.071C231.344 128.73 231.004 127.131 231.004 125.273C231.004 123.409 231.344 121.81 232.026 120.474C232.708 119.134 233.64 118.105 234.822 117.389C236.009 116.668 237.359 116.307 238.87 116.307C240.376 116.307 241.719 116.668 242.901 117.389C244.089 118.105 245.023 119.134 245.705 120.474C246.387 121.81 246.728 123.409 246.728 125.273ZM244.12 125.273C244.12 123.852 243.89 122.656 243.43 121.685C242.975 120.707 242.35 119.969 241.555 119.469C240.765 118.963 239.87 118.71 238.87 118.71C237.864 118.71 236.967 118.963 236.177 119.469C235.387 119.969 234.762 120.707 234.302 121.685C233.847 122.656 233.62 123.852 233.62 125.273C233.62 126.693 233.847 127.892 234.302 128.869C234.762 129.841 235.387 130.58 236.177 131.085C236.967 131.585 237.864 131.835 238.87 131.835C239.87 131.835 240.765 131.585 241.555 131.085C242.35 130.58 242.975 129.841 243.43 128.869C243.89 127.892 244.12 126.693 244.12 125.273ZM249.773 134V132.091L255.679 125.972C256.31 125.307 256.83 124.724 257.239 124.224C257.653 123.719 257.963 123.239 258.168 122.784C258.372 122.33 258.474 121.847 258.474 121.335C258.474 120.756 258.338 120.256 258.065 119.835C257.793 119.409 257.42 119.082 256.949 118.855C256.477 118.622 255.946 118.506 255.355 118.506C254.73 118.506 254.185 118.634 253.719 118.889C253.253 119.145 252.895 119.506 252.645 119.972C252.395 120.437 252.27 120.983 252.27 121.608H249.756C249.756 120.545 250 119.616 250.489 118.821C250.977 118.026 251.648 117.409 252.5 116.972C253.352 116.528 254.321 116.307 255.406 116.307C256.503 116.307 257.469 116.526 258.304 116.963C259.145 117.395 259.801 117.986 260.273 118.736C260.744 119.48 260.98 120.321 260.98 121.259C260.98 121.906 260.858 122.54 260.614 123.159C260.375 123.778 259.957 124.469 259.361 125.23C258.764 125.986 257.935 126.903 256.872 127.983L253.403 131.614V131.741H261.261V134H249.773ZM270.168 134.264C268.878 134.264 267.767 133.989 266.835 133.438C265.909 132.881 265.193 132.099 264.688 131.094C264.188 130.082 263.938 128.898 263.938 127.54C263.938 126.199 264.188 125.017 264.688 123.994C265.193 122.972 265.898 122.173 266.801 121.599C267.71 121.026 268.773 120.739 269.989 120.739C270.727 120.739 271.443 120.861 272.136 121.105C272.83 121.349 273.452 121.733 274.003 122.256C274.554 122.778 274.989 123.457 275.307 124.293C275.625 125.122 275.784 126.131 275.784 127.318V128.222H265.378V126.312H273.287C273.287 125.642 273.151 125.048 272.878 124.531C272.605 124.009 272.222 123.597 271.727 123.295C271.239 122.994 270.665 122.844 270.006 122.844C269.29 122.844 268.665 123.02 268.131 123.372C267.602 123.719 267.193 124.173 266.903 124.736C266.619 125.293 266.477 125.898 266.477 126.551V128.043C266.477 128.918 266.631 129.662 266.938 130.276C267.25 130.889 267.685 131.358 268.241 131.682C268.798 132 269.449 132.159 270.193 132.159C270.676 132.159 271.116 132.091 271.514 131.955C271.912 131.812 272.256 131.602 272.545 131.324C272.835 131.045 273.057 130.702 273.21 130.293L275.622 130.727C275.429 131.437 275.082 132.06 274.582 132.594C274.088 133.122 273.466 133.534 272.716 133.83C271.972 134.119 271.122 134.264 270.168 134.264Z" fill="white"/>
<g clip-path="url(#clip0_528_68)">
<path d="M56.25 197H59.25V203.75H56.25V197ZM66.75 194H69.75V203.75H66.75V194ZM61.5 189.5H64.5V203.75H61.5V189.5Z" fill="white"/>
</g>
<defs>
<filter id="filter0_b_528_68" x="-47" y="-47" width="465" height="338" filterUnits="userSpaceOnUse" color-interpolation-filters="sRGB">
<feFlood flood-opacity="0" result="BackgroundImageFix"/>
<feGaussianBlur in="BackgroundImageFix" stdDeviation="23.5"/>
<feComposite in2="SourceAlpha" operator="in" result="effect1_backgroundBlur_528_68"/>
<feBlend mode="normal" in="SourceGraphic" in2="effect1_backgroundBlur_528_68" result="shape"/>
</filter>
<linearGradient id="paint0_linear_528_68" x1="185.5" y1="235.166" x2="188.436" y2="-5.2851" gradientUnits="userSpaceOnUse">
<stop stop-color="#155339"/>
<stop offset="1" stop-color="#155339" stop-opacity="0"/>
</linearGradient>
<linearGradient id="paint1_linear_528_68" x1="185.5" y1="0" x2="185.5" y2="235.802" gradientUnits="userSpaceOnUse">
<stop stop-color="#BDFFDF"/>
<stop offset="1" stop-color="#BDFFDF" stop-opacity="0"/>
</linearGradient>
<clipPath id="clip0_528_68">
<rect width="18" height="18" fill="white" transform="translate(54 188)"/>
</clipPath>
</defs>
</svg>
