<svg width="1448" height="342" viewBox="0 0 1448 342" fill="none" xmlns="http://www.w3.org/2000/svg">
<g clip-path="url(#clip0_506_2)">
<path fill-rule="evenodd" clip-rule="evenodd" d="M108.765 84.7504C190.974 22.8625 290.041 15.9347 330.222 69.2784C370.403 122.622 336.226 215.916 254.248 277.804C172.039 339.692 72.9718 346.619 32.7908 293.276C-7.39011 239.932 26.7868 146.638 108.765 84.7504ZM104.147 78.5154C194.9 10.1616 302.973 0.92459 345.694 57.7322C388.415 114.54 349.62 215.685 258.866 284.039C168.113 352.162 60.04 361.629 17.3189 304.822C-25.4023 248.245 13.3931 146.869 104.147 78.5154Z" fill="#00522A"/>
<path fill-rule="evenodd" clip-rule="evenodd" d="M163.958 146.176C166.267 142.019 170.424 133.706 172.733 129.088C175.042 124.469 175.504 123.545 175.735 122.853C175.966 122.391 175.966 122.16 176.659 121.929C177.121 121.698 178.275 121.467 179.199 121.698C180.123 121.929 181.047 122.391 182.663 126.778C184.279 131.397 186.589 139.71 187.743 144.329C188.898 148.947 189.129 149.871 189.129 150.333C189.129 150.794 189.129 150.794 184.51 150.794C179.892 150.794 170.655 151.025 166.036 151.025C161.418 151.025 161.418 151.025 161.649 150.794C161.418 150.794 161.649 150.333 163.958 146.176ZM226.077 174.58C230.695 175.042 239.24 175.734 244.089 176.196C248.938 176.658 250.093 176.658 250.555 176.658C251.248 176.658 251.248 176.658 251.479 177.12C251.71 177.351 252.171 178.044 252.171 178.967C252.171 179.66 251.71 180.584 247.553 182.893C243.396 185.202 235.314 189.359 230.695 191.437C226.308 193.516 225.384 193.977 224.922 193.977C224.46 194.208 224.46 193.977 223.768 190.745C223.075 187.281 221.689 180.584 220.997 177.351C220.304 173.887 220.535 173.887 220.766 173.887C221.227 174.118 221.458 174.349 226.077 174.58ZM70.6644 155.644C90.293 155.644 114.54 160.262 130.705 158.877C131.859 158.877 132.09 157.953 137.864 147.792C143.637 137.632 154.721 118.234 162.573 106.226C170.424 94.2179 175.042 90.2921 180.123 88.9066C185.203 87.521 190.976 89.1375 196.749 96.2962C202.523 103.455 208.065 115.925 211.067 126.316C214.069 136.477 214.3 144.56 216.147 148.485C217.995 152.411 221.689 152.642 232.312 153.335C242.934 154.027 260.485 155.413 272.031 157.953C283.577 160.493 288.889 163.957 291.198 167.652C293.738 171.347 293.045 175.042 291.66 178.736C290.274 182.431 287.734 185.895 277.573 192.13C267.412 198.365 249.631 207.14 240.625 211.99C231.619 216.839 231.157 217.532 230.926 225.152C230.926 232.773 231.157 247.321 231.388 256.558C231.619 265.795 231.619 269.952 230.464 272.261C229.31 274.57 227.001 275.032 224.23 274.339C221.458 273.878 218.225 272.261 214.993 266.488C211.99 260.946 208.988 251.247 205.294 244.55C201.83 238.084 197.211 232.773 193.516 234.62L155.876 252.632C154.49 253.325 154.259 250.092 154.028 248.476C153.797 245.705 153.566 243.165 153.336 239.701C153.105 236.237 152.412 232.08 154.028 229.078C155.645 226.307 159.109 224.691 163.265 223.305C167.191 221.919 171.579 220.996 176.659 218.917C181.739 216.839 187.282 213.606 190.284 211.297C193.055 208.988 193.055 207.833 193.516 201.598C193.978 195.594 194.671 184.74 194.209 179.429C193.747 174.118 192.131 173.887 184.972 173.425C178.044 172.732 165.575 171.578 159.34 171.809C153.105 172.04 152.874 173.656 151.719 179.891C150.564 186.126 148.255 197.21 146.639 205.062C145.022 212.913 143.868 217.994 143.175 220.303C142.482 222.612 142.251 222.381 138.325 218.686C134.4 214.992 127.01 207.602 123.315 203.676C119.62 199.52 119.851 198.596 119.851 194.901C120.082 191.206 120.313 184.51 120.082 181.277C119.851 178.044 119.39 178.275 111.076 178.736C103.456 178.736 87.7528 179.429 78.5158 179.891C69.2788 180.353 72.5118 180.584 72.2808 178.044C71.819 175.503 68.817 155.644 70.6644 155.644Z" fill="#AFCA0B"/>
<path fill-rule="evenodd" clip-rule="evenodd" d="M612.646 79.6698L697.164 226.076H663.218L651.903 206.679H572.927L561.611 226.076H527.896L612.646 79.6698ZM635.276 177.351L612.646 138.094L590.015 177.351H635.276ZM807.546 128.395C807.546 121.929 804.313 118.696 797.847 118.696H729.494V143.174H797.847C804.313 143.174 807.546 139.941 807.546 133.475V128.395ZM797.847 89.5996C823.942 89.5996 836.874 102.531 836.874 128.626V133.475C836.874 159.57 823.942 172.502 797.847 172.502H729.494V226.076H700.166V89.5996H797.847ZM911.693 79.6698L996.212 226.076H962.266L950.951 206.679H871.974L860.659 226.076H826.944L911.693 79.6698ZM934.324 177.351L911.693 138.094L889.063 177.351H934.324ZM1106.59 177.351V89.5996H1135.92V177.351C1135.92 209.912 1119.76 226.076 1087.2 226.076H1048.17C1015.61 226.076 999.445 209.912 999.445 177.351H1028.77C1028.77 190.283 1035.24 196.749 1048.17 196.749H1087.2C1100.13 196.749 1106.59 190.283 1106.59 177.351ZM1155.55 177.351V138.325C1155.55 105.764 1171.72 89.5996 1204.28 89.5996H1243.3C1275.86 89.5996 1292.03 105.764 1292.03 138.325V177.351C1292.03 209.912 1275.86 226.076 1243.3 226.076H1204.28C1171.72 226.076 1155.55 209.681 1155.55 177.351ZM1184.65 138.325V177.351C1184.65 190.283 1191.11 196.749 1204.04 196.749H1243.07C1256 196.749 1262.47 190.283 1262.47 177.351V138.325C1262.47 125.393 1256 118.927 1243.07 118.927H1204.04C1191.11 118.696 1184.65 125.162 1184.65 138.325ZM1408.88 89.5996C1434.97 89.5996 1447.9 102.531 1447.9 128.626H1418.57C1418.57 122.16 1415.34 118.927 1408.88 118.927H1350.45C1343.99 118.927 1340.75 122.16 1340.75 128.626V133.475C1340.75 139.941 1343.99 143.174 1350.45 143.174H1408.88C1434.97 143.174 1447.9 156.106 1447.9 182.201V187.05C1447.9 213.144 1434.97 226.076 1408.88 226.076H1350.45C1324.36 226.076 1311.42 213.144 1311.42 187.05H1340.75C1340.75 193.516 1343.99 196.749 1350.45 196.749H1408.88C1415.34 196.749 1418.57 193.516 1418.57 187.05V182.201C1418.57 175.735 1415.34 172.502 1408.88 172.502H1350.45C1324.36 172.502 1311.42 159.57 1311.42 133.475V128.626C1311.42 102.531 1324.36 89.5996 1350.45 89.5996H1408.88ZM481.48 118.696V226.076H452.153V118.696H398.578V89.5996H535.055V118.927H481.48V118.696Z" fill="white"/>
<path fill-rule="evenodd" clip-rule="evenodd" d="M1222.29 82.2103C1222.98 80.5938 1223.21 78.2846 1223.9 76.4372C1230.6 58.425 1249.53 62.8126 1259.46 48.0334C1267.32 35.7944 1270.09 11.5472 1262 0.000976562L1261.77 1.84838C1261.77 26.5574 1230.6 9.4689 1213.97 28.8666C1201.27 43.4149 1207.04 70.4331 1216.51 85.2123C1217.2 83.3649 1217.2 78.5155 1217.2 75.9753C1219.51 41.5675 1249.3 39.951 1255.08 26.0955C1248.61 31.4068 1250.92 30.9449 1241.45 35.3325C1229.21 41.1056 1219.74 48.4952 1215.13 60.9652C1214.43 62.5817 1213.97 66.2765 1213.28 67.4311C1211.2 62.1198 1211.89 52.421 1212.82 48.0334C1213.74 42.0293 1216.05 36.949 1221.13 32.3305C1231.29 23.0935 1242.14 24.479 1251.84 21.9389C1257.39 20.5533 1257.15 19.6296 1260.85 17.0894C1261.54 22.6316 1258.77 31.6377 1256.92 35.7944C1249.3 52.8828 1234.29 50.3426 1225.52 63.5054C1222.98 67.662 1219.98 75.2825 1222.29 82.2103Z" fill="#92C020"/>
</g>
<defs>
<clipPath id="clip0_506_2">
<rect width="1447.9" height="342" fill="white"/>
</clipPath>
</defs>
</svg>
