<svg width="1140" height="441" viewBox="0 0 1140 441" fill="none" xmlns="http://www.w3.org/2000/svg">
<g filter="url(#filter0_b_508_7)">
<path d="M0 10C0 4.47716 4.47715 0 10 0H1130C1135.52 0 1140 4.47715 1140 10V441H0V10Z" fill="url(#paint0_linear_508_7)" fill-opacity="0.14"/>
<path d="M10 0.5H1130C1135.25 0.5 1139.5 4.7533 1139.5 10V440.5H0.5V10C0.5 4.7533 4.7533 0.5 10 0.5Z" stroke="url(#paint1_linear_508_7)" stroke-opacity="0.13"/>
</g>
<path fill-rule="evenodd" clip-rule="evenodd" d="M61.6024 50.03C71.8793 42.2935 84.2635 41.4275 89.2865 48.0959C94.3095 54.7643 90.0371 66.4268 79.789 74.1633C69.5122 81.8999 57.128 82.7659 52.105 76.0975C47.082 69.4291 51.3544 57.7665 61.6024 50.03ZM61.0251 49.2506C72.3701 40.7058 85.8801 39.5511 91.2206 46.6525C96.5611 53.7539 91.7114 66.398 80.3664 74.9428C69.0214 83.4587 55.5114 84.6423 50.1709 77.5409C44.8304 70.4683 49.6801 57.7954 61.0251 49.2506Z" fill="#00522A"/>
<path fill-rule="evenodd" clip-rule="evenodd" d="M68.502 57.7089C68.7907 57.1893 69.3103 56.15 69.599 55.5727C69.8877 54.9953 69.9454 54.8798 69.9743 54.7932C70.0032 54.7355 70.0032 54.7066 70.0898 54.6778C70.1475 54.6489 70.2918 54.62 70.4073 54.6489C70.5228 54.6778 70.6382 54.7355 70.8403 55.284C71.0424 55.8613 71.3311 56.9006 71.4754 57.4779C71.6197 58.0553 71.6486 58.1708 71.6486 58.2285C71.6486 58.2862 71.6486 58.2862 71.0713 58.2862C70.4939 58.2862 69.3392 58.3151 68.7618 58.3151C68.1845 58.3151 68.1845 58.3151 68.2134 58.2862C68.1845 58.2862 68.2134 58.2285 68.502 57.7089ZM76.2674 61.2596C76.8448 61.3173 77.9129 61.4039 78.5191 61.4617C79.1253 61.5194 79.2697 61.5194 79.3274 61.5194C79.414 61.5194 79.414 61.5194 79.4429 61.5771C79.4717 61.606 79.5295 61.6926 79.5295 61.8081C79.5295 61.8947 79.4717 62.0101 78.9521 62.2988C78.4325 62.5875 77.4221 63.1071 76.8448 63.3669C76.2963 63.6267 76.1808 63.6845 76.1231 63.6845C76.0654 63.7133 76.0654 63.6845 75.9788 63.2803C75.8922 62.8473 75.7189 62.0101 75.6323 61.606C75.5457 61.173 75.5746 61.173 75.6035 61.173C75.6612 61.2019 75.6901 61.2307 76.2674 61.2596ZM56.8395 58.8924C59.2933 58.8924 62.3244 59.4698 64.3451 59.2966C64.4894 59.2966 64.5183 59.1811 65.24 57.9109C65.9617 56.6408 67.3473 54.2159 68.3288 52.7148C69.3103 51.2137 69.8877 50.7229 70.5228 50.5497C71.1579 50.3765 71.8796 50.5786 72.6012 51.4735C73.3229 52.3684 74.0158 53.9272 74.391 55.2263C74.7663 56.4964 74.7952 57.5068 75.0261 57.9975C75.2571 58.4883 75.7189 58.5172 77.0469 58.6038C78.3748 58.6904 80.5687 58.8636 82.0121 59.1811C83.4555 59.4987 84.1194 59.9317 84.4081 60.3936C84.7256 60.8554 84.639 61.3173 84.4658 61.7792C84.2926 62.2411 83.9751 62.6741 82.7049 63.4535C81.4347 64.233 79.2119 65.3299 78.0861 65.9361C76.9603 66.5424 76.9025 66.629 76.8737 67.5816C76.8737 68.5342 76.9025 70.3529 76.9314 71.5076C76.9603 72.6623 76.9603 73.1819 76.8159 73.4706C76.6716 73.7593 76.3829 73.817 76.0365 73.7304C75.6901 73.6727 75.2859 73.4706 74.8818 72.7489C74.5065 72.0561 74.1312 70.8436 73.6693 70.0065C73.2363 69.1982 72.659 68.5342 72.1971 68.7652L67.4917 71.0168C67.3185 71.1034 67.2896 70.6993 67.2607 70.4972C67.2319 70.1508 67.203 69.8333 67.1741 69.4003C67.1453 68.9672 67.0587 68.4476 67.2607 68.0723C67.4628 67.7259 67.8958 67.5239 68.4154 67.3507C68.9062 67.1774 69.4547 67.062 70.0898 66.8022C70.7248 66.5424 71.4177 66.1382 71.7929 65.8495C72.1394 65.5609 72.1394 65.4165 72.1971 64.6371C72.2548 63.8865 72.3414 62.5298 72.2837 61.8658C72.226 61.2019 72.0239 61.173 71.129 61.1152C70.263 61.0286 68.7041 60.8843 67.9247 60.9132C67.1453 60.942 67.1164 61.1441 66.9721 61.9235C66.8277 62.703 66.539 64.0886 66.337 65.0701C66.1349 66.0516 65.9906 66.6867 65.904 66.9754C65.8174 67.2641 65.7885 67.2352 65.2977 66.7733C64.807 66.3114 63.8832 65.3877 63.4213 64.8969C62.9595 64.3773 62.9883 64.2618 62.9883 63.7999C63.0172 63.3381 63.0461 62.5009 63.0172 62.0967C62.9883 61.6926 62.9306 61.7215 61.8914 61.7792C60.9387 61.7792 58.9757 61.8658 57.821 61.9235C56.6663 61.9813 57.0705 62.0101 57.0416 61.6926C56.9839 61.3751 56.6086 58.8924 56.8395 58.8924Z" fill="#AFCA0B"/>
<g filter="url(#filter1_b_508_7)">
<rect x="333" y="43" width="240" height="113" rx="10" fill="#155339" fill-opacity="0.1"/>
<rect x="333.5" y="43.5" width="239" height="112" rx="9.5" stroke="url(#paint2_linear_508_7)" stroke-opacity="0.13"/>
</g>
<g filter="url(#filter2_b_508_7)">
<rect x="333" y="170" width="760" height="248" rx="10" fill="url(#paint3_linear_508_7)" fill-opacity="0.1"/>
<rect x="333.5" y="170.5" width="759" height="247" rx="9.5" stroke="url(#paint4_linear_508_7)" stroke-opacity="0.13"/>
</g>
<g filter="url(#filter3_b_508_7)">
<rect x="593" y="43" width="240" height="113" rx="10" fill="#155339" fill-opacity="0.1"/>
<rect x="593.5" y="43.5" width="239" height="112" rx="9.5" stroke="url(#paint5_linear_508_7)" stroke-opacity="0.13"/>
</g>
<g filter="url(#filter4_b_508_7)">
<rect x="853" y="43" width="240" height="113" rx="10" fill="#155339" fill-opacity="0.1"/>
<rect x="853.5" y="43.5" width="239" height="112" rx="9.5" stroke="url(#paint6_linear_508_7)" stroke-opacity="0.13"/>
</g>
<line x1="289.5" y1="1" x2="289.5" y2="401" stroke="url(#paint7_linear_508_7)" stroke-opacity="0.16"/>
<g clip-path="url(#clip0_508_7)">
<path d="M378.628 82.6519C374.197 82.6519 370.604 79.0598 370.604 74.6283C370.604 70.1969 374.197 66.6047 378.628 66.6047C383.06 66.6047 386.652 70.1969 386.652 74.6283C386.652 79.0598 383.06 82.6519 378.628 82.6519ZM378.628 81.0472C380.33 81.0472 381.963 80.3709 383.167 79.1672C384.371 77.9634 385.047 76.3307 385.047 74.6283C385.047 72.9259 384.371 71.2933 383.167 70.0895C381.963 68.8857 380.33 68.2095 378.628 68.2095C376.926 68.2095 375.293 68.8857 374.089 70.0895C372.885 71.2933 372.209 72.9259 372.209 74.6283C372.209 76.3307 372.885 77.9634 374.089 79.1672C375.293 80.3709 376.926 81.0472 378.628 81.0472ZM378.628 70.6567L382.6 74.6283L378.628 78.6L374.656 74.6283L378.628 70.6567ZM378.628 72.9265L376.926 74.6283L378.628 76.3301L380.33 74.6283L378.628 72.9265Z" fill="white" fill-opacity="0.4"/>
</g>
<path d="M404.824 72.9535C404.778 72.5489 404.59 72.2354 404.26 72.0132C403.929 71.7881 403.513 71.6756 403.012 71.6756C402.653 71.6756 402.342 71.7325 402.08 71.8465C401.818 71.9576 401.614 72.1115 401.469 72.3081C401.326 72.5019 401.255 72.7227 401.255 72.9706C401.255 73.1786 401.304 73.3581 401.401 73.5091C401.5 73.6601 401.63 73.7869 401.79 73.8895C401.952 73.9892 402.126 74.0732 402.311 74.1416C402.496 74.2072 402.674 74.2613 402.845 74.304L403.7 74.5263C403.979 74.5947 404.266 74.6873 404.559 74.8041C404.852 74.9209 405.125 75.0748 405.375 75.2657C405.626 75.4566 405.828 75.6931 405.982 75.9751C406.139 76.2572 406.217 76.5949 406.217 76.9881C406.217 77.4838 406.089 77.924 405.833 78.3087C405.579 78.6934 405.21 78.9968 404.726 79.2191C404.244 79.4413 403.661 79.5524 402.978 79.5524C402.322 79.5524 401.755 79.4484 401.277 79.2404C400.798 79.0324 400.423 78.7375 400.153 78.3557C399.882 77.9711 399.732 77.5152 399.704 76.9881H401.029C401.054 77.3043 401.157 77.5679 401.336 77.7787C401.519 77.9867 401.751 78.142 402.033 78.2446C402.318 78.3443 402.63 78.3942 402.969 78.3942C403.342 78.3942 403.674 78.3358 403.965 78.219C404.258 78.0993 404.489 77.934 404.657 77.7232C404.825 77.5095 404.909 77.2602 404.909 76.9752C404.909 76.716 404.835 76.5037 404.687 76.3384C404.542 76.1732 404.344 76.0364 404.093 75.9281C403.845 75.8198 403.565 75.7244 403.251 75.6418L402.217 75.3597C401.516 75.1688 400.96 74.8881 400.55 74.5177C400.143 74.1473 399.939 73.6572 399.939 73.0475C399.939 72.5432 400.076 72.103 400.349 71.7268C400.623 71.3507 400.993 71.0587 401.46 70.8507C401.928 70.6398 402.455 70.5344 403.042 70.5344C403.634 70.5344 404.157 70.6384 404.61 70.8464C405.066 71.0544 405.425 71.3408 405.687 71.7055C405.949 72.0673 406.086 72.4833 406.098 72.9535H404.824ZM409.603 79.5524C409.187 79.5524 408.811 79.4755 408.475 79.3216C408.139 79.1649 407.872 78.9384 407.676 78.6421C407.482 78.3457 407.385 77.9825 407.385 77.5522C407.385 77.1818 407.456 76.8769 407.599 76.6376C407.741 76.3983 407.934 76.2088 408.176 76.0692C408.418 75.9295 408.689 75.8241 408.988 75.7529C409.287 75.6817 409.592 75.6275 409.903 75.5905C410.296 75.5449 410.615 75.5079 410.86 75.4794C411.105 75.448 411.283 75.3982 411.394 75.3298C411.505 75.2614 411.561 75.1503 411.561 74.9964V74.9665C411.561 74.5932 411.455 74.304 411.245 74.0989C411.037 73.8937 410.726 73.7912 410.313 73.7912C409.883 73.7912 409.543 73.8866 409.296 74.0775C409.051 74.2656 408.881 74.475 408.787 74.7058L407.586 74.4322C407.728 74.0333 407.936 73.7114 408.21 73.4663C408.486 73.2184 408.804 73.0389 409.163 72.9278C409.522 72.8138 409.9 72.7569 410.296 72.7569C410.558 72.7569 410.836 72.7882 411.129 72.8509C411.425 72.9107 411.702 73.0218 411.958 73.1843C412.218 73.3467 412.43 73.5789 412.595 73.8809C412.76 74.1801 412.843 74.569 412.843 75.0477V79.4071H411.595V78.5096H411.544C411.461 78.6748 411.337 78.8372 411.172 78.9968C411.007 79.1564 410.794 79.2889 410.535 79.3943C410.276 79.4997 409.965 79.5524 409.603 79.5524ZM409.881 78.5267C410.234 78.5267 410.536 78.4569 410.787 78.3173C411.041 78.1776 411.233 77.9953 411.364 77.7702C411.498 77.5422 411.565 77.2986 411.565 77.0393V76.1931C411.519 76.2387 411.431 76.2814 411.3 76.3213C411.172 76.3584 411.025 76.3911 410.86 76.4196C410.695 76.4453 410.534 76.4695 410.377 76.4923C410.22 76.5122 410.089 76.5293 409.984 76.5436C409.736 76.5749 409.509 76.6276 409.304 76.7017C409.102 76.7758 408.939 76.8826 408.817 77.0222C408.697 77.159 408.637 77.3414 408.637 77.5693C408.637 77.8856 408.754 78.1249 408.988 78.2873C409.222 78.4469 409.519 78.5267 409.881 78.5267ZM415.823 70.6541V79.4071H414.545V70.6541H415.823ZM420 79.5353C419.47 79.5353 418.997 79.4 418.581 79.1293C418.168 78.8558 417.843 78.4668 417.606 77.9625C417.373 77.4553 417.256 76.847 417.256 76.1375C417.256 75.4281 417.374 74.8212 417.611 74.3168C417.85 73.8125 418.178 73.4264 418.594 73.1586C419.01 72.8908 419.481 72.7569 420.008 72.7569C420.416 72.7569 420.743 72.8252 420.991 72.962C421.242 73.0959 421.436 73.2526 421.572 73.4321C421.712 73.6116 421.82 73.7698 421.897 73.9066H421.974V70.6541H423.252V79.4071H422.004V78.3856H421.897C421.82 78.5252 421.709 78.6848 421.564 78.8643C421.421 79.0438 421.225 79.2005 420.974 79.3344C420.723 79.4684 420.399 79.5353 420 79.5353ZM420.282 78.4455C420.649 78.4455 420.96 78.3486 421.213 78.1548C421.47 77.9582 421.664 77.6861 421.795 77.3385C421.929 76.9909 421.996 76.5863 421.996 76.1247C421.996 75.6688 421.93 75.2699 421.799 74.928C421.668 74.5861 421.476 74.3197 421.222 74.1288C420.968 73.9379 420.655 73.8424 420.282 73.8424C419.897 73.8424 419.577 73.9422 419.32 74.1416C419.064 74.3411 418.87 74.6132 418.739 74.9579C418.611 75.3027 418.547 75.6916 418.547 76.1247C418.547 76.5635 418.612 76.9581 418.743 77.3086C418.874 77.6591 419.068 77.9369 419.324 78.142C419.584 78.3443 419.903 78.4455 420.282 78.4455ZM427.841 79.5396C427.226 79.5396 426.689 79.3986 426.23 79.1165C425.771 78.8344 425.415 78.4398 425.162 77.9326C424.908 77.4254 424.781 76.8328 424.781 76.1546C424.781 75.4737 424.908 74.8782 425.162 74.3681C425.415 73.8581 425.771 73.4621 426.23 73.18C426.689 72.8979 427.226 72.7569 427.841 72.7569C428.457 72.7569 428.994 72.8979 429.453 73.18C429.911 73.4621 430.267 73.8581 430.521 74.3681C430.775 74.8782 430.901 75.4737 430.901 76.1546C430.901 76.8328 430.775 77.4254 430.521 77.9326C430.267 78.4398 429.911 78.8344 429.453 79.1165C428.994 79.3986 428.457 79.5396 427.841 79.5396ZM427.846 78.4668C428.244 78.4668 428.575 78.3614 428.837 78.1506C429.099 77.9397 429.293 77.6591 429.418 77.3086C429.547 76.9581 429.611 76.5721 429.611 76.1504C429.611 75.7315 429.547 75.3469 429.418 74.9964C429.293 74.6431 429.099 74.3596 428.837 74.1459C428.575 73.9322 428.244 73.8253 427.846 73.8253C427.444 73.8253 427.11 73.9322 426.845 74.1459C426.583 74.3596 426.388 74.6431 426.26 74.9964C426.135 75.3469 426.072 75.7315 426.072 76.1504C426.072 76.5721 426.135 76.9581 426.26 77.3086C426.388 77.6591 426.583 77.9397 426.845 78.1506C427.11 78.3614 427.444 78.4668 427.846 78.4668ZM437.423 79.5524C437.007 79.5524 436.631 79.4755 436.295 79.3216C435.959 79.1649 435.692 78.9384 435.496 78.6421C435.302 78.3457 435.205 77.9825 435.205 77.5522C435.205 77.1818 435.276 76.8769 435.419 76.6376C435.561 76.3983 435.754 76.2088 435.996 76.0692C436.238 75.9295 436.509 75.8241 436.808 75.7529C437.107 75.6817 437.412 75.6275 437.723 75.5905C438.116 75.5449 438.435 75.5079 438.68 75.4794C438.925 75.448 439.103 75.3982 439.214 75.3298C439.325 75.2614 439.381 75.1503 439.381 74.9964V74.9665C439.381 74.5932 439.275 74.304 439.065 74.0989C438.857 73.8937 438.546 73.7912 438.133 73.7912C437.703 73.7912 437.364 73.8866 437.116 74.0775C436.871 74.2656 436.701 74.475 436.607 74.7058L435.406 74.4322C435.549 74.0333 435.757 73.7114 436.03 73.4663C436.307 73.2184 436.624 73.0389 436.983 72.9278C437.342 72.8138 437.72 72.7569 438.116 72.7569C438.378 72.7569 438.656 72.7882 438.949 72.8509C439.246 72.9107 439.522 73.0218 439.778 73.1843C440.038 73.3467 440.25 73.5789 440.415 73.8809C440.58 74.1801 440.663 74.569 440.663 75.0477V79.4071H439.415V78.5096H439.364C439.281 78.6748 439.157 78.8372 438.992 78.9968C438.827 79.1564 438.614 79.2889 438.355 79.3943C438.096 79.4997 437.785 79.5524 437.423 79.5524ZM437.701 78.5267C438.055 78.5267 438.357 78.4569 438.607 78.3173C438.861 78.1776 439.053 77.9953 439.184 77.7702C439.318 77.5422 439.385 77.2986 439.385 77.0393V76.1931C439.34 76.2387 439.251 76.2814 439.12 76.3213C438.992 76.3584 438.845 76.3911 438.68 76.4196C438.515 76.4453 438.354 76.4695 438.197 76.4923C438.04 76.5122 437.909 76.5293 437.804 76.5436C437.556 76.5749 437.329 76.6276 437.124 76.7017C436.922 76.7758 436.76 76.8826 436.637 77.0222C436.517 77.159 436.458 77.3414 436.458 77.5693C436.458 77.8856 436.574 78.1249 436.808 78.2873C437.042 78.4469 437.339 78.5267 437.701 78.5267ZM445.43 72.8423V73.8681H441.844V72.8423H445.43ZM442.805 71.2695H444.083V77.4796C444.083 77.7274 444.12 77.9141 444.194 78.0394C444.268 78.162 444.364 78.246 444.481 78.2916C444.6 78.3343 444.73 78.3557 444.87 78.3557C444.972 78.3557 445.062 78.3486 445.139 78.3343C445.216 78.3201 445.276 78.3087 445.318 78.3002L445.549 79.3558C445.475 79.3843 445.37 79.4128 445.233 79.4413C445.096 79.4726 444.925 79.4897 444.72 79.4926C444.384 79.4983 444.07 79.4384 443.78 79.3131C443.489 79.1877 443.254 78.994 443.075 78.7318C442.895 78.4697 442.805 78.1406 442.805 77.7445V71.2695ZM451.002 76.6846V72.8423H452.284V79.4071H451.027V78.2702H450.959C450.808 78.6207 450.566 78.9128 450.232 79.1464C449.902 79.3772 449.49 79.4926 448.997 79.4926C448.576 79.4926 448.202 79.4 447.877 79.2148C447.556 79.0267 447.302 78.7489 447.117 78.3814C446.934 78.0138 446.843 77.5593 446.843 77.018V72.8423H448.121V76.8641C448.121 77.3115 448.245 77.6676 448.493 77.9326C448.741 78.1976 449.063 78.3301 449.459 78.3301C449.698 78.3301 449.936 78.2702 450.173 78.1506C450.412 78.0309 450.61 77.85 450.767 77.6078C450.926 77.3656 451.005 77.0579 451.002 76.6846ZM455.911 79.5524C455.495 79.5524 455.119 79.4755 454.783 79.3216C454.447 79.1649 454.18 78.9384 453.984 78.6421C453.79 78.3457 453.693 77.9825 453.693 77.5522C453.693 77.1818 453.764 76.8769 453.907 76.6376C454.049 76.3983 454.242 76.2088 454.484 76.0692C454.726 75.9295 454.997 75.8241 455.296 75.7529C455.595 75.6817 455.9 75.6275 456.211 75.5905C456.604 75.5449 456.923 75.5079 457.168 75.4794C457.413 75.448 457.591 75.3982 457.702 75.3298C457.813 75.2614 457.869 75.1503 457.869 74.9964V74.9665C457.869 74.5932 457.763 74.304 457.553 74.0989C457.345 73.8937 457.034 73.7912 456.621 73.7912C456.191 73.7912 455.852 73.8866 455.604 74.0775C455.359 74.2656 455.189 74.475 455.095 74.7058L453.894 74.4322C454.037 74.0333 454.245 73.7114 454.518 73.4663C454.794 73.2184 455.112 73.0389 455.471 72.9278C455.83 72.8138 456.208 72.7569 456.604 72.7569C456.866 72.7569 457.144 72.7882 457.437 72.8509C457.734 72.9107 458.01 73.0218 458.266 73.1843C458.526 73.3467 458.738 73.5789 458.903 73.8809C459.068 74.1801 459.151 74.569 459.151 75.0477V79.4071H457.903V78.5096H457.852C457.769 78.6748 457.645 78.8372 457.48 78.9968C457.315 79.1564 457.102 79.2889 456.843 79.3943C456.584 79.4997 456.273 79.5524 455.911 79.5524ZM456.189 78.5267C456.543 78.5267 456.845 78.4569 457.095 78.3173C457.349 78.1776 457.541 77.9953 457.672 77.7702C457.806 77.5422 457.873 77.2986 457.873 77.0393V76.1931C457.828 76.2387 457.739 76.2814 457.608 76.3213C457.48 76.3584 457.333 76.3911 457.168 76.4196C457.003 76.4453 456.842 76.4695 456.685 76.4923C456.528 76.5122 456.397 76.5293 456.292 76.5436C456.044 76.5749 455.817 76.6276 455.612 76.7017C455.41 76.7758 455.248 76.8826 455.125 77.0222C455.005 77.159 454.945 77.3414 454.945 77.5693C454.945 77.8856 455.062 78.1249 455.296 78.2873C455.53 78.4469 455.827 78.5267 456.189 78.5267ZM462.131 70.6541V79.4071H460.853V70.6541H462.131Z" fill="white" fill-opacity="0.4"/>
<g clip-path="url(#clip1_508_7)">
<path d="M628.628 82.6519C624.197 82.6519 620.604 79.0598 620.604 74.6283C620.604 70.1969 624.197 66.6047 628.628 66.6047C633.06 66.6047 636.652 70.1969 636.652 74.6283C636.652 79.0598 633.06 82.6519 628.628 82.6519ZM628.628 81.0472C630.33 81.0472 631.963 80.3709 633.167 79.1672C634.371 77.9634 635.047 76.3307 635.047 74.6283C635.047 72.9259 634.371 71.2933 633.167 70.0895C631.963 68.8857 630.33 68.2095 628.628 68.2095C626.926 68.2095 625.293 68.8857 624.089 70.0895C622.885 71.2933 622.209 72.9259 622.209 74.6283C622.209 76.3307 622.885 77.9634 624.089 79.1672C625.293 80.3709 626.926 81.0472 628.628 81.0472ZM628.628 70.6567L632.6 74.6283L628.628 78.6L624.656 74.6283L628.628 70.6567ZM628.628 72.9265L626.926 74.6283L628.628 76.3301L630.33 74.6283L628.628 72.9265Z" fill="white" fill-opacity="0.4"/>
</g>
<path d="M650.05 79.4071V70.6541H653.17C653.851 70.6541 654.415 70.778 654.862 71.0259C655.31 71.2738 655.645 71.6129 655.867 72.0431C656.089 72.4705 656.2 72.952 656.2 73.4877C656.2 74.0262 656.088 74.5106 655.863 74.9408C655.64 75.3682 655.304 75.7073 654.854 75.958C654.407 76.2059 653.844 76.3299 653.166 76.3299H651.02V75.2101H653.046C653.476 75.2101 653.825 75.136 654.093 74.9879C654.361 74.8368 654.558 74.6317 654.683 74.3724C654.808 74.1131 654.871 73.8182 654.871 73.4877C654.871 73.1572 654.808 72.8637 654.683 72.6073C654.558 72.3508 654.36 72.15 654.089 72.0047C653.821 71.8593 653.468 71.7867 653.029 71.7867H651.371V79.4071H650.05ZM657.646 79.4071V72.8423H658.881V73.8852H658.949C659.069 73.5319 659.28 73.2541 659.582 73.0518C659.887 72.8466 660.232 72.744 660.616 72.744C660.696 72.744 660.79 72.7469 660.898 72.7526C661.009 72.7583 661.096 72.7654 661.159 72.774V73.9963C661.108 73.9821 661.017 73.9664 660.886 73.9493C660.754 73.9293 660.623 73.9194 660.492 73.9194C660.19 73.9194 659.921 73.9835 659.685 74.1117C659.451 74.2371 659.266 74.4123 659.129 74.6374C658.992 74.8596 658.924 75.1132 658.924 75.3982V79.4071H657.646ZM664.795 79.5396C664.18 79.5396 663.643 79.3986 663.184 79.1165C662.725 78.8344 662.369 78.4398 662.115 77.9326C661.862 77.4254 661.735 76.8328 661.735 76.1546C661.735 75.4737 661.862 74.8782 662.115 74.3681C662.369 73.8581 662.725 73.4621 663.184 73.18C663.643 72.8979 664.18 72.7569 664.795 72.7569C665.411 72.7569 665.948 72.8979 666.406 73.18C666.865 73.4621 667.221 73.8581 667.475 74.3681C667.728 74.8782 667.855 75.4737 667.855 76.1546C667.855 76.8328 667.728 77.4254 667.475 77.9326C667.221 78.4398 666.865 78.8344 666.406 79.1165C665.948 79.3986 665.411 79.5396 664.795 79.5396ZM664.799 78.4668C665.198 78.4668 665.529 78.3614 665.791 78.1506C666.053 77.9397 666.247 77.6591 666.372 77.3086C666.5 76.9581 666.564 76.5721 666.564 76.1504C666.564 75.7315 666.5 75.3469 666.372 74.9964C666.247 74.6431 666.053 74.3596 665.791 74.1459C665.529 73.9322 665.198 73.8253 664.799 73.8253C664.398 73.8253 664.064 73.9322 663.799 74.1459C663.537 74.3596 663.342 74.6431 663.214 74.9964C663.088 75.3469 663.026 75.7315 663.026 76.1504C663.026 76.5721 663.088 76.9581 663.214 77.3086C663.342 77.6591 663.537 77.9397 663.799 78.1506C664.064 78.3614 664.398 78.4668 664.799 78.4668ZM669.282 72.8423H670.56V79.8345C670.56 80.2733 670.48 80.6437 670.32 80.9457C670.164 81.2477 669.93 81.4771 669.619 81.6338C669.312 81.7905 668.931 81.8689 668.478 81.8689C668.433 81.8689 668.39 81.8689 668.35 81.8689C668.307 81.8689 668.263 81.8675 668.217 81.8646V80.7662C668.257 80.7662 668.293 80.7662 668.324 80.7662C668.353 80.7662 668.386 80.7662 668.423 80.7662C668.725 80.7662 668.943 80.685 669.077 80.5226C669.213 80.363 669.282 80.1308 669.282 79.826V72.8423ZM669.914 71.8294C669.692 71.8294 669.501 71.7553 669.341 71.6072C669.185 71.4562 669.106 71.2767 669.106 71.0687C669.106 70.8578 669.185 70.6783 669.341 70.5301C669.501 70.3791 669.692 70.3036 669.914 70.3036C670.136 70.3036 670.326 70.3791 670.483 70.5301C670.642 70.6783 670.722 70.8578 670.722 71.0687C670.722 71.2767 670.642 71.4562 670.483 71.6072C670.326 71.7553 670.136 71.8294 669.914 71.8294ZM675.108 79.5396C674.461 79.5396 673.904 79.4014 673.437 79.125C672.973 78.8458 672.614 78.454 672.36 77.9497C672.109 77.4425 671.984 76.8484 671.984 76.1675C671.984 75.495 672.109 74.9024 672.36 74.3895C672.614 73.8766 672.967 73.4763 673.42 73.1885C673.876 72.9008 674.409 72.7569 675.018 72.7569C675.389 72.7569 675.748 72.8181 676.095 72.9406C676.443 73.0632 676.755 73.2555 677.031 73.5176C677.308 73.7798 677.526 74.1202 677.685 74.5391C677.845 74.9551 677.925 75.4608 677.925 76.0563V76.5094H672.706V75.552H676.672C676.672 75.2158 676.604 74.918 676.467 74.6588C676.33 74.3966 676.138 74.1901 675.89 74.039C675.645 73.888 675.357 73.8125 675.027 73.8125C674.668 73.8125 674.354 73.9009 674.087 74.0775C673.822 74.2513 673.616 74.4793 673.471 74.7613C673.329 75.0406 673.257 75.344 673.257 75.6717V76.4196C673.257 76.8584 673.334 77.2317 673.488 77.5394C673.645 77.8471 673.863 78.0822 674.142 78.2446C674.421 78.4042 674.748 78.4839 675.121 78.4839C675.363 78.4839 675.584 78.4497 675.783 78.3814C675.983 78.3101 676.155 78.2047 676.301 78.0651C676.446 77.9255 676.557 77.7531 676.634 77.5479L677.843 77.7659C677.747 78.1221 677.573 78.4341 677.322 78.7019C677.074 78.9669 676.762 79.1735 676.386 79.3216C676.013 79.4669 675.587 79.5396 675.108 79.5396ZM682.407 72.8423V73.8681H678.821V72.8423H682.407ZM679.783 71.2695H681.061V77.4796C681.061 77.7274 681.098 77.9141 681.172 78.0394C681.246 78.162 681.341 78.246 681.458 78.2916C681.578 78.3343 681.707 78.3557 681.847 78.3557C681.95 78.3557 682.039 78.3486 682.116 78.3343C682.193 78.3201 682.253 78.3087 682.296 78.3002L682.527 79.3558C682.452 79.3843 682.347 79.4128 682.21 79.4413C682.074 79.4726 681.903 79.4897 681.697 79.4926C681.361 79.4983 681.048 79.4384 680.757 79.3131C680.467 79.1877 680.231 78.994 680.052 78.7318C679.872 78.4697 679.783 78.1406 679.783 77.7445V71.2695ZM686.515 79.5396C685.9 79.5396 685.363 79.3986 684.904 79.1165C684.445 78.8344 684.089 78.4398 683.835 77.9326C683.582 77.4254 683.455 76.8328 683.455 76.1546C683.455 75.4737 683.582 74.8782 683.835 74.3681C684.089 73.8581 684.445 73.4621 684.904 73.18C685.363 72.8979 685.9 72.7569 686.515 72.7569C687.131 72.7569 687.668 72.8979 688.126 73.18C688.585 73.4621 688.941 73.8581 689.195 74.3681C689.449 74.8782 689.575 75.4737 689.575 76.1546C689.575 76.8328 689.449 77.4254 689.195 77.9326C688.941 78.4398 688.585 78.8344 688.126 79.1165C687.668 79.3986 687.131 79.5396 686.515 79.5396ZM686.519 78.4668C686.918 78.4668 687.249 78.3614 687.511 78.1506C687.773 77.9397 687.967 77.6591 688.092 77.3086C688.221 76.9581 688.285 76.5721 688.285 76.1504C688.285 75.7315 688.221 75.3469 688.092 74.9964C687.967 74.6431 687.773 74.3596 687.511 74.1459C687.249 73.9322 686.918 73.8253 686.519 73.8253C686.118 73.8253 685.784 73.9322 685.519 74.1459C685.257 74.3596 685.062 74.6431 684.934 74.9964C684.808 75.3469 684.746 75.7315 684.746 76.1504C684.746 76.5721 684.808 76.9581 684.934 77.3086C685.062 77.6591 685.257 77.9397 685.519 78.1506C685.784 78.3614 686.118 78.4668 686.519 78.4668ZM695.921 74.4451L694.763 74.6502C694.714 74.5021 694.637 74.361 694.532 74.2271C694.429 74.0932 694.29 73.9835 694.113 73.898C693.937 73.8125 693.716 73.7698 693.451 73.7698C693.089 73.7698 692.787 73.851 692.545 74.0134C692.302 74.173 692.181 74.3795 692.181 74.6331C692.181 74.8525 692.263 75.0292 692.425 75.1631C692.587 75.297 692.85 75.4067 693.211 75.4922L694.254 75.7315C694.858 75.8711 695.308 76.0863 695.605 76.3769C695.901 76.6675 696.049 77.045 696.049 77.5095C696.049 77.9027 695.935 78.2531 695.707 78.5609C695.482 78.8657 695.167 79.1051 694.763 79.2789C694.361 79.4527 693.895 79.5396 693.365 79.5396C692.63 79.5396 692.03 79.3829 691.566 79.0695C691.102 78.7532 690.817 78.3044 690.711 77.7232L691.946 77.5351C692.023 77.8571 692.181 78.1007 692.421 78.266C692.66 78.4284 692.972 78.5096 693.357 78.5096C693.776 78.5096 694.11 78.4227 694.361 78.2489C694.612 78.0722 694.737 77.8571 694.737 77.6035C694.737 77.3984 694.66 77.226 694.506 77.0864C694.355 76.9467 694.123 76.8413 693.81 76.7701L692.699 76.5265C692.086 76.3869 691.633 76.1646 691.339 75.8597C691.049 75.5549 690.903 75.1688 690.903 74.7015C690.903 74.314 691.012 73.9749 691.228 73.6843C691.445 73.3937 691.744 73.1672 692.126 73.0048C692.508 72.8395 692.945 72.7569 693.438 72.7569C694.147 72.7569 694.706 72.9107 695.113 73.2184C695.521 73.5233 695.79 73.9322 695.921 74.4451Z" fill="white" fill-opacity="0.4"/>
<g clip-path="url(#clip2_508_7)">
<path d="M888.628 82.6519C884.197 82.6519 880.604 79.0598 880.604 74.6283C880.604 70.1969 884.197 66.6047 888.628 66.6047C893.06 66.6047 896.652 70.1969 896.652 74.6283C896.652 79.0598 893.06 82.6519 888.628 82.6519ZM888.628 81.0472C890.33 81.0472 891.963 80.3709 893.167 79.1672C894.371 77.9634 895.047 76.3307 895.047 74.6283C895.047 72.9259 894.371 71.2933 893.167 70.0895C891.963 68.8857 890.33 68.2095 888.628 68.2095C886.926 68.2095 885.293 68.8857 884.089 70.0895C882.885 71.2933 882.209 72.9259 882.209 74.6283C882.209 76.3307 882.885 77.9634 884.089 79.1672C885.293 80.3709 886.926 81.0472 888.628 81.0472ZM888.628 70.6567L892.6 74.6283L888.628 78.6L884.656 74.6283L888.628 70.6567ZM888.628 72.9265L886.926 74.6283L888.628 76.3301L890.33 74.6283L888.628 72.9265Z" fill="white" fill-opacity="0.4"/>
</g>
<path d="M917.32 73.5005H915.987C915.935 73.2156 915.84 72.9649 915.7 72.7483C915.561 72.5318 915.39 72.348 915.187 72.197C914.985 72.046 914.758 71.932 914.508 71.8551C914.26 71.7781 913.996 71.7397 913.717 71.7397C913.213 71.7397 912.761 71.8665 912.362 72.12C911.966 72.3736 911.653 72.7455 911.422 73.2355C911.194 73.7256 911.08 74.324 911.08 75.0306C911.08 75.7429 911.194 76.3441 911.422 76.8342C911.653 77.3243 911.968 77.6947 912.366 77.9454C912.765 78.1962 913.214 78.3215 913.713 78.3215C913.989 78.3215 914.251 78.2845 914.499 78.2104C914.75 78.1335 914.976 78.0209 915.179 77.8728C915.381 77.7246 915.552 77.5437 915.692 77.33C915.834 77.1134 915.932 76.8655 915.987 76.5863L917.32 76.5906C917.249 77.0208 917.111 77.4169 916.905 77.7787C916.703 78.1377 916.442 78.4483 916.123 78.7105C915.807 78.9697 915.445 79.1706 915.038 79.3131C914.63 79.4555 914.186 79.5268 913.704 79.5268C912.946 79.5268 912.271 79.3473 911.678 78.9883C911.086 78.6264 910.618 78.1093 910.277 77.4368C909.937 76.7644 909.768 75.9623 909.768 75.0306C909.768 74.096 909.939 73.294 910.281 72.6244C910.623 71.9519 911.09 71.4362 911.683 71.0772C912.275 70.7153 912.949 70.5344 913.704 70.5344C914.169 70.5344 914.602 70.6014 915.004 70.7353C915.408 70.8664 915.771 71.0601 916.093 71.3165C916.415 71.5701 916.682 71.8807 916.893 72.2483C917.103 72.613 917.246 73.0304 917.32 73.5005ZM921.563 79.5396C920.947 79.5396 920.41 79.3986 919.952 79.1165C919.493 78.8344 919.137 78.4398 918.883 77.9326C918.63 77.4254 918.503 76.8328 918.503 76.1546C918.503 75.4737 918.63 74.8782 918.883 74.3681C919.137 73.8581 919.493 73.4621 919.952 73.18C920.41 72.8979 920.947 72.7569 921.563 72.7569C922.178 72.7569 922.715 72.8979 923.174 73.18C923.633 73.4621 923.989 73.8581 924.243 74.3681C924.496 74.8782 924.623 75.4737 924.623 76.1546C924.623 76.8328 924.496 77.4254 924.243 77.9326C923.989 78.4398 923.633 78.8344 923.174 79.1165C922.715 79.3986 922.178 79.5396 921.563 79.5396ZM921.567 78.4668C921.966 78.4668 922.297 78.3614 922.559 78.1506C922.821 77.9397 923.015 77.6591 923.14 77.3086C923.268 76.9581 923.332 76.5721 923.332 76.1504C923.332 75.7315 923.268 75.3469 923.14 74.9964C923.015 74.6431 922.821 74.3596 922.559 74.1459C922.297 73.9322 921.966 73.8253 921.567 73.8253C921.165 73.8253 920.832 73.9322 920.567 74.1459C920.305 74.3596 920.11 74.6431 919.982 74.9964C919.856 75.3469 919.794 75.7315 919.794 76.1504C919.794 76.5721 919.856 76.9581 919.982 77.3086C920.11 77.6591 920.305 77.9397 920.567 78.1506C920.832 78.3614 921.165 78.4668 921.567 78.4668ZM926.049 79.4071V72.8423H927.276V73.9108H927.357C927.494 73.549 927.718 73.2669 928.028 73.0646C928.339 72.8594 928.711 72.7569 929.144 72.7569C929.583 72.7569 929.95 72.8594 930.246 73.0646C930.546 73.2697 930.766 73.5518 930.909 73.9108H930.977C931.134 73.5604 931.383 73.2811 931.725 73.0731C932.067 72.8623 932.475 72.7569 932.948 72.7569C933.543 72.7569 934.029 72.9435 934.405 73.3167C934.784 73.69 934.973 74.2527 934.973 75.005V79.4071H933.696V75.1246C933.696 74.6801 933.574 74.3582 933.332 74.1587C933.09 73.9593 932.801 73.8595 932.465 73.8595C932.049 73.8595 931.725 73.9878 931.494 74.2442C931.264 74.4978 931.148 74.824 931.148 75.2229V79.4071H929.875V75.0434C929.875 74.6873 929.764 74.4009 929.541 74.1844C929.319 73.9678 929.03 73.8595 928.674 73.8595C928.431 73.8595 928.208 73.9236 928.003 74.0519C927.8 74.1772 927.637 74.3525 927.511 74.5776C927.389 74.8027 927.327 75.0634 927.327 75.3597V79.4071H926.049ZM936.686 81.8689V72.8423H937.934V73.9066H938.041C938.115 73.7698 938.222 73.6116 938.362 73.4321C938.501 73.2526 938.695 73.0959 938.943 72.962C939.191 72.8252 939.518 72.7569 939.926 72.7569C940.456 72.7569 940.929 72.8908 941.345 73.1586C941.761 73.4264 942.087 73.8125 942.324 74.3168C942.563 74.8212 942.683 75.4281 942.683 76.1375C942.683 76.847 942.564 77.4553 942.328 77.9625C942.091 78.4668 941.767 78.8558 941.353 79.1293C940.94 79.4 940.469 79.5353 939.939 79.5353C939.54 79.5353 939.214 79.4684 938.96 79.3344C938.709 79.2005 938.513 79.0438 938.37 78.8643C938.228 78.6848 938.118 78.5252 938.041 78.3856H937.964V81.8689H936.686ZM937.939 76.1247C937.939 76.5863 938.005 76.9909 938.139 77.3385C938.273 77.6861 938.467 77.9582 938.721 78.1548C938.974 78.3486 939.285 78.4455 939.652 78.4455C940.034 78.4455 940.353 78.3443 940.61 78.142C940.866 77.9369 941.06 77.6591 941.191 77.3086C941.325 76.9581 941.392 76.5635 941.392 76.1247C941.392 75.6916 941.326 75.3027 941.195 74.9579C941.067 74.6132 940.873 74.3411 940.614 74.1416C940.358 73.9422 940.037 73.8424 939.652 73.8424C939.282 73.8424 938.969 73.9379 938.712 74.1288C938.458 74.3197 938.266 74.5861 938.135 74.928C938.004 75.2699 937.939 75.6688 937.939 76.1247ZM946.944 79.5396C946.297 79.5396 945.74 79.4014 945.273 79.125C944.808 78.8458 944.449 78.454 944.196 77.9497C943.945 77.4425 943.819 76.8484 943.819 76.1675C943.819 75.495 943.945 74.9024 944.196 74.3895C944.449 73.8766 944.802 73.4763 945.255 73.1885C945.711 72.9008 946.244 72.7569 946.854 72.7569C947.224 72.7569 947.583 72.8181 947.931 72.9406C948.279 73.0632 948.591 73.2555 948.867 73.5176C949.143 73.7798 949.361 74.1202 949.521 74.5391C949.68 74.9551 949.76 75.4608 949.76 76.0563V76.5094H944.542V75.552H948.508C948.508 75.2158 948.44 74.918 948.303 74.6588C948.166 74.3966 947.974 74.1901 947.726 74.039C947.481 73.888 947.193 73.8125 946.862 73.8125C946.503 73.8125 946.19 73.9009 945.922 74.0775C945.657 74.2513 945.452 74.4793 945.307 74.7613C945.164 75.0406 945.093 75.344 945.093 75.6717V76.4196C945.093 76.8584 945.17 77.2317 945.324 77.5394C945.481 77.8471 945.699 78.0822 945.978 78.2446C946.257 78.4042 946.583 78.4839 946.957 78.4839C947.199 78.4839 947.42 78.4497 947.619 78.3814C947.818 78.3101 947.991 78.2047 948.136 78.0651C948.281 77.9255 948.393 77.7531 948.469 77.5479L949.679 77.7659C949.582 78.1221 949.408 78.4341 949.158 78.7019C948.91 78.9669 948.598 79.1735 948.222 79.3216C947.848 79.4669 947.422 79.5396 946.944 79.5396ZM952.456 75.5093V79.4071H951.178V72.8423H952.405V73.9108H952.486C952.637 73.5632 952.873 73.284 953.195 73.0731C953.52 72.8623 953.929 72.7569 954.422 72.7569C954.869 72.7569 955.261 72.8509 955.597 73.0389C955.934 73.2241 956.194 73.5005 956.379 73.8681C956.565 74.2356 956.657 74.6901 956.657 75.2315V79.4071H955.379V75.3853C955.379 74.9095 955.255 74.5377 955.008 74.2698C954.76 73.9992 954.419 73.8638 953.986 73.8638C953.69 73.8638 953.426 73.9279 953.195 74.0561C952.967 74.1844 952.787 74.3724 952.653 74.6203C952.522 74.8653 952.456 75.1617 952.456 75.5093ZM963.29 74.4451L962.132 74.6502C962.084 74.5021 962.007 74.361 961.901 74.2271C961.799 74.0932 961.659 73.9835 961.483 73.898C961.306 73.8125 961.085 73.7698 960.82 73.7698C960.458 73.7698 960.156 73.851 959.914 74.0134C959.672 74.173 959.551 74.3795 959.551 74.6331C959.551 74.8525 959.632 75.0292 959.794 75.1631C959.957 75.297 960.219 75.4067 960.581 75.4922L961.624 75.7315C962.228 75.8711 962.678 76.0863 962.974 76.3769C963.27 76.6675 963.419 77.045 963.419 77.5095C963.419 77.9027 963.305 78.2531 963.077 78.5609C962.852 78.8657 962.537 79.1051 962.132 79.2789C961.73 79.4527 961.265 79.5396 960.735 79.5396C959.999 79.5396 959.4 79.3829 958.935 79.0695C958.471 78.7532 958.186 78.3044 958.08 77.7232L959.316 77.5351C959.393 77.8571 959.551 78.1007 959.79 78.266C960.029 78.4284 960.341 78.5096 960.726 78.5096C961.145 78.5096 961.48 78.4227 961.73 78.2489C961.981 78.0722 962.107 77.8571 962.107 77.6035C962.107 77.3984 962.03 77.226 961.876 77.0864C961.725 76.9467 961.493 76.8413 961.179 76.7701L960.068 76.5265C959.455 76.3869 959.002 76.1646 958.709 75.8597C958.418 75.5549 958.273 75.1688 958.273 74.7015C958.273 74.314 958.381 73.9749 958.598 73.6843C958.814 73.3937 959.113 73.1672 959.495 73.0048C959.877 72.8395 960.314 72.7569 960.807 72.7569C961.517 72.7569 962.075 72.9107 962.483 73.2184C962.89 73.5233 963.159 73.9322 963.29 74.4451ZM966.734 79.5524C966.318 79.5524 965.942 79.4755 965.606 79.3216C965.27 79.1649 965.003 78.9384 964.807 78.6421C964.613 78.3457 964.516 77.9825 964.516 77.5522C964.516 77.1818 964.587 76.8769 964.73 76.6376C964.872 76.3983 965.064 76.2088 965.307 76.0692C965.549 75.9295 965.82 75.8241 966.119 75.7529C966.418 75.6817 966.723 75.6275 967.033 75.5905C967.427 75.5449 967.746 75.5079 967.991 75.4794C968.236 75.448 968.414 75.3982 968.525 75.3298C968.636 75.2614 968.692 75.1503 968.692 74.9964V74.9665C968.692 74.5932 968.586 74.304 968.375 74.0989C968.167 73.8937 967.857 73.7912 967.444 73.7912C967.013 73.7912 966.674 73.8866 966.426 74.0775C966.181 74.2656 966.012 74.475 965.918 74.7058L964.717 74.4322C964.859 74.0333 965.067 73.7114 965.341 73.4663C965.617 73.2184 965.935 73.0389 966.294 72.9278C966.653 72.8138 967.03 72.7569 967.427 72.7569C967.689 72.7569 967.966 72.7882 968.26 72.8509C968.556 72.9107 968.833 73.0218 969.089 73.1843C969.348 73.3467 969.561 73.5789 969.726 73.8809C969.891 74.1801 969.974 74.569 969.974 75.0477V79.4071H968.726V78.5096H968.674C968.592 78.6748 968.468 78.8372 968.303 78.9968C968.137 79.1564 967.925 79.2889 967.666 79.3943C967.407 79.4997 967.096 79.5524 966.734 79.5524ZM967.012 78.5267C967.365 78.5267 967.667 78.4569 967.918 78.3173C968.172 78.1776 968.364 77.9953 968.495 77.7702C968.629 77.5422 968.696 77.2986 968.696 77.0393V76.1931C968.65 76.2387 968.562 76.2814 968.431 76.3213C968.303 76.3584 968.156 76.3911 967.991 76.4196C967.825 76.4453 967.664 76.4695 967.508 76.4923C967.351 76.5122 967.22 76.5293 967.115 76.5436C966.867 76.5749 966.64 76.6276 966.435 76.7017C966.233 76.7758 966.07 76.8826 965.948 77.0222C965.828 77.159 965.768 77.3414 965.768 77.5693C965.768 77.8856 965.885 78.1249 966.119 78.2873C966.352 78.4469 966.65 78.5267 967.012 78.5267ZM974.441 79.5396C973.806 79.5396 973.259 79.3957 972.8 79.1079C972.344 78.8173 971.994 78.417 971.749 77.907C971.503 77.3969 971.381 76.8128 971.381 76.1546C971.381 75.4879 971.506 74.8995 971.757 74.3895C972.008 73.8766 972.361 73.4763 972.817 73.1885C973.273 72.9008 973.81 72.7569 974.428 72.7569C974.927 72.7569 975.371 72.8495 975.762 73.0347C976.152 73.217 976.467 73.4735 976.706 73.804C976.948 74.1345 977.092 74.5206 977.138 74.9622H975.894C975.826 74.6545 975.669 74.3895 975.424 74.1673C975.182 73.945 974.857 73.8339 974.45 73.8339C974.093 73.8339 973.781 73.9279 973.514 74.116C973.249 74.3012 973.042 74.5662 972.894 74.9109C972.746 75.2528 972.672 75.6574 972.672 76.1247C972.672 76.6034 972.744 77.0166 972.89 77.3642C973.035 77.7118 973.24 77.981 973.505 78.1719C973.773 78.3628 974.088 78.4583 974.45 78.4583C974.692 78.4583 974.911 78.4141 975.108 78.3258C975.307 78.2346 975.474 78.105 975.608 77.9369C975.745 77.7688 975.84 77.5665 975.894 77.33H977.138C977.092 77.7545 976.954 78.1335 976.723 78.4668C976.493 78.8002 976.183 79.0623 975.796 79.2532C975.411 79.4441 974.96 79.5396 974.441 79.5396ZM973.98 79.3729H974.817L974.749 79.7234C974.997 79.7633 975.213 79.863 975.398 80.0226C975.584 80.1821 975.676 80.4229 975.676 80.7448C975.679 81.1295 975.512 81.4415 975.176 81.6808C974.843 81.9202 974.36 82.0398 973.727 82.0398L973.702 81.3261C973.998 81.3261 974.237 81.2834 974.42 81.1979C974.605 81.1124 974.699 80.9742 974.702 80.7833C974.705 80.5924 974.633 80.4585 974.488 80.3816C974.346 80.3046 974.118 80.2505 973.804 80.2192L973.98 79.3729ZM981.27 79.5396C980.654 79.5396 980.117 79.3986 979.659 79.1165C979.2 78.8344 978.844 78.4398 978.59 77.9326C978.336 77.4254 978.21 76.8328 978.21 76.1546C978.21 75.4737 978.336 74.8782 978.59 74.3681C978.844 73.8581 979.2 73.4621 979.659 73.18C980.117 72.8979 980.654 72.7569 981.27 72.7569C981.885 72.7569 982.422 72.8979 982.881 73.18C983.34 73.4621 983.696 73.8581 983.95 74.3681C984.203 74.8782 984.33 75.4737 984.33 76.1546C984.33 76.8328 984.203 77.4254 983.95 77.9326C983.696 78.4398 983.34 78.8344 982.881 79.1165C982.422 79.3986 981.885 79.5396 981.27 79.5396ZM981.274 78.4668C981.673 78.4668 982.003 78.3614 982.266 78.1506C982.528 77.9397 982.721 77.6591 982.847 77.3086C982.975 76.9581 983.039 76.5721 983.039 76.1504C983.039 75.7315 982.975 75.3469 982.847 74.9964C982.721 74.6431 982.528 74.3596 982.266 74.1459C982.003 73.9322 981.673 73.8253 981.274 73.8253C980.872 73.8253 980.539 73.9322 980.274 74.1459C980.012 74.3596 979.817 74.6431 979.688 74.9964C979.563 75.3469 979.5 75.7315 979.5 76.1504C979.5 76.5721 979.563 76.9581 979.688 77.3086C979.817 77.6591 980.012 77.9397 980.274 78.1506C980.539 78.3614 980.872 78.4668 981.274 78.4668ZM979.983 72.0474L979.124 72.0217C979.124 71.5488 979.251 71.1712 979.505 70.8892C979.761 70.6071 980.077 70.466 980.453 70.466C980.627 70.466 980.78 70.496 980.911 70.5558C981.042 70.6128 981.164 70.6797 981.278 70.7567C981.395 70.8307 981.511 70.8977 981.625 70.9575C981.741 71.0145 981.871 71.043 982.013 71.043C982.179 71.043 982.313 70.9803 982.415 70.855C982.521 70.7296 982.573 70.5743 982.573 70.3891L983.415 70.4447C983.415 70.9205 983.287 71.2952 983.031 71.5687C982.774 71.8394 982.459 71.9762 982.086 71.979C981.884 71.979 981.716 71.9505 981.582 71.8935C981.451 71.8337 981.334 71.7667 981.231 71.6927C981.129 71.6157 981.023 71.5473 980.915 71.4875C980.807 71.4277 980.677 71.3978 980.526 71.3978C980.367 71.3978 980.235 71.4604 980.133 71.5858C980.033 71.7083 979.983 71.8622 979.983 72.0474ZM988.586 79.5396C987.939 79.5396 987.382 79.4014 986.915 79.125C986.45 78.8458 986.091 78.454 985.838 77.9497C985.587 77.4425 985.461 76.8484 985.461 76.1675C985.461 75.495 985.587 74.9024 985.838 74.3895C986.091 73.8766 986.444 73.4763 986.897 73.1885C987.353 72.9008 987.886 72.7569 988.496 72.7569C988.866 72.7569 989.225 72.8181 989.573 72.9406C989.921 73.0632 990.233 73.2555 990.509 73.5176C990.785 73.7798 991.003 74.1202 991.163 74.5391C991.322 74.9551 991.402 75.4608 991.402 76.0563V76.5094H986.184V75.552H990.15C990.15 75.2158 990.082 74.918 989.945 74.6588C989.808 74.3966 989.616 74.1901 989.368 74.039C989.123 73.888 988.835 73.8125 988.504 73.8125C988.145 73.8125 987.832 73.9009 987.564 74.0775C987.299 74.2513 987.094 74.4793 986.949 74.7613C986.806 75.0406 986.735 75.344 986.735 75.6717V76.4196C986.735 76.8584 986.812 77.2317 986.966 77.5394C987.123 77.8471 987.341 78.0822 987.62 78.2446C987.899 78.4042 988.225 78.4839 988.599 78.4839C988.841 78.4839 989.062 78.4497 989.261 78.3814C989.46 78.3101 989.633 78.2047 989.778 78.0651C989.923 77.9255 990.035 77.7531 990.111 77.5479L991.321 77.7659C991.224 78.1221 991.05 78.4341 990.8 78.7019C990.552 78.9669 990.24 79.1735 989.864 79.3216C989.49 79.4669 989.064 79.5396 988.586 79.5396ZM997.739 74.4451L996.581 74.6502C996.533 74.5021 996.456 74.361 996.35 74.2271C996.248 74.0932 996.108 73.9835 995.932 73.898C995.755 73.8125 995.534 73.7698 995.269 73.7698C994.907 73.7698 994.605 73.851 994.363 74.0134C994.121 74.173 994 74.3795 994 74.6331C994 74.8525 994.081 75.0292 994.243 75.1631C994.406 75.297 994.668 75.4067 995.03 75.4922L996.073 75.7315C996.677 75.8711 997.127 76.0863 997.423 76.3769C997.719 76.6675 997.868 77.045 997.868 77.5095C997.868 77.9027 997.754 78.2531 997.526 78.5609C997.301 78.8657 996.986 79.1051 996.581 79.2789C996.179 79.4527 995.714 79.5396 995.184 79.5396C994.448 79.5396 993.849 79.3829 993.384 79.0695C992.92 78.7532 992.635 78.3044 992.529 77.7232L993.765 77.5351C993.842 77.8571 994 78.1007 994.239 78.266C994.478 78.4284 994.79 78.5096 995.175 78.5096C995.594 78.5096 995.929 78.4227 996.179 78.2489C996.43 78.0722 996.556 77.8571 996.556 77.6035C996.556 77.3984 996.479 77.226 996.325 77.0864C996.174 76.9467 995.941 76.8413 995.628 76.7701L994.517 76.5265C993.904 76.3869 993.451 76.1646 993.158 75.8597C992.867 75.5549 992.722 75.1688 992.722 74.7015C992.722 74.314 992.83 73.9749 993.047 73.6843C993.263 73.3937 993.562 73.1672 993.944 73.0048C994.326 72.8395 994.763 72.7569 995.256 72.7569C995.966 72.7569 996.524 72.9107 996.932 73.2184C997.339 73.5233 997.608 73.9322 997.739 74.4451ZM1002.83 75.7743C1002.83 74.7029 1002.97 73.7171 1003.25 72.8167C1003.53 71.9163 1003.95 71.0858 1004.49 70.325H1005.66C1005.45 70.6071 1005.25 70.9533 1005.07 71.3636C1004.89 71.7739 1004.73 72.224 1004.59 72.7141C1004.45 73.2014 1004.35 73.7071 1004.27 74.2314C1004.19 74.7528 1004.15 75.2671 1004.15 75.7743C1004.15 76.4524 1004.22 77.1391 1004.36 77.8343C1004.49 78.5295 1004.67 79.1749 1004.9 79.7704C1005.13 80.3659 1005.38 80.8517 1005.66 81.2278H1004.49C1003.95 80.467 1003.53 79.6365 1003.25 78.7361C1002.97 77.8357 1002.83 76.8484 1002.83 75.7743ZM1006.68 71.791V70.6541H1013.45V71.791H1010.72V79.4071H1009.4V71.791H1006.68ZM1016.66 79.5396C1016.04 79.5396 1015.51 79.3986 1015.05 79.1165C1014.59 78.8344 1014.23 78.4398 1013.98 77.9326C1013.73 77.4254 1013.6 76.8328 1013.6 76.1546C1013.6 75.4737 1013.73 74.8782 1013.98 74.3681C1014.23 73.8581 1014.59 73.4621 1015.05 73.18C1015.51 72.8979 1016.04 72.7569 1016.66 72.7569C1017.27 72.7569 1017.81 72.8979 1018.27 73.18C1018.73 73.4621 1019.09 73.8581 1019.34 74.3681C1019.59 74.8782 1019.72 75.4737 1019.72 76.1546C1019.72 76.8328 1019.59 77.4254 1019.34 77.9326C1019.09 78.4398 1018.73 78.8344 1018.27 79.1165C1017.81 79.3986 1017.27 79.5396 1016.66 79.5396ZM1016.66 78.4668C1017.06 78.4668 1017.39 78.3614 1017.65 78.1506C1017.92 77.9397 1018.11 77.6591 1018.24 77.3086C1018.36 76.9581 1018.43 76.5721 1018.43 76.1504C1018.43 75.7315 1018.36 75.3469 1018.24 74.9964C1018.11 74.6431 1017.92 74.3596 1017.65 74.1459C1017.39 73.9322 1017.06 73.8253 1016.66 73.8253C1016.26 73.8253 1015.93 73.9322 1015.66 74.1459C1015.4 74.3596 1015.21 74.6431 1015.08 74.9964C1014.95 75.3469 1014.89 75.7315 1014.89 76.1504C1014.89 76.5721 1014.95 76.9581 1015.08 77.3086C1015.21 77.6591 1015.4 77.9397 1015.66 78.1506C1015.93 78.3614 1016.26 78.4668 1016.66 78.4668ZM1022.42 75.5093V79.4071H1021.15V72.8423H1022.37V73.9108H1022.45C1022.6 73.5632 1022.84 73.284 1023.16 73.0731C1023.49 72.8623 1023.9 72.7569 1024.39 72.7569C1024.84 72.7569 1025.23 72.8509 1025.56 73.0389C1025.9 73.2241 1026.16 73.5005 1026.35 73.8681C1026.53 74.2356 1026.62 74.6901 1026.62 75.2315V79.4071H1025.35V75.3853C1025.35 74.9095 1025.22 74.5377 1024.98 74.2698C1024.73 73.9992 1024.39 73.8638 1023.95 73.8638C1023.66 73.8638 1023.39 73.9279 1023.16 74.0561C1022.93 74.1844 1022.75 74.3724 1022.62 74.6203C1022.49 74.8653 1022.42 75.1617 1022.42 75.5093ZM1030.8 75.7743C1030.8 76.8484 1030.66 77.8357 1030.37 78.7361C1030.09 79.6365 1029.68 80.467 1029.14 81.2278H1027.97C1028.18 80.9457 1028.37 80.5995 1028.56 80.1892C1028.74 79.7789 1028.9 79.3302 1029.04 78.8429C1029.17 78.3529 1029.28 77.8457 1029.36 77.3214C1029.43 76.7972 1029.47 76.2814 1029.47 75.7743C1029.47 75.099 1029.4 74.4137 1029.27 73.7185C1029.14 73.0233 1028.96 72.3779 1028.73 71.7824C1028.5 71.1869 1028.25 70.7011 1027.97 70.325H1029.14C1029.68 71.0858 1030.09 71.9163 1030.37 72.8167C1030.66 73.7171 1030.8 74.7029 1030.8 75.7743Z" fill="white" fill-opacity="0.4"/>
<path d="M383.251 125.047C381.373 125.047 379.695 124.723 378.218 124.076C376.75 123.428 375.587 122.53 374.73 121.381C373.882 120.223 373.427 118.883 373.363 117.36H377.657C377.712 118.19 377.99 118.91 378.491 119.521C379.002 120.123 379.668 120.588 380.488 120.916C381.309 121.245 382.221 121.409 383.224 121.409C384.327 121.409 385.302 121.217 386.15 120.834C387.007 120.451 387.678 119.918 388.161 119.234C388.644 118.541 388.886 117.743 388.886 116.841C388.886 115.902 388.644 115.076 388.161 114.365C387.687 113.645 386.989 113.08 386.068 112.669C385.156 112.259 384.053 112.054 382.759 112.054H380.392V108.607H382.759C383.798 108.607 384.71 108.42 385.494 108.047C386.287 107.673 386.907 107.153 387.354 106.488C387.801 105.813 388.024 105.024 388.024 104.121C388.024 103.255 387.828 102.503 387.436 101.865C387.053 101.217 386.506 100.711 385.795 100.347C385.093 99.982 384.263 99.7997 383.306 99.7997C382.394 99.7997 381.541 99.9683 380.748 100.306C379.964 100.634 379.326 101.108 378.833 101.728C378.341 102.339 378.077 103.073 378.04 103.93H373.951C373.996 102.416 374.443 101.085 375.291 99.9364C376.148 98.7876 377.279 97.8895 378.683 97.2421C380.087 96.5948 381.646 96.2711 383.36 96.2711C385.156 96.2711 386.706 96.6221 388.01 97.3242C389.323 98.0171 390.335 98.9426 391.047 100.101C391.767 101.258 392.122 102.526 392.113 103.903C392.122 105.471 391.685 106.802 390.8 107.896C389.925 108.99 388.758 109.724 387.299 110.098V110.317C389.159 110.6 390.6 111.338 391.621 112.533C392.651 113.727 393.162 115.209 393.153 116.977C393.162 118.518 392.733 119.9 391.867 121.121C391.01 122.343 389.838 123.305 388.352 124.007C386.866 124.7 385.166 125.047 383.251 125.047ZM398.322 124.664V121.6L407.8 111.78C408.812 110.714 409.647 109.779 410.303 108.977C410.969 108.165 411.466 107.395 411.794 106.665C412.122 105.936 412.286 105.161 412.286 104.34C412.286 103.41 412.067 102.608 411.63 101.933C411.192 101.249 410.595 100.725 409.838 100.36C409.081 99.9866 408.229 99.7997 407.281 99.7997C406.278 99.7997 405.402 100.005 404.655 100.415C403.907 100.825 403.333 101.404 402.931 102.152C402.53 102.9 402.33 103.775 402.33 104.778H398.295C398.295 103.073 398.687 101.582 399.471 100.306C400.255 99.0292 401.331 98.0399 402.699 97.3379C404.067 96.6267 405.621 96.2711 407.363 96.2711C409.122 96.2711 410.672 96.6221 412.013 97.3242C413.362 98.0171 414.415 98.9654 415.172 100.169C415.929 101.363 416.307 102.713 416.307 104.217C416.307 105.257 416.111 106.273 415.719 107.267C415.336 108.261 414.666 109.369 413.709 110.59C412.751 111.803 411.42 113.276 409.715 115.008L404.149 120.834V121.039H416.759V124.664H398.322ZM431.406 125.047C429.446 125.047 427.713 124.709 426.209 124.035C424.714 123.36 423.542 122.43 422.694 121.245C421.846 120.059 421.427 118.71 421.436 117.196C421.427 116.011 421.668 114.921 422.161 113.928C422.662 112.925 423.342 112.09 424.199 111.425C425.056 110.75 426.013 110.322 427.071 110.139V109.975C425.676 109.638 424.559 108.89 423.72 107.732C422.881 106.574 422.466 105.243 422.475 103.739C422.466 102.307 422.845 101.031 423.61 99.9091C424.385 98.7785 425.448 97.8895 426.797 97.2421C428.147 96.5948 429.683 96.2711 431.406 96.2711C433.111 96.2711 434.634 96.5993 435.974 97.2558C437.324 97.9032 438.386 98.7921 439.161 99.9227C439.936 101.044 440.328 102.316 440.337 103.739C440.328 105.243 439.899 106.574 439.051 107.732C438.203 108.89 437.1 109.638 435.742 109.975V110.139C436.79 110.322 437.734 110.75 438.573 111.425C439.421 112.09 440.095 112.925 440.597 113.928C441.107 114.921 441.367 116.011 441.376 117.196C441.367 118.71 440.939 120.059 440.091 121.245C439.243 122.43 438.067 123.36 436.562 124.035C435.067 124.709 433.348 125.047 431.406 125.047ZM431.406 121.586C432.564 121.586 433.567 121.395 434.415 121.012C435.263 120.62 435.919 120.077 436.384 119.385C436.849 118.682 437.086 117.862 437.096 116.923C437.086 115.947 436.831 115.086 436.33 114.338C435.837 113.59 435.167 113.002 434.319 112.574C433.471 112.145 432.5 111.931 431.406 111.931C430.303 111.931 429.323 112.145 428.466 112.574C427.609 113.002 426.934 113.59 426.442 114.338C425.949 115.086 425.708 115.947 425.717 116.923C425.708 117.862 425.931 118.682 426.387 119.385C426.852 120.077 427.513 120.62 428.37 121.012C429.227 121.395 430.239 121.586 431.406 121.586ZM431.406 108.553C432.336 108.553 433.161 108.366 433.882 107.992C434.602 107.618 435.167 107.098 435.578 106.433C435.997 105.767 436.211 104.988 436.22 104.094C436.211 103.219 436.001 102.453 435.591 101.796C435.19 101.14 434.629 100.634 433.909 100.278C433.189 99.9136 432.354 99.7313 431.406 99.7313C430.44 99.7313 429.592 99.9136 428.862 100.278C428.142 100.634 427.581 101.14 427.18 101.796C426.779 102.453 426.583 103.219 426.592 104.094C426.583 104.988 426.783 105.767 427.194 106.433C427.604 107.098 428.169 107.618 428.89 107.992C429.619 108.366 430.458 108.553 431.406 108.553ZM447.22 124.664L459.447 100.483V100.278H445.305V96.654H463.823V100.401L451.637 124.664H447.22Z" fill="white" fill-opacity="0.4"/>
<path d="M634.321 96.654V124.664H630.081V100.894H629.917L623.216 105.27V101.222L630.204 96.654H634.321ZM641.898 124.664V121.6L651.376 111.78C652.388 110.714 653.222 109.779 653.879 108.977C654.544 108.165 655.041 107.395 655.369 106.665C655.698 105.936 655.862 105.161 655.862 104.34C655.862 103.41 655.643 102.608 655.205 101.933C654.767 101.249 654.17 100.725 653.414 100.36C652.657 99.9866 651.804 99.7997 650.856 99.7997C649.853 99.7997 648.978 100.005 648.23 100.415C647.482 100.825 646.908 101.404 646.507 102.152C646.106 102.9 645.905 103.775 645.905 104.778H641.87C641.87 103.073 642.263 101.582 643.047 100.306C643.831 99.0292 644.907 98.0399 646.274 97.3379C647.642 96.6267 649.197 96.2711 650.938 96.2711C652.698 96.2711 654.248 96.6221 655.588 97.3242C656.938 98.0171 657.991 98.9654 658.747 100.169C659.504 101.363 659.883 102.713 659.883 104.217C659.883 105.257 659.687 106.273 659.294 107.267C658.912 108.261 658.241 109.369 657.284 110.59C656.327 111.803 654.995 113.276 653.29 115.008L647.724 120.834V121.039H660.334V124.664H641.898Z" fill="white" fill-opacity="0.4"/>
<path d="M894.321 96.654V124.664H890.081V100.894H889.917L883.216 105.27V101.222L890.204 96.654H894.321ZM901.898 124.664V121.6L911.376 111.78C912.388 110.714 913.222 109.779 913.879 108.977C914.544 108.165 915.041 107.395 915.369 106.665C915.698 105.936 915.862 105.161 915.862 104.34C915.862 103.41 915.643 102.608 915.205 101.933C914.767 101.249 914.17 100.725 913.414 100.36C912.657 99.9866 911.804 99.7997 910.856 99.7997C909.853 99.7997 908.978 100.005 908.23 100.415C907.482 100.825 906.908 101.404 906.507 102.152C906.106 102.9 905.905 103.775 905.905 104.778H901.87C901.87 103.073 902.263 101.582 903.047 100.306C903.831 99.0292 904.907 98.0399 906.274 97.3379C907.642 96.6267 909.197 96.2711 910.938 96.2711C912.698 96.2711 914.248 96.6221 915.588 97.3242C916.938 98.0171 917.991 98.9654 918.747 100.169C919.504 101.363 919.883 102.713 919.883 104.217C919.883 105.257 919.687 106.273 919.294 107.267C918.912 108.261 918.241 109.369 917.284 110.59C916.327 111.803 914.995 113.276 913.29 115.008L907.724 120.834V121.039H920.334V124.664H901.898ZM924.327 119.193V115.774L936.431 96.654H939.126V101.687H937.416L928.759 115.391V115.61H945.348V119.193H924.327ZM937.607 124.664V118.154L937.635 116.595V96.654H941.642V124.664H937.607ZM949.527 119.193V115.774L961.63 96.654H964.325V101.687H962.615L953.958 115.391V115.61H970.547V119.193H949.527ZM962.807 124.664V118.154L962.834 116.595V96.654H966.841V124.664H962.807Z" fill="white" fill-opacity="0.4"/>
<path d="M49.2784 140V128.364H53.4261C54.3314 128.364 55.0814 128.528 55.6761 128.858C56.2708 129.187 56.7159 129.638 57.0114 130.21C57.3068 130.778 57.4545 131.419 57.4545 132.131C57.4545 132.847 57.3049 133.491 57.0057 134.062C56.7102 134.631 56.2633 135.081 55.6648 135.415C55.0701 135.744 54.322 135.909 53.4205 135.909H50.5682V134.42H53.2614C53.8333 134.42 54.2973 134.322 54.6534 134.125C55.0095 133.924 55.2708 133.652 55.4375 133.307C55.6042 132.962 55.6875 132.57 55.6875 132.131C55.6875 131.691 55.6042 131.301 55.4375 130.96C55.2708 130.619 55.0076 130.352 54.6477 130.159C54.2917 129.966 53.822 129.869 53.2386 129.869H51.0341V140H49.2784ZM61.8381 140.193C61.285 140.193 60.785 140.091 60.3381 139.886C59.8911 139.678 59.5369 139.377 59.2756 138.983C59.018 138.589 58.8892 138.106 58.8892 137.534C58.8892 137.042 58.9839 136.636 59.1733 136.318C59.3627 136 59.6184 135.748 59.9403 135.562C60.2623 135.377 60.6222 135.237 61.0199 135.142C61.4176 135.047 61.8229 134.975 62.2358 134.926C62.7585 134.866 63.1828 134.816 63.5085 134.778C63.8343 134.737 64.071 134.67 64.2188 134.58C64.3665 134.489 64.4403 134.341 64.4403 134.136V134.097C64.4403 133.6 64.3002 133.216 64.0199 132.943C63.7434 132.67 63.3305 132.534 62.7812 132.534C62.2093 132.534 61.7585 132.661 61.429 132.915C61.1032 133.165 60.8778 133.443 60.7528 133.75L59.1562 133.386C59.3456 132.856 59.6222 132.428 59.9858 132.102C60.3532 131.773 60.7756 131.534 61.2528 131.386C61.7301 131.235 62.232 131.159 62.7585 131.159C63.107 131.159 63.4763 131.201 63.8665 131.284C64.2604 131.364 64.6278 131.511 64.9688 131.727C65.3134 131.943 65.5956 132.252 65.8153 132.653C66.035 133.051 66.1449 133.568 66.1449 134.205V140H64.4858V138.807H64.4176C64.3078 139.027 64.143 139.242 63.9233 139.455C63.7036 139.667 63.4214 139.843 63.0767 139.983C62.732 140.123 62.3191 140.193 61.8381 140.193ZM62.2074 138.83C62.6771 138.83 63.0786 138.737 63.4119 138.551C63.7491 138.366 64.0047 138.123 64.179 137.824C64.357 137.521 64.446 137.197 64.446 136.852V135.727C64.3854 135.788 64.268 135.845 64.0938 135.898C63.9233 135.947 63.7282 135.991 63.5085 136.028C63.2888 136.062 63.0748 136.095 62.8665 136.125C62.6581 136.152 62.4839 136.174 62.3438 136.193C62.0142 136.235 61.7131 136.305 61.4403 136.403C61.1714 136.502 60.9555 136.644 60.7926 136.83C60.6335 137.011 60.554 137.254 60.554 137.557C60.554 137.977 60.7093 138.295 61.0199 138.511C61.3305 138.723 61.7263 138.83 62.2074 138.83ZM62.1449 130.108L63.4744 127.489H65.2642L63.5028 130.108H62.1449ZM72.0668 143.455C71.3736 143.455 70.777 143.364 70.277 143.182C69.7808 143 69.3755 142.759 69.0611 142.46C68.7467 142.161 68.5118 141.833 68.3565 141.477L69.8168 140.875C69.919 141.042 70.0554 141.218 70.2259 141.403C70.4001 141.593 70.6349 141.754 70.9304 141.886C71.2296 142.019 71.6141 142.085 72.0838 142.085C72.7277 142.085 73.2599 141.928 73.6804 141.614C74.1009 141.303 74.3111 140.807 74.3111 140.125V138.409H74.2031C74.1009 138.595 73.9531 138.801 73.7599 139.028C73.5705 139.256 73.3092 139.453 72.9759 139.619C72.6425 139.786 72.2088 139.869 71.6747 139.869C70.9853 139.869 70.3641 139.708 69.8111 139.386C69.2618 139.061 68.8262 138.581 68.5043 137.949C68.1861 137.312 68.027 136.53 68.027 135.602C68.027 134.674 68.1842 133.879 68.4986 133.216C68.8168 132.553 69.2524 132.045 69.8054 131.693C70.3584 131.337 70.9853 131.159 71.6861 131.159C72.2277 131.159 72.6652 131.25 72.9986 131.432C73.3319 131.61 73.5914 131.818 73.777 132.057C73.9664 132.295 74.1122 132.506 74.2145 132.688H74.3395V131.273H76.0043V140.193C76.0043 140.943 75.83 141.559 75.4815 142.04C75.133 142.521 74.6615 142.877 74.0668 143.108C73.4759 143.339 72.8092 143.455 72.0668 143.455ZM72.0497 138.46C72.5384 138.46 72.9512 138.347 73.2884 138.119C73.6293 137.888 73.8868 137.559 74.0611 137.131C74.2391 136.699 74.3281 136.182 74.3281 135.58C74.3281 134.992 74.241 134.475 74.0668 134.028C73.8925 133.581 73.6368 133.233 73.2997 132.983C72.9626 132.729 72.5459 132.602 72.0497 132.602C71.5384 132.602 71.1122 132.735 70.7713 133C70.4304 133.261 70.1728 133.617 69.9986 134.068C69.8281 134.519 69.7429 135.023 69.7429 135.58C69.7429 136.152 69.83 136.653 70.0043 137.085C70.1785 137.517 70.4361 137.854 70.777 138.097C71.1217 138.339 71.5459 138.46 72.0497 138.46ZM78.2827 140V131.273H79.9815V140H78.2827ZM79.1406 129.926C78.8452 129.926 78.5914 129.828 78.3793 129.631C78.1709 129.43 78.0668 129.191 78.0668 128.915C78.0668 128.634 78.1709 128.396 78.3793 128.199C78.5914 127.998 78.8452 127.898 79.1406 127.898C79.4361 127.898 79.688 127.998 79.8963 128.199C80.1084 128.396 80.2145 128.634 80.2145 128.915C80.2145 129.191 80.1084 129.43 79.8963 129.631C79.688 129.828 79.4361 129.926 79.1406 129.926ZM83.9659 134.818V140H82.267V131.273H83.8977V132.693H84.0057C84.2064 132.231 84.5208 131.86 84.9489 131.58C85.3807 131.299 85.9242 131.159 86.5795 131.159C87.1742 131.159 87.6951 131.284 88.142 131.534C88.589 131.78 88.9356 132.148 89.1818 132.636C89.428 133.125 89.5511 133.729 89.5511 134.449V140H87.8523V134.653C87.8523 134.021 87.6875 133.527 87.358 133.17C87.0284 132.811 86.5758 132.631 86 132.631C85.6061 132.631 85.2557 132.716 84.9489 132.886C84.6458 133.057 84.4053 133.307 84.2273 133.636C84.053 133.962 83.9659 134.356 83.9659 134.818ZM94.3693 140.193C93.8163 140.193 93.3163 140.091 92.8693 139.886C92.4223 139.678 92.0682 139.377 91.8068 138.983C91.5492 138.589 91.4205 138.106 91.4205 137.534C91.4205 137.042 91.5152 136.636 91.7045 136.318C91.8939 136 92.1496 135.748 92.4716 135.562C92.7936 135.377 93.1534 135.237 93.5511 135.142C93.9489 135.047 94.3542 134.975 94.767 134.926C95.2898 134.866 95.714 134.816 96.0398 134.778C96.3655 134.737 96.6023 134.67 96.75 134.58C96.8977 134.489 96.9716 134.341 96.9716 134.136V134.097C96.9716 133.6 96.8314 133.216 96.5511 132.943C96.2746 132.67 95.8617 132.534 95.3125 132.534C94.7405 132.534 94.2898 132.661 93.9602 132.915C93.6345 133.165 93.4091 133.443 93.2841 133.75L91.6875 133.386C91.8769 132.856 92.1534 132.428 92.517 132.102C92.8845 131.773 93.3068 131.534 93.7841 131.386C94.2614 131.235 94.7633 131.159 95.2898 131.159C95.6383 131.159 96.0076 131.201 96.3977 131.284C96.7917 131.364 97.1591 131.511 97.5 131.727C97.8447 131.943 98.1269 132.252 98.3466 132.653C98.5663 133.051 98.6761 133.568 98.6761 134.205V140H97.017V138.807H96.9489C96.839 139.027 96.6742 139.242 96.4545 139.455C96.2348 139.667 95.9527 139.843 95.608 139.983C95.2633 140.123 94.8504 140.193 94.3693 140.193ZM94.7386 138.83C95.2083 138.83 95.6098 138.737 95.9432 138.551C96.2803 138.366 96.536 138.123 96.7102 137.824C96.8883 137.521 96.9773 137.197 96.9773 136.852V135.727C96.9167 135.788 96.7992 135.845 96.625 135.898C96.4545 135.947 96.2595 135.991 96.0398 136.028C95.8201 136.062 95.6061 136.095 95.3977 136.125C95.1894 136.152 95.0152 136.174 94.875 136.193C94.5455 136.235 94.2443 136.305 93.9716 136.403C93.7027 136.502 93.4867 136.644 93.3239 136.83C93.1648 137.011 93.0852 137.254 93.0852 137.557C93.0852 137.977 93.2405 138.295 93.5511 138.511C93.8617 138.723 94.2576 138.83 94.7386 138.83ZM107.065 128.364V140H105.31V128.364H107.065ZM111.185 134.818V140H109.486V131.273H111.116V132.693H111.224C111.425 132.231 111.74 131.86 112.168 131.58C112.599 131.299 113.143 131.159 113.798 131.159C114.393 131.159 114.914 131.284 115.361 131.534C115.808 131.78 116.154 132.148 116.401 132.636C116.647 133.125 116.77 133.729 116.77 134.449V140H115.071V134.653C115.071 134.021 114.906 133.527 114.577 133.17C114.247 132.811 113.795 132.631 113.219 132.631C112.825 132.631 112.474 132.716 112.168 132.886C111.865 133.057 111.624 133.307 111.446 133.636C111.272 133.962 111.185 134.356 111.185 134.818ZM119.048 140V131.273H120.747V140H119.048ZM119.906 129.926C119.611 129.926 119.357 129.828 119.145 129.631C118.937 129.43 118.832 129.191 118.832 128.915C118.832 128.634 118.937 128.396 119.145 128.199C119.357 127.998 119.611 127.898 119.906 127.898C120.202 127.898 120.454 127.998 120.662 128.199C120.874 128.396 120.98 128.634 120.98 128.915C120.98 129.191 120.874 129.43 120.662 129.631C120.454 129.828 120.202 129.926 119.906 129.926ZM126.709 140.176C125.864 140.176 125.137 139.985 124.527 139.602C123.921 139.216 123.455 138.684 123.129 138.006C122.804 137.328 122.641 136.551 122.641 135.676C122.641 134.79 122.807 134.008 123.141 133.33C123.474 132.648 123.944 132.116 124.55 131.733C125.156 131.35 125.87 131.159 126.692 131.159C127.355 131.159 127.946 131.282 128.464 131.528C128.983 131.771 129.402 132.112 129.72 132.551C130.042 132.991 130.233 133.504 130.294 134.091H128.641C128.55 133.682 128.341 133.33 128.016 133.034C127.694 132.739 127.262 132.591 126.72 132.591C126.247 132.591 125.832 132.716 125.476 132.966C125.124 133.212 124.849 133.564 124.652 134.023C124.455 134.477 124.357 135.015 124.357 135.636C124.357 136.273 124.453 136.822 124.646 137.284C124.839 137.746 125.112 138.104 125.464 138.358C125.821 138.612 126.239 138.739 126.72 138.739C127.042 138.739 127.334 138.68 127.595 138.562C127.86 138.441 128.082 138.269 128.26 138.045C128.442 137.822 128.569 137.553 128.641 137.239H130.294C130.233 137.803 130.05 138.307 129.743 138.75C129.436 139.193 129.025 139.542 128.51 139.795C127.999 140.049 127.398 140.176 126.709 140.176ZM132.111 140V131.273H133.81V140H132.111ZM132.969 129.926C132.673 129.926 132.42 129.828 132.207 129.631C131.999 129.43 131.895 129.191 131.895 128.915C131.895 128.634 131.999 128.396 132.207 128.199C132.42 127.998 132.673 127.898 132.969 127.898C133.264 127.898 133.516 127.998 133.724 128.199C133.937 128.396 134.043 128.634 134.043 128.915C134.043 129.191 133.937 129.43 133.724 129.631C133.516 129.828 133.264 129.926 132.969 129.926ZM138.635 140.193C138.082 140.193 137.582 140.091 137.135 139.886C136.688 139.678 136.334 139.377 136.072 138.983C135.815 138.589 135.686 138.106 135.686 137.534C135.686 137.042 135.781 136.636 135.97 136.318C136.16 136 136.415 135.748 136.737 135.562C137.059 135.377 137.419 135.237 137.817 135.142C138.214 135.047 138.62 134.975 139.033 134.926C139.555 134.866 139.98 134.816 140.305 134.778C140.631 134.737 140.868 134.67 141.016 134.58C141.163 134.489 141.237 134.341 141.237 134.136V134.097C141.237 133.6 141.097 133.216 140.817 132.943C140.54 132.67 140.127 132.534 139.578 132.534C139.006 132.534 138.555 132.661 138.226 132.915C137.9 133.165 137.675 133.443 137.55 133.75L135.953 133.386C136.143 132.856 136.419 132.428 136.783 132.102C137.15 131.773 137.572 131.534 138.05 131.386C138.527 131.235 139.029 131.159 139.555 131.159C139.904 131.159 140.273 131.201 140.663 131.284C141.057 131.364 141.425 131.511 141.766 131.727C142.11 131.943 142.393 132.252 142.612 132.653C142.832 133.051 142.942 133.568 142.942 134.205V140H141.283V138.807H141.214C141.105 139.027 140.94 139.242 140.72 139.455C140.5 139.667 140.218 139.843 139.874 139.983C139.529 140.123 139.116 140.193 138.635 140.193ZM139.004 138.83C139.474 138.83 139.875 138.737 140.209 138.551C140.546 138.366 140.802 138.123 140.976 137.824C141.154 137.521 141.243 137.197 141.243 136.852V135.727C141.182 135.788 141.065 135.845 140.891 135.898C140.72 135.947 140.525 135.991 140.305 136.028C140.086 136.062 139.872 136.095 139.663 136.125C139.455 136.152 139.281 136.174 139.141 136.193C138.811 136.235 138.51 136.305 138.237 136.403C137.968 136.502 137.752 136.644 137.589 136.83C137.43 137.011 137.351 137.254 137.351 137.557C137.351 137.977 137.506 138.295 137.817 138.511C138.127 138.723 138.523 138.83 139.004 138.83ZM146.903 128.364V140H145.205V128.364H146.903Z" fill="white"/>
<path d="M58.9432 163.148H57.1705C57.1023 162.769 56.9754 162.436 56.7898 162.148C56.6042 161.86 56.3769 161.616 56.108 161.415C55.839 161.214 55.5379 161.062 55.2045 160.96C54.875 160.858 54.5246 160.807 54.1534 160.807C53.483 160.807 52.8826 160.975 52.3523 161.312C51.8258 161.65 51.4091 162.144 51.1023 162.795C50.7992 163.447 50.6477 164.242 50.6477 165.182C50.6477 166.129 50.7992 166.928 51.1023 167.58C51.4091 168.231 51.8277 168.723 52.358 169.057C52.8883 169.39 53.4848 169.557 54.1477 169.557C54.5152 169.557 54.8636 169.508 55.1932 169.409C55.5265 169.307 55.8277 169.157 56.0966 168.96C56.3655 168.763 56.5928 168.523 56.7784 168.239C56.9678 167.951 57.0985 167.621 57.1705 167.25L58.9432 167.256C58.8485 167.828 58.6648 168.354 58.392 168.835C58.1231 169.312 57.7765 169.725 57.3523 170.074C56.9318 170.419 56.4508 170.686 55.9091 170.875C55.3674 171.064 54.7765 171.159 54.1364 171.159C53.1288 171.159 52.2311 170.92 51.4432 170.443C50.6553 169.962 50.0341 169.275 49.5795 168.381C49.1288 167.487 48.9034 166.42 48.9034 165.182C48.9034 163.939 49.1307 162.873 49.5852 161.983C50.0398 161.089 50.661 160.403 51.4489 159.926C52.2367 159.445 53.1326 159.205 54.1364 159.205C54.7538 159.205 55.3295 159.294 55.8636 159.472C56.4015 159.646 56.8845 159.903 57.3125 160.244C57.7405 160.581 58.0947 160.994 58.375 161.483C58.6553 161.968 58.8447 162.523 58.9432 163.148ZM63.4474 171.193C62.8944 171.193 62.3944 171.091 61.9474 170.886C61.5005 170.678 61.1463 170.377 60.8849 169.983C60.6274 169.589 60.4986 169.106 60.4986 168.534C60.4986 168.042 60.5933 167.636 60.7827 167.318C60.9721 167 61.2277 166.748 61.5497 166.562C61.8717 166.377 62.2315 166.237 62.6293 166.142C63.027 166.047 63.4323 165.975 63.8452 165.926C64.3679 165.866 64.7921 165.816 65.1179 165.778C65.4437 165.737 65.6804 165.67 65.8281 165.58C65.9759 165.489 66.0497 165.341 66.0497 165.136V165.097C66.0497 164.6 65.9096 164.216 65.6293 163.943C65.3527 163.67 64.9399 163.534 64.3906 163.534C63.8187 163.534 63.3679 163.661 63.0384 163.915C62.7126 164.165 62.4872 164.443 62.3622 164.75L60.7656 164.386C60.955 163.856 61.2315 163.428 61.5952 163.102C61.9626 162.773 62.3849 162.534 62.8622 162.386C63.3395 162.235 63.8414 162.159 64.3679 162.159C64.7164 162.159 65.0857 162.201 65.4759 162.284C65.8698 162.364 66.2372 162.511 66.5781 162.727C66.9228 162.943 67.205 163.252 67.4247 163.653C67.6444 164.051 67.7543 164.568 67.7543 165.205V171H66.0952V169.807H66.027C65.9171 170.027 65.7524 170.242 65.5327 170.455C65.313 170.667 65.0308 170.843 64.6861 170.983C64.3414 171.123 63.9285 171.193 63.4474 171.193ZM63.8168 169.83C64.2865 169.83 64.688 169.737 65.0213 169.551C65.3584 169.366 65.6141 169.123 65.7884 168.824C65.9664 168.521 66.0554 168.197 66.0554 167.852V166.727C65.9948 166.788 65.8774 166.845 65.7031 166.898C65.5327 166.947 65.3376 166.991 65.1179 167.028C64.8982 167.062 64.6842 167.095 64.4759 167.125C64.2675 167.152 64.0933 167.174 63.9531 167.193C63.6236 167.235 63.3224 167.305 63.0497 167.403C62.7808 167.502 62.5649 167.644 62.402 167.83C62.2429 168.011 62.1634 168.254 62.1634 168.557C62.1634 168.977 62.3187 169.295 62.6293 169.511C62.9399 169.723 63.3357 169.83 63.8168 169.83ZM70.017 171V162.273H71.6591V163.659H71.75C71.9091 163.189 72.1894 162.82 72.5909 162.551C72.9962 162.278 73.4545 162.142 73.9659 162.142C74.072 162.142 74.197 162.146 74.3409 162.153C74.4886 162.161 74.6042 162.17 74.6875 162.182V163.807C74.6193 163.788 74.4981 163.767 74.3239 163.744C74.1496 163.718 73.9754 163.705 73.8011 163.705C73.3996 163.705 73.0417 163.79 72.7273 163.96C72.4167 164.127 72.1705 164.36 71.9886 164.659C71.8068 164.955 71.7159 165.292 71.7159 165.67V171H70.017ZM80.7472 162.273V163.636H75.9801V162.273H80.7472ZM77.2585 160.182H78.9574V168.438C78.9574 168.767 79.0066 169.015 79.1051 169.182C79.2036 169.345 79.3305 169.456 79.4858 169.517C79.6449 169.574 79.8172 169.602 80.0028 169.602C80.1392 169.602 80.2585 169.593 80.3608 169.574C80.4631 169.555 80.5426 169.54 80.5994 169.528L80.9062 170.932C80.8078 170.97 80.6676 171.008 80.4858 171.045C80.304 171.087 80.0767 171.11 79.804 171.114C79.357 171.121 78.9403 171.042 78.554 170.875C78.1676 170.708 77.8551 170.451 77.6165 170.102C77.3778 169.754 77.2585 169.316 77.2585 168.79V160.182ZM86.294 171.176C85.4342 171.176 84.6937 170.992 84.0724 170.625C83.455 170.254 82.9777 169.733 82.6406 169.062C82.3073 168.388 82.1406 167.598 82.1406 166.693C82.1406 165.799 82.3073 165.011 82.6406 164.33C82.9777 163.648 83.4474 163.116 84.0497 162.733C84.6558 162.35 85.3641 162.159 86.1747 162.159C86.6671 162.159 87.1444 162.241 87.6065 162.403C88.0687 162.566 88.4834 162.822 88.8509 163.17C89.2183 163.519 89.508 163.972 89.7202 164.528C89.9323 165.081 90.0384 165.754 90.0384 166.545V167.148H83.1009V165.875H88.3736C88.3736 165.428 88.2827 165.032 88.1009 164.688C87.919 164.339 87.6634 164.064 87.3338 163.864C87.008 163.663 86.6255 163.562 86.1861 163.562C85.7088 163.562 85.2921 163.68 84.9361 163.915C84.5838 164.146 84.3111 164.449 84.1179 164.824C83.9285 165.195 83.8338 165.598 83.8338 166.034V167.028C83.8338 167.612 83.9361 168.108 84.1406 168.517C84.349 168.926 84.6387 169.239 85.0099 169.455C85.3812 169.667 85.8149 169.773 86.3111 169.773C86.633 169.773 86.9266 169.727 87.1918 169.636C87.4569 169.542 87.6861 169.402 87.8793 169.216C88.0724 169.03 88.2202 168.801 88.3224 168.528L89.9304 168.818C89.8016 169.292 89.5705 169.706 89.2372 170.062C88.9077 170.415 88.4929 170.689 87.9929 170.886C87.4967 171.08 86.9304 171.176 86.294 171.176ZM91.9233 171V162.273H93.6222V171H91.9233ZM92.7812 160.926C92.4858 160.926 92.232 160.828 92.0199 160.631C91.8116 160.43 91.7074 160.191 91.7074 159.915C91.7074 159.634 91.8116 159.396 92.0199 159.199C92.232 158.998 92.4858 158.898 92.7812 158.898C93.0767 158.898 93.3286 158.998 93.5369 159.199C93.7491 159.396 93.8551 159.634 93.8551 159.915C93.8551 160.191 93.7491 160.43 93.5369 160.631C93.3286 160.828 93.0767 160.926 92.7812 160.926ZM95.9077 171V162.273H97.5497V163.659H97.6406C97.7997 163.189 98.08 162.82 98.4815 162.551C98.8868 162.278 99.3452 162.142 99.8565 162.142C99.9626 162.142 100.088 162.146 100.232 162.153C100.379 162.161 100.495 162.17 100.578 162.182V163.807C100.51 163.788 100.389 163.767 100.214 163.744C100.04 163.718 99.866 163.705 99.6918 163.705C99.2902 163.705 98.9323 163.79 98.6179 163.96C98.3073 164.127 98.0611 164.36 97.8793 164.659C97.6974 164.955 97.6065 165.292 97.6065 165.67V171H95.9077ZM104.51 171.193C103.957 171.193 103.457 171.091 103.01 170.886C102.563 170.678 102.209 170.377 101.947 169.983C101.69 169.589 101.561 169.106 101.561 168.534C101.561 168.042 101.656 167.636 101.845 167.318C102.035 167 102.29 166.748 102.612 166.562C102.934 166.377 103.294 166.237 103.692 166.142C104.089 166.047 104.495 165.975 104.908 165.926C105.43 165.866 105.855 165.816 106.18 165.778C106.506 165.737 106.743 165.67 106.891 165.58C107.038 165.489 107.112 165.341 107.112 165.136V165.097C107.112 164.6 106.972 164.216 106.692 163.943C106.415 163.67 106.002 163.534 105.453 163.534C104.881 163.534 104.43 163.661 104.101 163.915C103.775 164.165 103.55 164.443 103.425 164.75L101.828 164.386C102.018 163.856 102.294 163.428 102.658 163.102C103.025 162.773 103.447 162.534 103.925 162.386C104.402 162.235 104.904 162.159 105.43 162.159C105.779 162.159 106.148 162.201 106.538 162.284C106.932 162.364 107.3 162.511 107.641 162.727C107.985 162.943 108.268 163.252 108.487 163.653C108.707 164.051 108.817 164.568 108.817 165.205V171H107.158V169.807H107.089C106.98 170.027 106.815 170.242 106.595 170.455C106.375 170.667 106.093 170.843 105.749 170.983C105.404 171.123 104.991 171.193 104.51 171.193ZM104.879 169.83C105.349 169.83 105.75 169.737 106.084 169.551C106.421 169.366 106.677 169.123 106.851 168.824C107.029 168.521 107.118 168.197 107.118 167.852V166.727C107.057 166.788 106.94 166.845 106.766 166.898C106.595 166.947 106.4 166.991 106.18 167.028C105.961 167.062 105.747 167.095 105.538 167.125C105.33 167.152 105.156 167.174 105.016 167.193C104.686 167.235 104.385 167.305 104.112 167.403C103.843 167.502 103.627 167.644 103.464 167.83C103.305 168.011 103.226 168.254 103.226 168.557C103.226 168.977 103.381 169.295 103.692 169.511C104.002 169.723 104.398 169.83 104.879 169.83Z" fill="white" fill-opacity="0.82"/>
<path d="M49.2784 190.364H51.4091L55.1136 199.409H55.25L58.9545 190.364H61.0852V202H59.4148V193.58H59.3068L55.875 201.983H54.4886L51.0568 193.574H50.9489V202H49.2784V190.364ZM67.2628 202.176C66.4029 202.176 65.6624 201.992 65.0412 201.625C64.4238 201.254 63.9465 200.733 63.6094 200.062C63.276 199.388 63.1094 198.598 63.1094 197.693C63.1094 196.799 63.276 196.011 63.6094 195.33C63.9465 194.648 64.4162 194.116 65.0185 193.733C65.6245 193.35 66.3329 193.159 67.1435 193.159C67.6359 193.159 68.1132 193.241 68.5753 193.403C69.0374 193.566 69.4522 193.822 69.8196 194.17C70.187 194.519 70.4768 194.972 70.6889 195.528C70.901 196.081 71.0071 196.754 71.0071 197.545V198.148H64.0696V196.875H69.3423C69.3423 196.428 69.2514 196.032 69.0696 195.688C68.8878 195.339 68.6321 195.064 68.3026 194.864C67.9768 194.663 67.5942 194.562 67.1548 194.562C66.6776 194.562 66.2609 194.68 65.9048 194.915C65.5526 195.146 65.2798 195.449 65.0866 195.824C64.8973 196.195 64.8026 196.598 64.8026 197.034V198.028C64.8026 198.612 64.9048 199.108 65.1094 199.517C65.3177 199.926 65.6075 200.239 65.9787 200.455C66.3499 200.667 66.7836 200.773 67.2798 200.773C67.6018 200.773 67.8954 200.727 68.1605 200.636C68.4257 200.542 68.6548 200.402 68.848 200.216C69.0412 200.03 69.1889 199.801 69.2912 199.528L70.8991 199.818C70.7704 200.292 70.5393 200.706 70.206 201.062C69.8764 201.415 69.4616 201.689 68.9616 201.886C68.4654 202.08 67.8991 202.176 67.2628 202.176ZM78.4205 198.381V193.273H80.125V202H78.4545V200.489H78.3636C78.1629 200.955 77.8409 201.343 77.3977 201.653C76.9583 201.96 76.411 202.114 75.7557 202.114C75.1951 202.114 74.6989 201.991 74.267 201.744C73.839 201.494 73.5019 201.125 73.2557 200.636C73.0133 200.148 72.892 199.544 72.892 198.824V193.273H74.5909V198.619C74.5909 199.214 74.7557 199.687 75.0852 200.04C75.4148 200.392 75.8428 200.568 76.3693 200.568C76.6875 200.568 77.0038 200.489 77.3182 200.33C77.6364 200.17 77.8996 199.93 78.108 199.608C78.3201 199.286 78.4242 198.877 78.4205 198.381ZM88.9474 195.403L87.4077 195.676C87.3433 195.479 87.241 195.292 87.1009 195.114C86.9645 194.936 86.7789 194.79 86.544 194.676C86.3092 194.562 86.0156 194.506 85.6634 194.506C85.1823 194.506 84.7808 194.614 84.4588 194.83C84.1368 195.042 83.9759 195.316 83.9759 195.653C83.9759 195.945 84.0838 196.18 84.2997 196.358C84.5156 196.536 84.8641 196.682 85.3452 196.795L86.7315 197.114C87.5346 197.299 88.133 197.585 88.527 197.972C88.9209 198.358 89.1179 198.86 89.1179 199.477C89.1179 200 88.9664 200.466 88.6634 200.875C88.3641 201.28 87.9455 201.598 87.4077 201.83C86.8736 202.061 86.2543 202.176 85.5497 202.176C84.5724 202.176 83.7751 201.968 83.1577 201.551C82.5402 201.131 82.1615 200.534 82.0213 199.761L83.6634 199.511C83.7656 199.939 83.9759 200.263 84.294 200.483C84.6122 200.699 85.027 200.807 85.5384 200.807C86.0952 200.807 86.5402 200.691 86.8736 200.46C87.2069 200.225 87.3736 199.939 87.3736 199.602C87.3736 199.33 87.2713 199.1 87.0668 198.915C86.866 198.729 86.5573 198.589 86.1406 198.494L84.6634 198.17C83.849 197.985 83.2467 197.689 82.8565 197.284C82.4702 196.879 82.277 196.366 82.277 195.744C82.277 195.229 82.4209 194.778 82.7088 194.392C82.9967 194.006 83.3944 193.705 83.902 193.489C84.4096 193.269 84.991 193.159 85.6463 193.159C86.5895 193.159 87.3319 193.364 87.8736 193.773C88.4152 194.178 88.7732 194.722 88.9474 195.403ZM95.2202 205.273V193.273H96.8793V194.688H97.0213C97.1198 194.506 97.2618 194.295 97.4474 194.057C97.633 193.818 97.8906 193.61 98.2202 193.432C98.5497 193.25 98.9853 193.159 99.527 193.159C100.232 193.159 100.86 193.337 101.413 193.693C101.966 194.049 102.4 194.562 102.714 195.233C103.033 195.903 103.192 196.71 103.192 197.653C103.192 198.597 103.035 199.405 102.72 200.08C102.406 200.75 101.974 201.267 101.425 201.631C100.875 201.991 100.249 202.17 99.544 202.17C99.0137 202.17 98.58 202.081 98.2429 201.903C97.9096 201.725 97.6482 201.517 97.4588 201.278C97.2694 201.04 97.1236 200.828 97.0213 200.642H96.919V205.273H95.2202ZM96.8849 197.636C96.8849 198.25 96.974 198.788 97.152 199.25C97.33 199.712 97.5876 200.074 97.9247 200.335C98.2618 200.593 98.6747 200.722 99.1634 200.722C99.6709 200.722 100.095 200.587 100.436 200.318C100.777 200.045 101.035 199.676 101.209 199.21C101.387 198.744 101.476 198.22 101.476 197.636C101.476 197.061 101.389 196.544 101.214 196.085C101.044 195.627 100.786 195.265 100.442 195C100.101 194.735 99.6747 194.602 99.1634 194.602C98.6709 194.602 98.2543 194.729 97.9134 194.983C97.5762 195.237 97.3205 195.591 97.1463 196.045C96.9721 196.5 96.8849 197.03 96.8849 197.636ZM105.095 202V193.273H106.737V194.659H106.828C106.987 194.189 107.268 193.82 107.669 193.551C108.074 193.278 108.533 193.142 109.044 193.142C109.15 193.142 109.275 193.146 109.419 193.153C109.567 193.161 109.682 193.17 109.766 193.182V194.807C109.697 194.788 109.576 194.767 109.402 194.744C109.228 194.718 109.054 194.705 108.879 194.705C108.478 194.705 108.12 194.79 107.805 194.96C107.495 195.127 107.249 195.36 107.067 195.659C106.885 195.955 106.794 196.292 106.794 196.67V202H105.095ZM114.599 202.176C113.781 202.176 113.067 201.989 112.457 201.614C111.848 201.239 111.374 200.714 111.037 200.04C110.7 199.366 110.531 198.578 110.531 197.676C110.531 196.771 110.7 195.979 111.037 195.301C111.374 194.623 111.848 194.097 112.457 193.722C113.067 193.347 113.781 193.159 114.599 193.159C115.418 193.159 116.132 193.347 116.741 193.722C117.351 194.097 117.825 194.623 118.162 195.301C118.499 195.979 118.668 196.771 118.668 197.676C118.668 198.578 118.499 199.366 118.162 200.04C117.825 200.714 117.351 201.239 116.741 201.614C116.132 201.989 115.418 202.176 114.599 202.176ZM114.605 200.75C115.135 200.75 115.575 200.61 115.923 200.33C116.272 200.049 116.529 199.676 116.696 199.21C116.866 198.744 116.952 198.231 116.952 197.67C116.952 197.114 116.866 196.602 116.696 196.136C116.529 195.667 116.272 195.29 115.923 195.006C115.575 194.722 115.135 194.58 114.605 194.58C114.071 194.58 113.628 194.722 113.276 195.006C112.927 195.29 112.668 195.667 112.497 196.136C112.33 196.602 112.247 197.114 112.247 197.67C112.247 198.231 112.33 198.744 112.497 199.21C112.668 199.676 112.927 200.049 113.276 200.33C113.628 200.61 114.071 200.75 114.605 200.75ZM120.564 193.273H122.263V202.568C122.263 203.152 122.157 203.644 121.945 204.045C121.736 204.447 121.426 204.752 121.013 204.96C120.604 205.169 120.098 205.273 119.496 205.273C119.435 205.273 119.378 205.273 119.325 205.273C119.268 205.273 119.21 205.271 119.149 205.267V203.807C119.202 203.807 119.25 203.807 119.291 203.807C119.329 203.807 119.373 203.807 119.422 203.807C119.823 203.807 120.113 203.699 120.291 203.483C120.473 203.271 120.564 202.962 120.564 202.557V193.273ZM121.405 191.926C121.109 191.926 120.856 191.828 120.643 191.631C120.435 191.43 120.331 191.191 120.331 190.915C120.331 190.634 120.435 190.396 120.643 190.199C120.856 189.998 121.109 189.898 121.405 189.898C121.7 189.898 121.952 189.998 122.161 190.199C122.373 190.396 122.479 190.634 122.479 190.915C122.479 191.191 122.373 191.43 122.161 191.631C121.952 191.828 121.7 191.926 121.405 191.926ZM128.31 202.176C127.45 202.176 126.709 201.992 126.088 201.625C125.471 201.254 124.993 200.733 124.656 200.062C124.323 199.388 124.156 198.598 124.156 197.693C124.156 196.799 124.323 196.011 124.656 195.33C124.993 194.648 125.463 194.116 126.065 193.733C126.671 193.35 127.38 193.159 128.19 193.159C128.683 193.159 129.16 193.241 129.622 193.403C130.084 193.566 130.499 193.822 130.866 194.17C131.234 194.519 131.524 194.972 131.736 195.528C131.948 196.081 132.054 196.754 132.054 197.545V198.148H125.116V196.875H130.389C130.389 196.428 130.298 196.032 130.116 195.688C129.935 195.339 129.679 195.064 129.349 194.864C129.024 194.663 128.641 194.562 128.202 194.562C127.724 194.562 127.308 194.68 126.952 194.915C126.599 195.146 126.327 195.449 126.134 195.824C125.944 196.195 125.849 196.598 125.849 197.034V198.028C125.849 198.612 125.952 199.108 126.156 199.517C126.365 199.926 126.654 200.239 127.026 200.455C127.397 200.667 127.83 200.773 128.327 200.773C128.649 200.773 128.942 200.727 129.207 200.636C129.473 200.542 129.702 200.402 129.895 200.216C130.088 200.03 130.236 199.801 130.338 199.528L131.946 199.818C131.817 200.292 131.586 200.706 131.253 201.062C130.923 201.415 130.509 201.689 130.009 201.886C129.512 202.08 128.946 202.176 128.31 202.176ZM138.013 193.273V194.636H133.246V193.273H138.013ZM134.524 191.182H136.223V199.438C136.223 199.767 136.272 200.015 136.371 200.182C136.469 200.345 136.596 200.456 136.751 200.517C136.911 200.574 137.083 200.602 137.268 200.602C137.405 200.602 137.524 200.593 137.626 200.574C137.729 200.555 137.808 200.54 137.865 200.528L138.172 201.932C138.073 201.97 137.933 202.008 137.751 202.045C137.57 202.087 137.342 202.11 137.07 202.114C136.623 202.121 136.206 202.042 135.82 201.875C135.433 201.708 135.121 201.451 134.882 201.102C134.643 200.754 134.524 200.316 134.524 199.79V191.182ZM143.474 202.176C142.656 202.176 141.942 201.989 141.332 201.614C140.723 201.239 140.249 200.714 139.912 200.04C139.575 199.366 139.406 198.578 139.406 197.676C139.406 196.771 139.575 195.979 139.912 195.301C140.249 194.623 140.723 194.097 141.332 193.722C141.942 193.347 142.656 193.159 143.474 193.159C144.293 193.159 145.007 193.347 145.616 193.722C146.226 194.097 146.7 194.623 147.037 195.301C147.374 195.979 147.543 196.771 147.543 197.676C147.543 198.578 147.374 199.366 147.037 200.04C146.7 200.714 146.226 201.239 145.616 201.614C145.007 201.989 144.293 202.176 143.474 202.176ZM143.48 200.75C144.01 200.75 144.45 200.61 144.798 200.33C145.147 200.049 145.404 199.676 145.571 199.21C145.741 198.744 145.827 198.231 145.827 197.67C145.827 197.114 145.741 196.602 145.571 196.136C145.404 195.667 145.147 195.29 144.798 195.006C144.45 194.722 144.01 194.58 143.48 194.58C142.946 194.58 142.503 194.722 142.151 195.006C141.802 195.29 141.543 195.667 141.372 196.136C141.205 196.602 141.122 197.114 141.122 197.67C141.122 198.231 141.205 198.744 141.372 199.21C141.543 199.676 141.802 200.049 142.151 200.33C142.503 200.61 142.946 200.75 143.48 200.75ZM155.979 195.403L154.439 195.676C154.375 195.479 154.272 195.292 154.132 195.114C153.996 194.936 153.81 194.79 153.575 194.676C153.34 194.562 153.047 194.506 152.695 194.506C152.214 194.506 151.812 194.614 151.49 194.83C151.168 195.042 151.007 195.316 151.007 195.653C151.007 195.945 151.115 196.18 151.331 196.358C151.547 196.536 151.895 196.682 152.376 196.795L153.763 197.114C154.566 197.299 155.164 197.585 155.558 197.972C155.952 198.358 156.149 198.86 156.149 199.477C156.149 200 155.998 200.466 155.695 200.875C155.395 201.28 154.977 201.598 154.439 201.83C153.905 202.061 153.286 202.176 152.581 202.176C151.604 202.176 150.806 201.968 150.189 201.551C149.571 201.131 149.193 200.534 149.053 199.761L150.695 199.511C150.797 199.939 151.007 200.263 151.325 200.483C151.643 200.699 152.058 200.807 152.57 200.807C153.126 200.807 153.571 200.691 153.905 200.46C154.238 200.225 154.405 199.939 154.405 199.602C154.405 199.33 154.303 199.1 154.098 198.915C153.897 198.729 153.589 198.589 153.172 198.494L151.695 198.17C150.88 197.985 150.278 197.689 149.888 197.284C149.501 196.879 149.308 196.366 149.308 195.744C149.308 195.229 149.452 194.778 149.74 194.392C150.028 194.006 150.426 193.705 150.933 193.489C151.441 193.269 152.022 193.159 152.678 193.159C153.621 193.159 154.363 193.364 154.905 193.773C155.446 194.178 155.804 194.722 155.979 195.403Z" fill="white" fill-opacity="0.65"/>
<path d="M49.2784 233V221.364H51.0341V226.42H56.8352V221.364H58.5966V233H56.8352V227.926H51.0341V233H49.2784ZM61.017 233V224.273H62.7159V233H61.017ZM61.875 222.926C61.5795 222.926 61.3258 222.828 61.1136 222.631C60.9053 222.43 60.8011 222.191 60.8011 221.915C60.8011 221.634 60.9053 221.396 61.1136 221.199C61.3258 220.998 61.5795 220.898 61.875 220.898C62.1705 220.898 62.4223 220.998 62.6307 221.199C62.8428 221.396 62.9489 221.634 62.9489 221.915C62.9489 222.191 62.8428 222.43 62.6307 222.631C62.4223 222.828 62.1705 222.926 61.875 222.926ZM71.5412 226.403L70.0014 226.676C69.937 226.479 69.8348 226.292 69.6946 226.114C69.5582 225.936 69.3726 225.79 69.1378 225.676C68.9029 225.562 68.6094 225.506 68.2571 225.506C67.776 225.506 67.3745 225.614 67.0526 225.83C66.7306 226.042 66.5696 226.316 66.5696 226.653C66.5696 226.945 66.6776 227.18 66.8935 227.358C67.1094 227.536 67.4579 227.682 67.9389 227.795L69.3253 228.114C70.1283 228.299 70.7268 228.585 71.1207 228.972C71.5147 229.358 71.7116 229.86 71.7116 230.477C71.7116 231 71.5601 231.466 71.2571 231.875C70.9579 232.28 70.5393 232.598 70.0014 232.83C69.4673 233.061 68.848 233.176 68.1435 233.176C67.1662 233.176 66.3688 232.968 65.7514 232.551C65.134 232.131 64.7552 231.534 64.6151 230.761L66.2571 230.511C66.3594 230.939 66.5696 231.263 66.8878 231.483C67.206 231.699 67.6207 231.807 68.1321 231.807C68.6889 231.807 69.134 231.691 69.4673 231.46C69.8007 231.225 69.9673 230.939 69.9673 230.602C69.9673 230.33 69.8651 230.1 69.6605 229.915C69.4598 229.729 69.151 229.589 68.7344 229.494L67.2571 229.17C66.4427 228.985 65.8404 228.689 65.4503 228.284C65.0639 227.879 64.8707 227.366 64.8707 226.744C64.8707 226.229 65.0147 225.778 65.3026 225.392C65.5904 225.006 65.9882 224.705 66.4957 224.489C67.0033 224.269 67.5848 224.159 68.2401 224.159C69.1832 224.159 69.9257 224.364 70.4673 224.773C71.009 225.178 71.367 225.722 71.5412 226.403ZM77.6534 224.273V225.636H72.8864V224.273H77.6534ZM74.1648 222.182H75.8636V230.438C75.8636 230.767 75.9129 231.015 76.0114 231.182C76.1098 231.345 76.2367 231.456 76.392 231.517C76.5511 231.574 76.7235 231.602 76.9091 231.602C77.0455 231.602 77.1648 231.593 77.267 231.574C77.3693 231.555 77.4489 231.54 77.5057 231.528L77.8125 232.932C77.714 232.97 77.5739 233.008 77.392 233.045C77.2102 233.087 76.983 233.11 76.7102 233.114C76.2633 233.121 75.8466 233.042 75.4602 232.875C75.0739 232.708 74.7614 232.451 74.5227 232.102C74.2841 231.754 74.1648 231.316 74.1648 230.79V222.182ZM83.1151 233.176C82.2969 233.176 81.5829 232.989 80.973 232.614C80.3632 232.239 79.8897 231.714 79.5526 231.04C79.2154 230.366 79.0469 229.578 79.0469 228.676C79.0469 227.771 79.2154 226.979 79.5526 226.301C79.8897 225.623 80.3632 225.097 80.973 224.722C81.5829 224.347 82.2969 224.159 83.1151 224.159C83.9332 224.159 84.6473 224.347 85.2571 224.722C85.867 225.097 86.3404 225.623 86.6776 226.301C87.0147 226.979 87.1832 227.771 87.1832 228.676C87.1832 229.578 87.0147 230.366 86.6776 231.04C86.3404 231.714 85.867 232.239 85.2571 232.614C84.6473 232.989 83.9332 233.176 83.1151 233.176ZM83.1207 231.75C83.651 231.75 84.0904 231.61 84.4389 231.33C84.7874 231.049 85.045 230.676 85.2116 230.21C85.3821 229.744 85.4673 229.231 85.4673 228.67C85.4673 228.114 85.3821 227.602 85.2116 227.136C85.045 226.667 84.7874 226.29 84.4389 226.006C84.0904 225.722 83.651 225.58 83.1207 225.58C82.5866 225.58 82.1435 225.722 81.7912 226.006C81.4427 226.29 81.1832 226.667 81.0128 227.136C80.8461 227.602 80.7628 228.114 80.7628 228.67C80.7628 229.231 80.8461 229.744 81.0128 230.21C81.1832 230.676 81.4427 231.049 81.7912 231.33C82.1435 231.61 82.5866 231.75 83.1207 231.75ZM82.4162 223.108L83.7457 220.489H85.5355L83.7741 223.108H82.4162ZM89.0795 233V224.273H90.7216V225.659H90.8125C90.9716 225.189 91.2519 224.82 91.6534 224.551C92.0587 224.278 92.517 224.142 93.0284 224.142C93.1345 224.142 93.2595 224.146 93.4034 224.153C93.5511 224.161 93.6667 224.17 93.75 224.182V225.807C93.6818 225.788 93.5606 225.767 93.3864 225.744C93.2121 225.718 93.0379 225.705 92.8636 225.705C92.4621 225.705 92.1042 225.79 91.7898 225.96C91.4792 226.127 91.233 226.36 91.0511 226.659C90.8693 226.955 90.7784 227.292 90.7784 227.67V233H89.0795ZM95.2202 233V224.273H96.919V233H95.2202ZM96.0781 222.926C95.7827 222.926 95.5289 222.828 95.3168 222.631C95.1084 222.43 95.0043 222.191 95.0043 221.915C95.0043 221.634 95.1084 221.396 95.3168 221.199C95.5289 220.998 95.7827 220.898 96.0781 220.898C96.3736 220.898 96.6255 220.998 96.8338 221.199C97.0459 221.396 97.152 221.634 97.152 221.915C97.152 222.191 97.0459 222.43 96.8338 222.631C96.6255 222.828 96.3736 222.926 96.0781 222.926ZM102.881 233.176C102.036 233.176 101.309 232.985 100.699 232.602C100.093 232.216 99.6269 231.684 99.3011 231.006C98.9754 230.328 98.8125 229.551 98.8125 228.676C98.8125 227.79 98.9792 227.008 99.3125 226.33C99.6458 225.648 100.116 225.116 100.722 224.733C101.328 224.35 102.042 224.159 102.864 224.159C103.527 224.159 104.117 224.282 104.636 224.528C105.155 224.771 105.574 225.112 105.892 225.551C106.214 225.991 106.405 226.504 106.466 227.091H104.812C104.722 226.682 104.513 226.33 104.188 226.034C103.866 225.739 103.434 225.591 102.892 225.591C102.419 225.591 102.004 225.716 101.648 225.966C101.295 226.212 101.021 226.564 100.824 227.023C100.627 227.477 100.528 228.015 100.528 228.636C100.528 229.273 100.625 229.822 100.818 230.284C101.011 230.746 101.284 231.104 101.636 231.358C101.992 231.612 102.411 231.739 102.892 231.739C103.214 231.739 103.506 231.68 103.767 231.562C104.032 231.441 104.254 231.269 104.432 231.045C104.614 230.822 104.741 230.553 104.812 230.239H106.466C106.405 230.803 106.222 231.307 105.915 231.75C105.608 232.193 105.197 232.542 104.682 232.795C104.17 233.049 103.57 233.176 102.881 233.176ZM111.959 233.176C111.141 233.176 110.427 232.989 109.817 232.614C109.207 232.239 108.733 231.714 108.396 231.04C108.059 230.366 107.891 229.578 107.891 228.676C107.891 227.771 108.059 226.979 108.396 226.301C108.733 225.623 109.207 225.097 109.817 224.722C110.427 224.347 111.141 224.159 111.959 224.159C112.777 224.159 113.491 224.347 114.101 224.722C114.711 225.097 115.184 225.623 115.521 226.301C115.858 226.979 116.027 227.771 116.027 228.676C116.027 229.578 115.858 230.366 115.521 231.04C115.184 231.714 114.711 232.239 114.101 232.614C113.491 232.989 112.777 233.176 111.959 233.176ZM111.964 231.75C112.495 231.75 112.934 231.61 113.283 231.33C113.631 231.049 113.889 230.676 114.055 230.21C114.226 229.744 114.311 229.231 114.311 228.67C114.311 228.114 114.226 227.602 114.055 227.136C113.889 226.667 113.631 226.29 113.283 226.006C112.934 225.722 112.495 225.58 111.964 225.58C111.43 225.58 110.987 225.722 110.635 226.006C110.286 226.29 110.027 226.667 109.857 227.136C109.69 227.602 109.607 228.114 109.607 228.67C109.607 229.231 109.69 229.744 109.857 230.21C110.027 230.676 110.286 231.049 110.635 231.33C110.987 231.61 111.43 231.75 111.964 231.75Z" fill="white" fill-opacity="0.46"/>
<defs>
<filter id="filter0_b_508_7" x="-47" y="-47" width="1234" height="535" filterUnits="userSpaceOnUse" color-interpolation-filters="sRGB">
<feFlood flood-opacity="0" result="BackgroundImageFix"/>
<feGaussianBlur in="BackgroundImageFix" stdDeviation="23.5"/>
<feComposite in2="SourceAlpha" operator="in" result="effect1_backgroundBlur_508_7"/>
<feBlend mode="normal" in="SourceGraphic" in2="effect1_backgroundBlur_508_7" result="shape"/>
</filter>
<filter id="filter1_b_508_7" x="286" y="-4" width="334" height="207" filterUnits="userSpaceOnUse" color-interpolation-filters="sRGB">
<feFlood flood-opacity="0" result="BackgroundImageFix"/>
<feGaussianBlur in="BackgroundImageFix" stdDeviation="23.5"/>
<feComposite in2="SourceAlpha" operator="in" result="effect1_backgroundBlur_508_7"/>
<feBlend mode="normal" in="SourceGraphic" in2="effect1_backgroundBlur_508_7" result="shape"/>
</filter>
<filter id="filter2_b_508_7" x="286" y="123" width="854" height="342" filterUnits="userSpaceOnUse" color-interpolation-filters="sRGB">
<feFlood flood-opacity="0" result="BackgroundImageFix"/>
<feGaussianBlur in="BackgroundImageFix" stdDeviation="23.5"/>
<feComposite in2="SourceAlpha" operator="in" result="effect1_backgroundBlur_508_7"/>
<feBlend mode="normal" in="SourceGraphic" in2="effect1_backgroundBlur_508_7" result="shape"/>
</filter>
<filter id="filter3_b_508_7" x="546" y="-4" width="334" height="207" filterUnits="userSpaceOnUse" color-interpolation-filters="sRGB">
<feFlood flood-opacity="0" result="BackgroundImageFix"/>
<feGaussianBlur in="BackgroundImageFix" stdDeviation="23.5"/>
<feComposite in2="SourceAlpha" operator="in" result="effect1_backgroundBlur_508_7"/>
<feBlend mode="normal" in="SourceGraphic" in2="effect1_backgroundBlur_508_7" result="shape"/>
</filter>
<filter id="filter4_b_508_7" x="806" y="-4" width="334" height="207" filterUnits="userSpaceOnUse" color-interpolation-filters="sRGB">
<feFlood flood-opacity="0" result="BackgroundImageFix"/>
<feGaussianBlur in="BackgroundImageFix" stdDeviation="23.5"/>
<feComposite in2="SourceAlpha" operator="in" result="effect1_backgroundBlur_508_7"/>
<feBlend mode="normal" in="SourceGraphic" in2="effect1_backgroundBlur_508_7" result="shape"/>
</filter>
<linearGradient id="paint0_linear_508_7" x1="570" y1="0" x2="570" y2="424.005" gradientUnits="userSpaceOnUse">
<stop stop-color="#155339"/>
<stop offset="1" stop-color="#155339" stop-opacity="0"/>
</linearGradient>
<linearGradient id="paint1_linear_508_7" x1="570" y1="0" x2="570" y2="426.184" gradientUnits="userSpaceOnUse">
<stop stop-color="#BDFFDF"/>
<stop offset="1" stop-color="#BDFFDF" stop-opacity="0"/>
</linearGradient>
<linearGradient id="paint2_linear_508_7" x1="453" y1="43" x2="453" y2="152.204" gradientUnits="userSpaceOnUse">
<stop stop-color="#BDFFDF"/>
<stop offset="1" stop-color="#BDFFDF" stop-opacity="0"/>
</linearGradient>
<linearGradient id="paint3_linear_508_7" x1="713" y1="170" x2="713" y2="418" gradientUnits="userSpaceOnUse">
<stop stop-color="#155339"/>
<stop offset="1" stop-color="#155339" stop-opacity="0"/>
</linearGradient>
<linearGradient id="paint4_linear_508_7" x1="713" y1="170" x2="713" y2="409.668" gradientUnits="userSpaceOnUse">
<stop stop-color="#BDFFDF"/>
<stop offset="1" stop-color="#BDFFDF" stop-opacity="0"/>
</linearGradient>
<linearGradient id="paint5_linear_508_7" x1="713" y1="43" x2="713" y2="152.204" gradientUnits="userSpaceOnUse">
<stop stop-color="#BDFFDF"/>
<stop offset="1" stop-color="#BDFFDF" stop-opacity="0"/>
</linearGradient>
<linearGradient id="paint6_linear_508_7" x1="973" y1="43" x2="973" y2="152.204" gradientUnits="userSpaceOnUse">
<stop stop-color="#BDFFDF"/>
<stop offset="1" stop-color="#BDFFDF" stop-opacity="0"/>
</linearGradient>
<linearGradient id="paint7_linear_508_7" x1="317.495" y1="22.3382" x2="323.513" y2="370.715" gradientUnits="userSpaceOnUse">
<stop stop-color="#BDFFDF"/>
<stop offset="1" stop-color="#BDFFDF" stop-opacity="0"/>
</linearGradient>
<clipPath id="clip0_508_7">
<rect width="19.2566" height="19.2566" fill="white" transform="translate(369 65)"/>
</clipPath>
<clipPath id="clip1_508_7">
<rect width="19.2566" height="19.2566" fill="white" transform="translate(619 65)"/>
</clipPath>
<clipPath id="clip2_508_7">
<rect width="19.2566" height="19.2566" fill="white" transform="translate(879 65)"/>
</clipPath>
</defs>
</svg>
