<svg width="371" height="244" viewBox="0 0 371 244" fill="none" xmlns="http://www.w3.org/2000/svg">
<g filter="url(#filter0_b_521_49)">
<rect width="371" height="244" rx="50" fill="url(#paint0_linear_521_49)" fill-opacity="0.1"/>
<rect x="0.5" y="0.5" width="370" height="243" rx="49.5" stroke="url(#paint1_linear_521_49)" stroke-opacity="0.13"/>
</g>
<g clip-path="url(#clip0_521_49)">
<path d="M66.9998 65.3333C59.6358 65.3333 53.6665 59.364 53.6665 52C53.6665 44.636 59.6358 38.6667 66.9998 38.6667C74.3638 38.6667 80.3332 44.636 80.3332 52C80.3332 59.364 74.3638 65.3333 66.9998 65.3333ZM66.9998 62.6667C69.8288 62.6667 72.5419 61.5429 74.5423 59.5425C76.5427 57.5421 77.6665 54.829 77.6665 52C77.6665 49.171 76.5427 46.4579 74.5423 44.4575C72.5419 42.4571 69.8288 41.3333 66.9998 41.3333C64.1709 41.3333 61.4578 42.4571 59.4574 44.4575C57.457 46.4579 56.3332 49.171 56.3332 52C56.3332 54.829 57.457 57.5421 59.4574 59.5425C61.4578 61.5429 64.1709 62.6667 66.9998 62.6667ZM66.9998 45.4L73.5998 52L66.9998 58.6L60.3998 52L66.9998 45.4ZM66.9998 49.172L64.1718 52L66.9998 54.828L69.8278 52L66.9998 49.172Z" fill="white"/>
</g>
<path d="M110.531 48.2756C110.455 47.6032 110.143 47.0824 109.594 46.7131C109.045 46.339 108.353 46.152 107.52 46.152C106.923 46.152 106.407 46.2467 105.972 46.4361C105.536 46.6207 105.197 46.8764 104.956 47.2031C104.719 47.5251 104.601 47.892 104.601 48.304C104.601 48.6496 104.681 48.9479 104.842 49.1989C105.008 49.4498 105.223 49.6605 105.489 49.831C105.759 49.9967 106.047 50.1364 106.355 50.25C106.663 50.3589 106.959 50.4489 107.243 50.5199L108.663 50.8892C109.127 51.0028 109.603 51.1567 110.091 51.3509C110.579 51.545 111.031 51.8007 111.447 52.1179C111.864 52.4351 112.2 52.8281 112.456 53.2969C112.716 53.7656 112.847 54.3267 112.847 54.9801C112.847 55.804 112.634 56.5355 112.207 57.1747C111.786 57.8139 111.173 58.3182 110.368 58.6875C109.568 59.0568 108.599 59.2415 107.463 59.2415C106.374 59.2415 105.432 59.0687 104.636 58.723C103.841 58.3774 103.218 57.8873 102.768 57.2528C102.319 56.6136 102.07 55.8561 102.023 54.9801H104.224C104.267 55.5057 104.438 55.9437 104.736 56.294C105.039 56.6397 105.425 56.8977 105.893 57.0682C106.367 57.2339 106.885 57.3168 107.449 57.3168C108.069 57.3168 108.621 57.2197 109.104 57.0256C109.591 56.8267 109.975 56.5521 110.254 56.2017C110.534 55.8466 110.673 55.4323 110.673 54.9588C110.673 54.5279 110.55 54.1752 110.304 53.9006C110.063 53.6259 109.733 53.3987 109.317 53.2188C108.905 53.0388 108.438 52.8802 107.918 52.7429L106.199 52.2741C105.034 51.9569 104.111 51.4905 103.429 50.875C102.752 50.2595 102.413 49.4451 102.413 48.4318C102.413 47.5937 102.641 46.8622 103.095 46.2372C103.55 45.6122 104.165 45.1269 104.942 44.7812C105.718 44.4309 106.594 44.2557 107.57 44.2557C108.554 44.2557 109.423 44.4285 110.176 44.7741C110.934 45.1198 111.53 45.5956 111.966 46.2017C112.402 46.803 112.629 47.4943 112.648 48.2756H110.531ZM118.473 59.2415C117.782 59.2415 117.157 59.1136 116.598 58.858C116.04 58.5975 115.597 58.2211 115.27 57.7287C114.948 57.2363 114.787 56.6326 114.787 55.9176C114.787 55.3021 114.906 54.7955 115.142 54.3977C115.379 54 115.699 53.6851 116.101 53.4531C116.504 53.2211 116.953 53.0459 117.451 52.9276C117.948 52.8092 118.454 52.7192 118.971 52.6577C119.624 52.5819 120.154 52.5204 120.561 52.473C120.969 52.4209 121.265 52.3381 121.449 52.2244C121.634 52.1108 121.726 51.9261 121.726 51.6705V51.6207C121.726 51.0005 121.551 50.5199 121.201 50.179C120.855 49.8381 120.339 49.6676 119.652 49.6676C118.937 49.6676 118.374 49.8262 117.962 50.1435C117.555 50.456 117.273 50.804 117.117 51.1875L115.121 50.733C115.358 50.0701 115.703 49.535 116.158 49.1278C116.617 48.7159 117.145 48.4176 117.742 48.233C118.338 48.0436 118.966 47.9489 119.624 47.9489C120.06 47.9489 120.521 48.0009 121.009 48.1051C121.501 48.2045 121.961 48.3892 122.387 48.6591C122.818 48.929 123.17 49.3149 123.445 49.8168C123.72 50.3139 123.857 50.9602 123.857 51.7557V59H121.783V57.5085H121.698C121.56 57.7831 121.355 58.053 121.08 58.3182C120.805 58.5833 120.453 58.8035 120.022 58.9787C119.591 59.1539 119.075 59.2415 118.473 59.2415ZM118.935 57.5369C119.522 57.5369 120.024 57.4209 120.441 57.1889C120.862 56.9569 121.182 56.6539 121.4 56.2798C121.622 55.901 121.733 55.4962 121.733 55.0653V53.6591C121.658 53.7348 121.511 53.8059 121.293 53.8722C121.08 53.9337 120.836 53.9882 120.561 54.0355C120.287 54.0781 120.019 54.1184 119.759 54.1562C119.498 54.1894 119.281 54.2178 119.105 54.2415C118.694 54.2936 118.317 54.3812 117.976 54.5043C117.64 54.6274 117.37 54.8049 117.167 55.0369C116.968 55.2642 116.868 55.5672 116.868 55.946C116.868 56.4716 117.062 56.8693 117.451 57.1392C117.839 57.4044 118.334 57.5369 118.935 57.5369ZM128.809 44.4545V59H126.685V44.4545H128.809ZM135.75 59.2131C134.869 59.2131 134.083 58.9882 133.392 58.5384C132.705 58.0838 132.165 57.4375 131.772 56.5994C131.384 55.7566 131.19 54.7457 131.19 53.5668C131.19 52.3878 131.386 51.3793 131.779 50.5412C132.177 49.7031 132.722 49.0616 133.413 48.6165C134.104 48.1714 134.888 47.9489 135.764 47.9489C136.441 47.9489 136.985 48.0625 137.397 48.2898C137.814 48.5123 138.136 48.7727 138.363 49.071C138.595 49.3693 138.775 49.6321 138.903 49.8594H139.031V44.4545H141.154V59H139.081V57.3026H138.903C138.775 57.5346 138.591 57.7997 138.349 58.098C138.112 58.3963 137.786 58.6567 137.369 58.8793C136.952 59.1018 136.413 59.2131 135.75 59.2131ZM136.218 57.402C136.829 57.402 137.345 57.241 137.767 56.919C138.193 56.5923 138.515 56.1402 138.733 55.5625C138.955 54.9848 139.066 54.3125 139.066 53.5455C139.066 52.7879 138.958 52.125 138.74 51.5568C138.522 50.9886 138.202 50.5459 137.781 50.2287C137.359 49.9115 136.839 49.7528 136.218 49.7528C135.579 49.7528 135.047 49.9186 134.62 50.25C134.194 50.5814 133.872 51.0336 133.654 51.6065C133.441 52.1795 133.335 52.8258 133.335 53.5455C133.335 54.2746 133.444 54.9304 133.662 55.5128C133.879 56.0952 134.201 56.5568 134.627 56.8977C135.058 57.2339 135.589 57.402 136.218 57.402ZM148.781 59.2202C147.758 59.2202 146.865 58.9858 146.103 58.517C145.341 58.0483 144.749 57.3925 144.327 56.5497C143.906 55.7069 143.695 54.7221 143.695 53.5952C143.695 52.4635 143.906 51.474 144.327 50.6264C144.749 49.7789 145.341 49.1207 146.103 48.652C146.865 48.1832 147.758 47.9489 148.781 47.9489C149.803 47.9489 150.696 48.1832 151.458 48.652C152.22 49.1207 152.812 49.7789 153.234 50.6264C153.655 51.474 153.866 52.4635 153.866 53.5952C153.866 54.7221 153.655 55.7069 153.234 56.5497C152.812 57.3925 152.22 58.0483 151.458 58.517C150.696 58.9858 149.803 59.2202 148.781 59.2202ZM148.788 57.4375C149.451 57.4375 150 57.2623 150.435 56.9119C150.871 56.5616 151.193 56.0952 151.401 55.5128C151.614 54.9304 151.721 54.2888 151.721 53.5881C151.721 52.892 151.614 52.2528 151.401 51.6705C151.193 51.0833 150.871 50.6122 150.435 50.2571C150 49.902 149.451 49.7244 148.788 49.7244C148.12 49.7244 147.566 49.902 147.126 50.2571C146.69 50.6122 146.366 51.0833 146.153 51.6705C145.944 52.2528 145.84 52.892 145.84 53.5881C145.84 54.2888 145.944 54.9304 146.153 55.5128C146.366 56.0952 146.69 56.5616 147.126 56.9119C147.566 57.2623 148.12 57.4375 148.788 57.4375ZM164.704 59.2415C164.013 59.2415 163.388 59.1136 162.829 58.858C162.27 58.5975 161.827 58.2211 161.501 57.7287C161.179 57.2363 161.018 56.6326 161.018 55.9176C161.018 55.3021 161.136 54.7955 161.373 54.3977C161.61 54 161.929 53.6851 162.332 53.4531C162.734 53.2211 163.184 53.0459 163.681 52.9276C164.178 52.8092 164.685 52.7192 165.201 52.6577C165.854 52.5819 166.385 52.5204 166.792 52.473C167.199 52.4209 167.495 52.3381 167.68 52.2244C167.864 52.1108 167.957 51.9261 167.957 51.6705V51.6207C167.957 51.0005 167.781 50.5199 167.431 50.179C167.085 49.8381 166.569 49.6676 165.883 49.6676C165.168 49.6676 164.604 49.8262 164.192 50.1435C163.785 50.456 163.504 50.804 163.347 51.1875L161.352 50.733C161.588 50.0701 161.934 49.535 162.388 49.1278C162.848 48.7159 163.376 48.4176 163.972 48.233C164.569 48.0436 165.196 47.9489 165.854 47.9489C166.29 47.9489 166.752 48.0009 167.239 48.1051C167.732 48.2045 168.191 48.3892 168.617 48.6591C169.048 48.929 169.401 49.3149 169.675 49.8168C169.95 50.3139 170.087 50.9602 170.087 51.7557V59H168.013V57.5085H167.928C167.791 57.7831 167.585 58.053 167.31 58.3182C167.036 58.5833 166.683 58.8035 166.252 58.9787C165.821 59.1539 165.305 59.2415 164.704 59.2415ZM165.165 57.5369C165.753 57.5369 166.254 57.4209 166.671 57.1889C167.093 56.9569 167.412 56.6539 167.63 56.2798C167.853 55.901 167.964 55.4962 167.964 55.0653V53.6591C167.888 53.7348 167.741 53.8059 167.523 53.8722C167.31 53.9337 167.067 53.9882 166.792 54.0355C166.517 54.0781 166.25 54.1184 165.989 54.1562C165.729 54.1894 165.511 54.2178 165.336 54.2415C164.924 54.2936 164.548 54.3812 164.207 54.5043C163.871 54.6274 163.601 54.8049 163.397 55.0369C163.198 55.2642 163.099 55.5672 163.099 55.946C163.099 56.4716 163.293 56.8693 163.681 57.1392C164.069 57.4044 164.564 57.5369 165.165 57.5369ZM178.008 48.0909V49.7955H172.049V48.0909H178.008ZM173.647 45.4773H175.771V55.7969C175.771 56.2088 175.833 56.5189 175.956 56.7273C176.079 56.9309 176.237 57.0705 176.431 57.1463C176.63 57.2173 176.846 57.2528 177.078 57.2528C177.248 57.2528 177.397 57.241 177.525 57.2173C177.653 57.1937 177.752 57.1747 177.824 57.1605L178.207 58.9148C178.084 58.9621 177.909 59.0095 177.681 59.0568C177.454 59.1089 177.17 59.1373 176.829 59.142C176.27 59.1515 175.75 59.0521 175.267 58.8438C174.784 58.6354 174.393 58.3134 174.095 57.8778C173.797 57.4422 173.647 56.8954 173.647 56.2372V45.4773ZM187.268 54.4759V48.0909H189.398V59H187.31V57.1108H187.197C186.946 57.6932 186.543 58.1785 185.989 58.5668C185.44 58.9503 184.756 59.142 183.937 59.142C183.236 59.142 182.616 58.9882 182.076 58.6804C181.541 58.3679 181.12 57.9062 180.812 57.2955C180.509 56.6847 180.357 55.9295 180.357 55.0298V48.0909H182.481V54.7741C182.481 55.5175 182.687 56.1094 183.099 56.5497C183.511 56.9901 184.046 57.2102 184.704 57.2102C185.102 57.2102 185.497 57.1108 185.89 56.9119C186.288 56.7131 186.617 56.4124 186.877 56.0099C187.142 55.6075 187.272 55.0961 187.268 54.4759ZM195.426 59.2415C194.735 59.2415 194.11 59.1136 193.551 58.858C192.993 58.5975 192.55 58.2211 192.223 57.7287C191.901 57.2363 191.74 56.6326 191.74 55.9176C191.74 55.3021 191.859 54.7955 192.096 54.3977C192.332 54 192.652 53.6851 193.054 53.4531C193.457 53.2211 193.907 53.0459 194.404 52.9276C194.901 52.8092 195.408 52.7192 195.924 52.6577C196.577 52.5819 197.107 52.5204 197.515 52.473C197.922 52.4209 198.218 52.3381 198.402 52.2244C198.587 52.1108 198.679 51.9261 198.679 51.6705V51.6207C198.679 51.0005 198.504 50.5199 198.154 50.179C197.808 49.8381 197.292 49.6676 196.605 49.6676C195.891 49.6676 195.327 49.8262 194.915 50.1435C194.508 50.456 194.226 50.804 194.07 51.1875L192.074 50.733C192.311 50.0701 192.657 49.535 193.111 49.1278C193.57 48.7159 194.098 48.4176 194.695 48.233C195.292 48.0436 195.919 47.9489 196.577 47.9489C197.013 47.9489 197.474 48.0009 197.962 48.1051C198.454 48.2045 198.914 48.3892 199.34 48.6591C199.771 48.929 200.123 49.3149 200.398 49.8168C200.673 50.3139 200.81 50.9602 200.81 51.7557V59H198.736V57.5085H198.651C198.514 57.7831 198.308 58.053 198.033 58.3182C197.758 58.5833 197.406 58.8035 196.975 58.9787C196.544 59.1539 196.028 59.2415 195.426 59.2415ZM195.888 57.5369C196.475 57.5369 196.977 57.4209 197.394 57.1889C197.815 56.9569 198.135 56.6539 198.353 56.2798C198.575 55.901 198.686 55.4962 198.686 55.0653V53.6591C198.611 53.7348 198.464 53.8059 198.246 53.8722C198.033 53.9337 197.789 53.9882 197.515 54.0355C197.24 54.0781 196.972 54.1184 196.712 54.1562C196.452 54.1894 196.234 54.2178 196.059 54.2415C195.647 54.2936 195.27 54.3812 194.929 54.5043C194.593 54.6274 194.323 54.8049 194.12 55.0369C193.921 55.2642 193.821 55.5672 193.821 55.946C193.821 56.4716 194.016 56.8693 194.404 57.1392C194.792 57.4044 195.287 57.5369 195.888 57.5369ZM205.762 44.4545V59H203.638V44.4545H205.762Z" fill="white"/>
<path d="M59.9659 172.227C58.9432 172.227 58.0625 171.986 57.3239 171.503C56.5852 171.02 56.017 170.355 55.6193 169.507C55.2216 168.66 55.0227 167.691 55.0227 166.602C55.0227 165.494 55.2263 164.517 55.6335 163.669C56.0455 162.817 56.6184 162.152 57.3523 161.673C58.0909 161.19 58.9527 160.949 59.9375 160.949C60.7045 160.949 61.3958 161.091 62.0114 161.375C62.6269 161.659 63.1312 162.057 63.5241 162.568C63.9171 163.08 64.161 163.676 64.2557 164.358H62.5795C62.4517 163.861 62.1676 163.42 61.7273 163.037C61.2917 162.649 60.7045 162.455 59.9659 162.455C59.3125 162.455 58.7396 162.625 58.2472 162.966C57.7595 163.302 57.3783 163.778 57.1037 164.393C56.8338 165.004 56.6989 165.722 56.6989 166.545C56.6989 167.388 56.8314 168.122 57.0966 168.747C57.3665 169.372 57.7453 169.857 58.233 170.203C58.7254 170.549 59.303 170.722 59.9659 170.722C60.4015 170.722 60.7969 170.646 61.152 170.494C61.5071 170.343 61.8078 170.125 62.054 169.841C62.3002 169.557 62.4754 169.216 62.5795 168.818H64.2557C64.161 169.462 63.9266 170.042 63.5526 170.558C63.1832 171.07 62.6932 171.477 62.0824 171.78C61.4763 172.078 60.7708 172.227 59.9659 172.227ZM66.706 172V161.091H68.3253V162.739H68.4389C68.6378 162.199 68.9976 161.761 69.5185 161.425C70.0393 161.089 70.6264 160.92 71.2798 160.92C71.4029 160.92 71.5568 160.923 71.7415 160.928C71.9261 160.932 72.0658 160.939 72.1605 160.949V162.653C72.1037 162.639 71.9735 162.618 71.7699 162.589C71.571 162.556 71.3603 162.54 71.1378 162.54C70.6075 162.54 70.134 162.651 69.7173 162.874C69.3054 163.091 68.9787 163.394 68.7372 163.783C68.5005 164.166 68.3821 164.604 68.3821 165.097V172H66.706ZM78.3892 172.227C77.3381 172.227 76.4313 171.995 75.669 171.531C74.9115 171.062 74.3267 170.409 73.9148 169.571C73.5076 168.728 73.304 167.748 73.304 166.631C73.304 165.513 73.5076 164.528 73.9148 163.676C74.3267 162.819 74.8996 162.152 75.6335 161.673C76.3722 161.19 77.2339 160.949 78.2188 160.949C78.7869 160.949 79.348 161.044 79.902 161.233C80.456 161.422 80.9602 161.73 81.4148 162.156C81.8693 162.578 82.2315 163.136 82.5014 163.832C82.7713 164.528 82.9062 165.385 82.9062 166.403V167.114H74.4972V165.665H81.2017C81.2017 165.049 81.0786 164.5 80.8324 164.017C80.5909 163.534 80.2453 163.153 79.7955 162.874C79.3504 162.594 78.8248 162.455 78.2188 162.455C77.5511 162.455 76.9735 162.62 76.4858 162.952C76.0028 163.278 75.6312 163.705 75.3707 164.23C75.1103 164.756 74.9801 165.319 74.9801 165.92V166.886C74.9801 167.71 75.1222 168.409 75.4062 168.982C75.6951 169.55 76.0952 169.983 76.6065 170.281C77.1179 170.575 77.7121 170.722 78.3892 170.722C78.8295 170.722 79.2273 170.66 79.5824 170.537C79.9422 170.409 80.2524 170.22 80.5128 169.969C80.7732 169.713 80.9744 169.396 81.1165 169.017L82.7358 169.472C82.5653 170.021 82.2789 170.504 81.8764 170.92C81.474 171.332 80.9768 171.654 80.3849 171.886C79.7931 172.114 79.1278 172.227 78.3892 172.227ZM77.3665 159.614L79.0994 156.318H81.0597L78.8438 159.614H77.3665ZM89.5753 172.227C88.6662 172.227 87.8636 171.998 87.1676 171.538C86.4716 171.074 85.9271 170.421 85.5341 169.578C85.1411 168.731 84.9446 167.729 84.9446 166.574C84.9446 165.428 85.1411 164.434 85.5341 163.591C85.9271 162.748 86.474 162.097 87.1747 161.638C87.8755 161.179 88.6851 160.949 89.6037 160.949C90.3139 160.949 90.875 161.067 91.2869 161.304C91.7036 161.536 92.0208 161.801 92.2386 162.099C92.4612 162.393 92.634 162.634 92.7571 162.824H92.8991V157.455H94.5753V172H92.956V170.324H92.7571C92.634 170.523 92.4588 170.774 92.2315 171.077C92.0043 171.375 91.6799 171.643 91.2585 171.879C90.8371 172.111 90.276 172.227 89.5753 172.227ZM89.8026 170.722C90.4749 170.722 91.0431 170.546 91.5071 170.196C91.9711 169.841 92.3239 169.351 92.5653 168.726C92.8068 168.096 92.9276 167.369 92.9276 166.545C92.9276 165.731 92.8092 165.018 92.5724 164.408C92.3357 163.792 91.9853 163.314 91.5213 162.973C91.0573 162.627 90.4844 162.455 89.8026 162.455C89.0923 162.455 88.5005 162.637 88.027 163.001C87.5582 163.361 87.2055 163.851 86.9688 164.472C86.7367 165.087 86.6207 165.778 86.6207 166.545C86.6207 167.322 86.7391 168.027 86.9759 168.662C87.2173 169.292 87.5724 169.794 88.0412 170.168C88.5147 170.537 89.1018 170.722 89.8026 170.722ZM97.8778 172V161.091H99.554V172H97.8778ZM98.7301 159.273C98.4034 159.273 98.1217 159.161 97.8849 158.939C97.6529 158.716 97.5369 158.449 97.5369 158.136C97.5369 157.824 97.6529 157.556 97.8849 157.334C98.1217 157.111 98.4034 157 98.7301 157C99.0568 157 99.3362 157.111 99.5682 157.334C99.8049 157.556 99.9233 157.824 99.9233 158.136C99.9233 158.449 99.8049 158.716 99.5682 158.939C99.3362 159.161 99.0568 159.273 98.7301 159.273ZM107.368 161.091V162.511H101.715V161.091H107.368ZM103.363 158.477H105.039V168.875C105.039 169.348 105.107 169.704 105.245 169.94C105.387 170.172 105.567 170.329 105.784 170.409C106.007 170.485 106.241 170.523 106.488 170.523C106.672 170.523 106.824 170.513 106.942 170.494C107.06 170.471 107.155 170.452 107.226 170.438L107.567 171.943C107.453 171.986 107.295 172.028 107.091 172.071C106.888 172.118 106.63 172.142 106.317 172.142C105.844 172.142 105.38 172.04 104.925 171.837C104.475 171.633 104.101 171.323 103.803 170.906C103.509 170.49 103.363 169.964 103.363 169.33V158.477ZM114.204 172.227C113.219 172.227 112.355 171.993 111.612 171.524C110.873 171.055 110.296 170.4 109.879 169.557C109.467 168.714 109.261 167.729 109.261 166.602C109.261 165.466 109.467 164.474 109.879 163.626C110.296 162.779 110.873 162.121 111.612 161.652C112.355 161.183 113.219 160.949 114.204 160.949C115.189 160.949 116.051 161.183 116.789 161.652C117.533 162.121 118.11 162.779 118.522 163.626C118.939 164.474 119.147 165.466 119.147 166.602C119.147 167.729 118.939 168.714 118.522 169.557C118.11 170.4 117.533 171.055 116.789 171.524C116.051 171.993 115.189 172.227 114.204 172.227ZM114.204 170.722C114.952 170.722 115.568 170.53 116.051 170.146C116.534 169.763 116.891 169.259 117.123 168.634C117.355 168.009 117.471 167.331 117.471 166.602C117.471 165.873 117.355 165.194 117.123 164.564C116.891 163.934 116.534 163.425 116.051 163.037C115.568 162.649 114.952 162.455 114.204 162.455C113.456 162.455 112.841 162.649 112.358 163.037C111.875 163.425 111.517 163.934 111.285 164.564C111.053 165.194 110.937 165.873 110.937 166.602C110.937 167.331 111.053 168.009 111.285 168.634C111.517 169.259 111.875 169.763 112.358 170.146C112.841 170.53 113.456 170.722 114.204 170.722ZM129.433 163.534L127.928 163.96C127.833 163.709 127.693 163.465 127.509 163.229C127.329 162.987 127.082 162.788 126.77 162.632C126.457 162.476 126.057 162.398 125.57 162.398C124.902 162.398 124.346 162.552 123.901 162.859C123.46 163.162 123.24 163.548 123.24 164.017C123.24 164.434 123.392 164.763 123.695 165.004C123.998 165.246 124.471 165.447 125.115 165.608L126.734 166.006C127.71 166.242 128.437 166.605 128.915 167.092C129.393 167.575 129.632 168.198 129.632 168.96C129.632 169.585 129.452 170.144 129.092 170.636C128.737 171.129 128.24 171.517 127.601 171.801C126.962 172.085 126.218 172.227 125.371 172.227C124.258 172.227 123.337 171.986 122.608 171.503C121.879 171.02 121.417 170.314 121.223 169.386L122.814 168.989C122.965 169.576 123.252 170.016 123.673 170.31C124.099 170.603 124.656 170.75 125.342 170.75C126.124 170.75 126.744 170.584 127.203 170.253C127.667 169.917 127.899 169.514 127.899 169.045C127.899 168.667 127.767 168.349 127.501 168.094C127.236 167.833 126.829 167.639 126.28 167.511L124.462 167.085C123.463 166.848 122.729 166.482 122.26 165.984C121.796 165.482 121.564 164.855 121.564 164.102C121.564 163.487 121.737 162.942 122.082 162.469C122.433 161.995 122.909 161.624 123.51 161.354C124.116 161.084 124.803 160.949 125.57 160.949C126.649 160.949 127.497 161.186 128.112 161.659C128.732 162.133 129.173 162.758 129.433 163.534ZM139.456 165.438V172H137.78V161.091H139.4V162.795H139.542C139.797 162.241 140.185 161.796 140.706 161.46C141.227 161.119 141.9 160.949 142.723 160.949C143.462 160.949 144.108 161.1 144.662 161.403C145.216 161.702 145.647 162.156 145.955 162.767C146.263 163.373 146.417 164.14 146.417 165.068V172H144.74V165.182C144.74 164.325 144.518 163.657 144.073 163.179C143.628 162.696 143.017 162.455 142.24 162.455C141.705 162.455 141.227 162.571 140.806 162.803C140.389 163.035 140.06 163.373 139.819 163.818C139.577 164.263 139.456 164.803 139.456 165.438ZM152.69 172.256C151.998 172.256 151.371 172.125 150.808 171.865C150.244 171.6 149.797 171.219 149.465 170.722C149.134 170.22 148.968 169.614 148.968 168.903C148.968 168.278 149.091 167.772 149.337 167.384C149.584 166.991 149.913 166.683 150.325 166.46C150.737 166.238 151.191 166.072 151.688 165.963C152.19 165.849 152.694 165.759 153.201 165.693C153.864 165.608 154.401 165.544 154.813 165.501C155.23 165.454 155.533 165.376 155.722 165.267C155.916 165.158 156.013 164.969 156.013 164.699V164.642C156.013 163.941 155.822 163.397 155.438 163.009C155.059 162.62 154.484 162.426 153.712 162.426C152.912 162.426 152.285 162.601 151.83 162.952C151.376 163.302 151.056 163.676 150.871 164.074L149.281 163.506C149.565 162.843 149.943 162.327 150.417 161.957C150.895 161.583 151.416 161.323 151.979 161.176C152.548 161.025 153.106 160.949 153.656 160.949C154.006 160.949 154.408 160.991 154.863 161.077C155.322 161.157 155.765 161.325 156.191 161.581C156.622 161.837 156.979 162.223 157.263 162.739C157.548 163.255 157.69 163.946 157.69 164.812V172H156.013V170.523H155.928C155.815 170.759 155.625 171.013 155.36 171.283C155.095 171.553 154.742 171.782 154.302 171.972C153.862 172.161 153.324 172.256 152.69 172.256ZM152.945 170.75C153.608 170.75 154.167 170.62 154.621 170.359C155.081 170.099 155.426 169.763 155.658 169.351C155.895 168.939 156.013 168.506 156.013 168.051V166.517C155.942 166.602 155.786 166.68 155.545 166.751C155.308 166.818 155.033 166.877 154.721 166.929C154.413 166.976 154.112 167.019 153.819 167.057C153.53 167.09 153.296 167.118 153.116 167.142C152.68 167.199 152.273 167.291 151.894 167.419C151.52 167.542 151.217 167.729 150.985 167.98C150.758 168.226 150.644 168.562 150.644 168.989C150.644 169.571 150.86 170.011 151.29 170.31C151.726 170.603 152.278 170.75 152.945 170.75ZM174.101 163.534L172.596 163.96C172.501 163.709 172.361 163.465 172.176 163.229C171.997 162.987 171.75 162.788 171.438 162.632C171.125 162.476 170.725 162.398 170.238 162.398C169.57 162.398 169.014 162.552 168.569 162.859C168.128 163.162 167.908 163.548 167.908 164.017C167.908 164.434 168.06 164.763 168.363 165.004C168.666 165.246 169.139 165.447 169.783 165.608L171.402 166.006C172.378 166.242 173.105 166.605 173.583 167.092C174.061 167.575 174.3 168.198 174.3 168.96C174.3 169.585 174.12 170.144 173.76 170.636C173.405 171.129 172.908 171.517 172.269 171.801C171.63 172.085 170.886 172.227 170.039 172.227C168.926 172.227 168.005 171.986 167.276 171.503C166.547 171.02 166.085 170.314 165.891 169.386L167.482 168.989C167.633 169.576 167.92 170.016 168.341 170.31C168.767 170.603 169.324 170.75 170.01 170.75C170.792 170.75 171.412 170.584 171.871 170.253C172.335 169.917 172.567 169.514 172.567 169.045C172.567 168.667 172.435 168.349 172.169 168.094C171.904 167.833 171.497 167.639 170.948 167.511L169.13 167.085C168.131 166.848 167.397 166.482 166.928 165.984C166.464 165.482 166.232 164.855 166.232 164.102C166.232 163.487 166.405 162.942 166.75 162.469C167.101 161.995 167.577 161.624 168.178 161.354C168.784 161.084 169.471 160.949 170.238 160.949C171.317 160.949 172.165 161.186 172.78 161.659C173.4 162.133 173.841 162.758 174.101 163.534ZM183.698 167.54V161.091H185.374V172H183.698V170.153H183.585C183.329 170.707 182.931 171.179 182.391 171.567C181.852 171.95 181.17 172.142 180.346 172.142C179.664 172.142 179.058 171.993 178.528 171.695C177.997 171.392 177.581 170.937 177.278 170.331C176.975 169.72 176.823 168.951 176.823 168.023V161.091H178.499V167.909C178.499 168.705 178.722 169.339 179.167 169.812C179.617 170.286 180.19 170.523 180.886 170.523C181.302 170.523 181.726 170.416 182.157 170.203C182.593 169.99 182.957 169.663 183.251 169.223C183.549 168.783 183.698 168.222 183.698 167.54ZM191.654 172.256C190.963 172.256 190.336 172.125 189.772 171.865C189.209 171.6 188.761 171.219 188.43 170.722C188.099 170.22 187.933 169.614 187.933 168.903C187.933 168.278 188.056 167.772 188.302 167.384C188.548 166.991 188.877 166.683 189.289 166.46C189.701 166.238 190.156 166.072 190.653 165.963C191.155 165.849 191.659 165.759 192.166 165.693C192.829 165.608 193.366 165.544 193.778 165.501C194.195 165.454 194.498 165.376 194.687 165.267C194.881 165.158 194.978 164.969 194.978 164.699V164.642C194.978 163.941 194.787 163.397 194.403 163.009C194.024 162.62 193.449 162.426 192.677 162.426C191.877 162.426 191.25 162.601 190.795 162.952C190.341 163.302 190.021 163.676 189.836 164.074L188.245 163.506C188.529 162.843 188.908 162.327 189.382 161.957C189.86 161.583 190.381 161.323 190.944 161.176C191.512 161.025 192.071 160.949 192.62 160.949C192.971 160.949 193.373 160.991 193.828 161.077C194.287 161.157 194.73 161.325 195.156 161.581C195.587 161.837 195.944 162.223 196.228 162.739C196.512 163.255 196.654 163.946 196.654 164.812V172H194.978V170.523H194.893C194.779 170.759 194.59 171.013 194.325 171.283C194.06 171.553 193.707 171.782 193.267 171.972C192.826 172.161 192.289 172.256 191.654 172.256ZM191.91 170.75C192.573 170.75 193.132 170.62 193.586 170.359C194.046 170.099 194.391 169.763 194.623 169.351C194.86 168.939 194.978 168.506 194.978 168.051V166.517C194.907 166.602 194.751 166.68 194.51 166.751C194.273 166.818 193.998 166.877 193.686 166.929C193.378 166.976 193.077 167.019 192.784 167.057C192.495 167.09 192.261 167.118 192.081 167.142C191.645 167.199 191.238 167.291 190.859 167.419C190.485 167.542 190.182 167.729 189.95 167.98C189.723 168.226 189.609 168.562 189.609 168.989C189.609 169.571 189.824 170.011 190.255 170.31C190.691 170.603 191.243 170.75 191.91 170.75ZM209.771 172.227C208.748 172.227 207.867 171.986 207.129 171.503C206.39 171.02 205.822 170.355 205.424 169.507C205.026 168.66 204.827 167.691 204.827 166.602C204.827 165.494 205.031 164.517 205.438 163.669C205.85 162.817 206.423 162.152 207.157 161.673C207.896 161.19 208.757 160.949 209.742 160.949C210.509 160.949 211.201 161.091 211.816 161.375C212.432 161.659 212.936 162.057 213.329 162.568C213.722 163.08 213.966 163.676 214.06 164.358H212.384C212.256 163.861 211.972 163.42 211.532 163.037C211.096 162.649 210.509 162.455 209.771 162.455C209.117 162.455 208.544 162.625 208.052 162.966C207.564 163.302 207.183 163.778 206.908 164.393C206.638 165.004 206.504 165.722 206.504 166.545C206.504 167.388 206.636 168.122 206.901 168.747C207.171 169.372 207.55 169.857 208.038 170.203C208.53 170.549 209.108 170.722 209.771 170.722C210.206 170.722 210.602 170.646 210.957 170.494C211.312 170.343 211.612 170.125 211.859 169.841C212.105 169.557 212.28 169.216 212.384 168.818H214.06C213.966 169.462 213.731 170.042 213.357 170.558C212.988 171.07 212.498 171.477 211.887 171.78C211.281 172.078 210.576 172.227 209.771 172.227ZM219.721 172.256C219.03 172.256 218.402 172.125 217.839 171.865C217.275 171.6 216.828 171.219 216.496 170.722C216.165 170.22 215.999 169.614 215.999 168.903C215.999 168.278 216.122 167.772 216.369 167.384C216.615 166.991 216.944 166.683 217.356 166.46C217.768 166.238 218.222 166.072 218.719 165.963C219.221 165.849 219.726 165.759 220.232 165.693C220.895 165.608 221.433 165.544 221.844 165.501C222.261 165.454 222.564 165.376 222.754 165.267C222.948 165.158 223.045 164.969 223.045 164.699V164.642C223.045 163.941 222.853 163.397 222.469 163.009C222.091 162.62 221.515 162.426 220.744 162.426C219.943 162.426 219.316 162.601 218.862 162.952C218.407 163.302 218.087 163.676 217.903 164.074L216.312 163.506C216.596 162.843 216.975 162.327 217.448 161.957C217.926 161.583 218.447 161.323 219.011 161.176C219.579 161.025 220.138 160.949 220.687 160.949C221.037 160.949 221.44 160.991 221.894 161.077C222.353 161.157 222.796 161.325 223.222 161.581C223.653 161.837 224.011 162.223 224.295 162.739C224.579 163.255 224.721 163.946 224.721 164.812V172H223.045V170.523H222.96C222.846 170.759 222.656 171.013 222.391 171.283C222.126 171.553 221.773 171.782 221.333 171.972C220.893 172.161 220.355 172.256 219.721 172.256ZM219.977 170.75C220.639 170.75 221.198 170.62 221.653 170.359C222.112 170.099 222.458 169.763 222.69 169.351C222.926 168.939 223.045 168.506 223.045 168.051V166.517C222.974 166.602 222.817 166.68 222.576 166.751C222.339 166.818 222.065 166.877 221.752 166.929C221.444 166.976 221.144 167.019 220.85 167.057C220.561 167.09 220.327 167.118 220.147 167.142C219.711 167.199 219.304 167.291 218.925 167.419C218.551 167.542 218.248 167.729 218.016 167.98C217.789 168.226 217.675 168.562 217.675 168.989C217.675 169.571 217.891 170.011 218.322 170.31C218.757 170.603 219.309 170.75 219.977 170.75ZM227.78 172V161.091H229.4V162.739H229.513C229.712 162.199 230.072 161.761 230.593 161.425C231.114 161.089 231.701 160.92 232.354 160.92C232.477 160.92 232.631 160.923 232.816 160.928C233 160.932 233.14 160.939 233.235 160.949V162.653C233.178 162.639 233.048 162.618 232.844 162.589C232.645 162.556 232.435 162.54 232.212 162.54C231.682 162.54 231.208 162.651 230.792 162.874C230.38 163.091 230.053 163.394 229.811 163.783C229.575 164.166 229.456 164.604 229.456 165.097V172H227.78ZM240.65 161.091V162.511H234.996V161.091H240.65ZM236.644 158.477H238.32V168.875C238.32 169.348 238.389 169.704 238.526 169.94C238.668 170.172 238.848 170.329 239.066 170.409C239.288 170.485 239.523 170.523 239.769 170.523C239.953 170.523 240.105 170.513 240.223 170.494C240.342 170.471 240.436 170.452 240.507 170.438L240.848 171.943C240.735 171.986 240.576 172.028 240.373 172.071C240.169 172.118 239.911 172.142 239.598 172.142C239.125 172.142 238.661 172.04 238.206 171.837C237.757 171.633 237.382 171.323 237.084 170.906C236.791 170.49 236.644 169.964 236.644 169.33V158.477ZM247.627 172.227C246.576 172.227 245.67 171.995 244.907 171.531C244.15 171.062 243.565 170.409 243.153 169.571C242.746 168.728 242.542 167.748 242.542 166.631C242.542 165.513 242.746 164.528 243.153 163.676C243.565 162.819 244.138 162.152 244.872 161.673C245.61 161.19 246.472 160.949 247.457 160.949C248.025 160.949 248.586 161.044 249.14 161.233C249.694 161.422 250.199 161.73 250.653 162.156C251.108 162.578 251.47 163.136 251.74 163.832C252.01 164.528 252.145 165.385 252.145 166.403V167.114H243.735V165.665H250.44C250.44 165.049 250.317 164.5 250.071 164.017C249.829 163.534 249.484 163.153 249.034 162.874C248.589 162.594 248.063 162.455 247.457 162.455C246.789 162.455 246.212 162.62 245.724 162.952C245.241 163.278 244.869 163.705 244.609 164.23C244.349 164.756 244.218 165.319 244.218 165.92V166.886C244.218 167.71 244.36 168.409 244.645 168.982C244.933 169.55 245.333 169.983 245.845 170.281C246.356 170.575 246.95 170.722 247.627 170.722C248.068 170.722 248.466 170.66 248.821 170.537C249.181 170.409 249.491 170.22 249.751 169.969C250.011 169.713 250.213 169.396 250.355 169.017L251.974 169.472C251.804 170.021 251.517 170.504 251.115 170.92C250.712 171.332 250.215 171.654 249.623 171.886C249.031 172.114 248.366 172.227 247.627 172.227ZM254.694 172V161.091H256.37V172H254.694ZM255.547 159.273C255.22 159.273 254.938 159.161 254.701 158.939C254.469 158.716 254.353 158.449 254.353 158.136C254.353 157.824 254.469 157.556 254.701 157.334C254.938 157.111 255.22 157 255.547 157C255.873 157 256.153 157.111 256.385 157.334C256.621 157.556 256.74 157.824 256.74 158.136C256.74 158.449 256.621 158.716 256.385 158.939C256.153 159.161 255.873 159.273 255.547 159.273ZM259.44 172V161.091H261.06V162.739H261.173C261.372 162.199 261.732 161.761 262.253 161.425C262.774 161.089 263.361 160.92 264.014 160.92C264.137 160.92 264.291 160.923 264.476 160.928C264.661 160.932 264.8 160.939 264.895 160.949V162.653C264.838 162.639 264.708 162.618 264.504 162.589C264.305 162.556 264.095 162.54 263.872 162.54C263.342 162.54 262.868 162.651 262.452 162.874C262.04 163.091 261.713 163.394 261.472 163.783C261.235 164.166 261.116 164.604 261.116 165.097V172H259.44ZM270.092 172.256C269.401 172.256 268.773 172.125 268.21 171.865C267.646 171.6 267.199 171.219 266.868 170.722C266.536 170.22 266.37 169.614 266.37 168.903C266.37 168.278 266.493 167.772 266.74 167.384C266.986 166.991 267.315 166.683 267.727 166.46C268.139 166.238 268.593 166.072 269.091 165.963C269.592 165.849 270.097 165.759 270.603 165.693C271.266 165.608 271.804 165.544 272.216 165.501C272.632 165.454 272.935 165.376 273.125 165.267C273.319 165.158 273.416 164.969 273.416 164.699V164.642C273.416 163.941 273.224 163.397 272.841 163.009C272.462 162.62 271.886 162.426 271.115 162.426C270.315 162.426 269.687 162.601 269.233 162.952C268.778 163.302 268.458 163.676 268.274 164.074L266.683 163.506C266.967 162.843 267.346 162.327 267.819 161.957C268.297 161.583 268.818 161.323 269.382 161.176C269.95 161.025 270.509 160.949 271.058 160.949C271.408 160.949 271.811 160.991 272.265 161.077C272.725 161.157 273.167 161.325 273.593 161.581C274.024 161.837 274.382 162.223 274.666 162.739C274.95 163.255 275.092 163.946 275.092 164.812V172H273.416V170.523H273.331C273.217 170.759 273.028 171.013 272.762 171.283C272.497 171.553 272.145 171.782 271.704 171.972C271.264 172.161 270.726 172.256 270.092 172.256ZM270.348 170.75C271.011 170.75 271.569 170.62 272.024 170.359C272.483 170.099 272.829 169.763 273.061 169.351C273.297 168.939 273.416 168.506 273.416 168.051V166.517C273.345 166.602 273.189 166.68 272.947 166.751C272.71 166.818 272.436 166.877 272.123 166.929C271.815 166.976 271.515 167.019 271.221 167.057C270.932 167.09 270.698 167.118 270.518 167.142C270.083 167.199 269.675 167.291 269.297 167.419C268.922 167.542 268.619 167.729 268.387 167.98C268.16 168.226 268.047 168.562 268.047 168.989C268.047 169.571 268.262 170.011 268.693 170.31C269.128 170.603 269.68 170.75 270.348 170.75Z" fill="white"/>
<path d="M85.2955 190.364V202H83.8864V191.841H83.8182L80.9773 193.727V192.295L83.8864 190.364H85.2955ZM88.3693 199.614V198.455L93.483 190.364H94.3239V192.159H93.7557L89.892 198.273V198.364H96.7784V199.614H88.3693ZM93.8466 202V199.261V198.722V190.364H95.1875V202H93.8466ZM104.839 199.818V199.205C104.839 198.78 104.927 198.392 105.101 198.04C105.279 197.684 105.536 197.4 105.874 197.188C106.214 196.972 106.627 196.864 107.112 196.864C107.605 196.864 108.018 196.972 108.351 197.188C108.684 197.4 108.936 197.684 109.107 198.04C109.277 198.392 109.362 198.78 109.362 199.205V199.818C109.362 200.242 109.275 200.633 109.101 200.989C108.93 201.341 108.677 201.625 108.339 201.841C108.006 202.053 107.597 202.159 107.112 202.159C106.62 202.159 106.205 202.053 105.868 201.841C105.531 201.625 105.275 201.341 105.101 200.989C104.927 200.633 104.839 200.242 104.839 199.818ZM105.999 199.205V199.818C105.999 200.17 106.082 200.487 106.249 200.767C106.415 201.044 106.703 201.182 107.112 201.182C107.51 201.182 107.79 201.044 107.953 200.767C108.12 200.487 108.203 200.17 108.203 199.818V199.205C108.203 198.852 108.124 198.538 107.964 198.261C107.805 197.981 107.521 197.841 107.112 197.841C106.714 197.841 106.429 197.981 106.254 198.261C106.084 198.538 105.999 198.852 105.999 199.205ZM99.044 193.159V192.545C99.044 192.121 99.1312 191.733 99.3054 191.381C99.4834 191.025 99.741 190.741 100.078 190.528C100.419 190.312 100.832 190.205 101.317 190.205C101.809 190.205 102.222 190.312 102.555 190.528C102.889 190.741 103.141 191.025 103.311 191.381C103.482 191.733 103.567 192.121 103.567 192.545V193.159C103.567 193.583 103.48 193.973 103.305 194.33C103.135 194.682 102.881 194.966 102.544 195.182C102.211 195.394 101.802 195.5 101.317 195.5C100.824 195.5 100.41 195.394 100.072 195.182C99.7353 194.966 99.4796 194.682 99.3054 194.33C99.1312 193.973 99.044 193.583 99.044 193.159ZM100.203 192.545V193.159C100.203 193.511 100.286 193.828 100.453 194.108C100.62 194.384 100.908 194.523 101.317 194.523C101.714 194.523 101.995 194.384 102.158 194.108C102.324 193.828 102.408 193.511 102.408 193.159V192.545C102.408 192.193 102.328 191.879 102.169 191.602C102.01 191.322 101.726 191.182 101.317 191.182C100.919 191.182 100.633 191.322 100.459 191.602C100.288 191.879 100.203 192.193 100.203 192.545ZM99.4759 202L107.476 190.364H108.771L100.771 202H99.4759ZM118.999 202.205C118.446 202.205 117.944 202.1 117.493 201.892C117.042 201.68 116.684 201.375 116.419 200.977C116.154 200.576 116.021 200.091 116.021 199.523C116.021 199.023 116.12 198.617 116.317 198.307C116.514 197.992 116.777 197.746 117.107 197.568C117.436 197.39 117.8 197.258 118.197 197.17C118.599 197.08 119.002 197.008 119.408 196.955C119.938 196.886 120.368 196.835 120.697 196.801C121.031 196.763 121.273 196.701 121.425 196.614C121.58 196.527 121.658 196.375 121.658 196.159V196.114C121.658 195.553 121.504 195.117 121.197 194.807C120.894 194.496 120.434 194.341 119.817 194.341C119.177 194.341 118.675 194.481 118.311 194.761C117.947 195.042 117.692 195.341 117.544 195.659L116.271 195.205C116.499 194.674 116.802 194.261 117.18 193.966C117.563 193.667 117.98 193.458 118.43 193.341C118.885 193.22 119.332 193.159 119.771 193.159C120.052 193.159 120.374 193.193 120.737 193.261C121.105 193.326 121.459 193.46 121.8 193.665C122.144 193.869 122.43 194.178 122.658 194.591C122.885 195.004 122.999 195.557 122.999 196.25V202H121.658V200.818H121.589C121.499 201.008 121.347 201.21 121.135 201.426C120.923 201.642 120.641 201.826 120.288 201.977C119.936 202.129 119.506 202.205 118.999 202.205ZM119.203 201C119.733 201 120.18 200.896 120.544 200.688C120.911 200.479 121.188 200.21 121.374 199.881C121.563 199.551 121.658 199.205 121.658 198.841V197.614C121.601 197.682 121.476 197.744 121.283 197.801C121.093 197.854 120.874 197.902 120.624 197.943C120.377 197.981 120.137 198.015 119.902 198.045C119.671 198.072 119.483 198.095 119.339 198.114C118.991 198.159 118.665 198.233 118.362 198.335C118.063 198.434 117.821 198.583 117.635 198.784C117.453 198.981 117.362 199.25 117.362 199.591C117.362 200.057 117.535 200.409 117.879 200.648C118.228 200.883 118.669 201 119.203 201ZM129.946 202V193.273H131.241V194.636H131.355C131.537 194.17 131.83 193.809 132.236 193.551C132.641 193.29 133.128 193.159 133.696 193.159C134.272 193.159 134.751 193.29 135.134 193.551C135.52 193.809 135.821 194.17 136.037 194.636H136.128C136.351 194.186 136.687 193.828 137.134 193.562C137.58 193.294 138.116 193.159 138.741 193.159C139.522 193.159 140.16 193.403 140.656 193.892C141.152 194.377 141.401 195.133 141.401 196.159V202H140.06V196.159C140.06 195.515 139.884 195.055 139.531 194.778C139.179 194.502 138.764 194.364 138.287 194.364C137.673 194.364 137.198 194.549 136.861 194.92C136.524 195.288 136.355 195.754 136.355 196.318V202H134.991V196.023C134.991 195.527 134.83 195.127 134.509 194.824C134.187 194.517 133.772 194.364 133.264 194.364C132.916 194.364 132.59 194.456 132.287 194.642C131.988 194.828 131.745 195.085 131.56 195.415C131.378 195.741 131.287 196.117 131.287 196.545V202H129.946ZM146.42 202.205C145.867 202.205 145.366 202.1 144.915 201.892C144.464 201.68 144.106 201.375 143.841 200.977C143.576 200.576 143.443 200.091 143.443 199.523C143.443 199.023 143.542 198.617 143.739 198.307C143.936 197.992 144.199 197.746 144.528 197.568C144.858 197.39 145.222 197.258 145.619 197.17C146.021 197.08 146.424 197.008 146.83 196.955C147.36 196.886 147.79 196.835 148.119 196.801C148.453 196.763 148.695 196.701 148.847 196.614C149.002 196.527 149.08 196.375 149.08 196.159V196.114C149.08 195.553 148.926 195.117 148.619 194.807C148.316 194.496 147.856 194.341 147.239 194.341C146.598 194.341 146.097 194.481 145.733 194.761C145.369 195.042 145.114 195.341 144.966 195.659L143.693 195.205C143.92 194.674 144.223 194.261 144.602 193.966C144.985 193.667 145.402 193.458 145.852 193.341C146.307 193.22 146.754 193.159 147.193 193.159C147.473 193.159 147.795 193.193 148.159 193.261C148.527 193.326 148.881 193.46 149.222 193.665C149.566 193.869 149.852 194.178 150.08 194.591C150.307 195.004 150.42 195.557 150.42 196.25V202H149.08V200.818H149.011C148.92 201.008 148.769 201.21 148.557 201.426C148.345 201.642 148.063 201.826 147.71 201.977C147.358 202.129 146.928 202.205 146.42 202.205ZM146.625 201C147.155 201 147.602 200.896 147.966 200.688C148.333 200.479 148.61 200.21 148.795 199.881C148.985 199.551 149.08 199.205 149.08 198.841V197.614C149.023 197.682 148.898 197.744 148.705 197.801C148.515 197.854 148.295 197.902 148.045 197.943C147.799 197.981 147.559 198.015 147.324 198.045C147.093 198.072 146.905 198.095 146.761 198.114C146.413 198.159 146.087 198.233 145.784 198.335C145.485 198.434 145.242 198.583 145.057 198.784C144.875 198.981 144.784 199.25 144.784 199.591C144.784 200.057 144.956 200.409 145.301 200.648C145.65 200.883 146.091 201 146.625 201ZM152.868 202V193.273H154.209V202H152.868ZM153.55 191.818C153.288 191.818 153.063 191.729 152.874 191.551C152.688 191.373 152.595 191.159 152.595 190.909C152.595 190.659 152.688 190.445 152.874 190.267C153.063 190.089 153.288 190 153.55 190C153.811 190 154.035 190.089 154.22 190.267C154.41 190.445 154.504 190.659 154.504 190.909C154.504 191.159 154.41 191.373 154.22 191.551C154.035 191.729 153.811 191.818 153.55 191.818ZM162.847 195.227L161.642 195.568C161.566 195.367 161.455 195.172 161.307 194.983C161.163 194.79 160.966 194.631 160.716 194.506C160.466 194.381 160.146 194.318 159.756 194.318C159.222 194.318 158.777 194.441 158.42 194.688C158.068 194.93 157.892 195.239 157.892 195.614C157.892 195.947 158.013 196.21 158.256 196.403C158.498 196.597 158.877 196.758 159.392 196.886L160.688 197.205C161.468 197.394 162.049 197.684 162.432 198.074C162.814 198.46 163.006 198.958 163.006 199.568C163.006 200.068 162.862 200.515 162.574 200.909C162.29 201.303 161.892 201.614 161.381 201.841C160.869 202.068 160.275 202.182 159.597 202.182C158.706 202.182 157.97 201.989 157.386 201.602C156.803 201.216 156.434 200.652 156.278 199.909L157.551 199.591C157.672 200.061 157.902 200.413 158.239 200.648C158.58 200.883 159.025 201 159.574 201C160.199 201 160.695 200.867 161.062 200.602C161.434 200.333 161.619 200.011 161.619 199.636C161.619 199.333 161.513 199.08 161.301 198.875C161.089 198.667 160.763 198.511 160.324 198.409L158.869 198.068C158.07 197.879 157.483 197.585 157.108 197.188C156.737 196.786 156.551 196.284 156.551 195.682C156.551 195.189 156.689 194.754 156.966 194.375C157.246 193.996 157.627 193.699 158.108 193.483C158.593 193.267 159.142 193.159 159.756 193.159C160.619 193.159 161.297 193.348 161.79 193.727C162.286 194.106 162.638 194.606 162.847 195.227ZM175.479 205.273V200.659H175.365C175.267 200.818 175.126 201.019 174.945 201.261C174.763 201.5 174.503 201.714 174.166 201.903C173.829 202.089 173.38 202.182 172.82 202.182C172.092 202.182 171.45 201.998 170.893 201.631C170.337 201.259 169.901 200.737 169.587 200.062C169.272 199.384 169.115 198.583 169.115 197.659C169.115 196.742 169.272 195.947 169.587 195.273C169.901 194.598 170.339 194.078 170.899 193.71C171.46 193.343 172.107 193.159 172.842 193.159C173.411 193.159 173.859 193.254 174.189 193.443C174.522 193.629 174.776 193.841 174.95 194.08C175.128 194.314 175.267 194.508 175.365 194.659H175.524V193.273H176.82V205.273H175.479ZM173.001 200.977C173.539 200.977 173.994 200.837 174.365 200.557C174.736 200.273 175.018 199.881 175.212 199.381C175.405 198.877 175.501 198.295 175.501 197.636C175.501 196.985 175.407 196.415 175.217 195.926C175.028 195.434 174.748 195.051 174.376 194.778C174.005 194.502 173.547 194.364 173.001 194.364C172.433 194.364 171.96 194.509 171.581 194.801C171.206 195.089 170.924 195.481 170.734 195.977C170.549 196.47 170.456 197.023 170.456 197.636C170.456 198.258 170.551 198.822 170.74 199.33C170.933 199.833 171.217 200.235 171.592 200.534C171.971 200.83 172.441 200.977 173.001 200.977ZM184.774 198.432V193.273H186.115V202H184.774V200.523H184.683C184.479 200.966 184.161 201.343 183.729 201.653C183.297 201.96 182.751 202.114 182.092 202.114C181.547 202.114 181.062 201.994 180.638 201.756C180.214 201.513 179.88 201.15 179.638 200.665C179.395 200.176 179.274 199.561 179.274 198.818V193.273H180.615V198.727C180.615 199.364 180.793 199.871 181.149 200.25C181.509 200.629 181.967 200.818 182.524 200.818C182.857 200.818 183.196 200.733 183.541 200.562C183.89 200.392 184.181 200.131 184.416 199.778C184.655 199.426 184.774 198.977 184.774 198.432ZM192.23 202.182C191.389 202.182 190.664 201.996 190.054 201.625C189.448 201.25 188.98 200.727 188.651 200.057C188.325 199.383 188.162 198.598 188.162 197.705C188.162 196.811 188.325 196.023 188.651 195.341C188.98 194.655 189.438 194.121 190.026 193.739C190.616 193.352 191.306 193.159 192.094 193.159C192.548 193.159 192.997 193.235 193.44 193.386C193.884 193.538 194.287 193.784 194.651 194.125C195.014 194.462 195.304 194.909 195.52 195.466C195.736 196.023 195.844 196.708 195.844 197.523V198.091H189.116V196.932H194.48C194.48 196.439 194.382 196 194.185 195.614C193.991 195.227 193.715 194.922 193.355 194.699C192.999 194.475 192.579 194.364 192.094 194.364C191.56 194.364 191.098 194.496 190.707 194.761C190.321 195.023 190.024 195.364 189.815 195.784C189.607 196.205 189.503 196.655 189.503 197.136V197.909C189.503 198.568 189.616 199.127 189.844 199.585C190.075 200.04 190.395 200.386 190.804 200.625C191.213 200.86 191.688 200.977 192.23 200.977C192.582 200.977 192.901 200.928 193.185 200.83C193.473 200.727 193.721 200.576 193.929 200.375C194.137 200.17 194.298 199.917 194.412 199.614L195.707 199.977C195.571 200.417 195.342 200.803 195.02 201.136C194.698 201.466 194.3 201.723 193.827 201.909C193.353 202.091 192.821 202.182 192.23 202.182ZM203.724 196.75V202H202.384V193.273H203.679V194.636H203.793C203.997 194.193 204.308 193.837 204.724 193.568C205.141 193.295 205.679 193.159 206.338 193.159C206.929 193.159 207.446 193.28 207.889 193.523C208.332 193.761 208.677 194.125 208.923 194.614C209.17 195.098 209.293 195.712 209.293 196.455V202H207.952V196.545C207.952 195.86 207.774 195.326 207.418 194.943C207.062 194.557 206.573 194.364 205.952 194.364C205.524 194.364 205.141 194.456 204.804 194.642C204.471 194.828 204.207 195.098 204.014 195.455C203.821 195.811 203.724 196.242 203.724 196.75ZM215.288 202.182C214.5 202.182 213.809 201.994 213.214 201.619C212.624 201.244 212.161 200.72 211.828 200.045C211.499 199.371 211.334 198.583 211.334 197.682C211.334 196.773 211.499 195.979 211.828 195.301C212.161 194.623 212.624 194.097 213.214 193.722C213.809 193.347 214.5 193.159 215.288 193.159C216.076 193.159 216.766 193.347 217.357 193.722C217.951 194.097 218.413 194.623 218.743 195.301C219.076 195.979 219.243 196.773 219.243 197.682C219.243 198.583 219.076 199.371 218.743 200.045C218.413 200.72 217.951 201.244 217.357 201.619C216.766 201.994 216.076 202.182 215.288 202.182ZM215.288 200.977C215.887 200.977 216.379 200.824 216.766 200.517C217.152 200.21 217.438 199.807 217.624 199.307C217.809 198.807 217.902 198.265 217.902 197.682C217.902 197.098 217.809 196.555 217.624 196.051C217.438 195.547 217.152 195.14 216.766 194.83C216.379 194.519 215.887 194.364 215.288 194.364C214.69 194.364 214.197 194.519 213.811 194.83C213.425 195.14 213.139 195.547 212.953 196.051C212.768 196.555 212.675 197.098 212.675 197.682C212.675 198.265 212.768 198.807 212.953 199.307C213.139 199.807 213.425 200.21 213.811 200.517C214.197 200.824 214.69 200.977 215.288 200.977ZM225.79 202V193.273H227.085V194.636H227.199C227.381 194.17 227.674 193.809 228.08 193.551C228.485 193.29 228.972 193.159 229.54 193.159C230.116 193.159 230.595 193.29 230.977 193.551C231.364 193.809 231.665 194.17 231.881 194.636H231.972C232.195 194.186 232.53 193.828 232.977 193.562C233.424 193.294 233.96 193.159 234.585 193.159C235.366 193.159 236.004 193.403 236.5 193.892C236.996 194.377 237.244 195.133 237.244 196.159V202H235.903V196.159C235.903 195.515 235.727 195.055 235.375 194.778C235.023 194.502 234.608 194.364 234.131 194.364C233.517 194.364 233.042 194.549 232.705 194.92C232.367 195.288 232.199 195.754 232.199 196.318V202H230.835V196.023C230.835 195.527 230.674 195.127 230.352 194.824C230.03 194.517 229.616 194.364 229.108 194.364C228.759 194.364 228.434 194.456 228.131 194.642C227.831 194.828 227.589 195.085 227.403 195.415C227.222 195.741 227.131 196.117 227.131 196.545V202H225.79ZM243.355 202.182C242.514 202.182 241.789 201.996 241.179 201.625C240.573 201.25 240.105 200.727 239.776 200.057C239.45 199.383 239.287 198.598 239.287 197.705C239.287 196.811 239.45 196.023 239.776 195.341C240.105 194.655 240.563 194.121 241.151 193.739C241.741 193.352 242.431 193.159 243.219 193.159C243.673 193.159 244.122 193.235 244.565 193.386C245.009 193.538 245.412 193.784 245.776 194.125C246.139 194.462 246.429 194.909 246.645 195.466C246.861 196.023 246.969 196.708 246.969 197.523V198.091H240.241V196.932H245.605C245.605 196.439 245.507 196 245.31 195.614C245.116 195.227 244.84 194.922 244.48 194.699C244.124 194.475 243.704 194.364 243.219 194.364C242.685 194.364 242.223 194.496 241.832 194.761C241.446 195.023 241.149 195.364 240.94 195.784C240.732 196.205 240.628 196.655 240.628 197.136V197.909C240.628 198.568 240.741 199.127 240.969 199.585C241.2 200.04 241.52 200.386 241.929 200.625C242.338 200.86 242.813 200.977 243.355 200.977C243.707 200.977 244.026 200.928 244.31 200.83C244.598 200.727 244.846 200.576 245.054 200.375C245.262 200.17 245.423 199.917 245.537 199.614L246.832 199.977C246.696 200.417 246.467 200.803 246.145 201.136C245.823 201.466 245.425 201.723 244.952 201.909C244.478 202.091 243.946 202.182 243.355 202.182ZM244.332 192.227L243.151 190.636L241.969 192.227H240.696V192.136L242.537 189.773H243.764L245.605 192.136V192.227H244.332ZM255.19 195.227L253.986 195.568C253.91 195.367 253.798 195.172 253.651 194.983C253.507 194.79 253.31 194.631 253.06 194.506C252.81 194.381 252.49 194.318 252.099 194.318C251.565 194.318 251.12 194.441 250.764 194.688C250.412 194.93 250.236 195.239 250.236 195.614C250.236 195.947 250.357 196.21 250.599 196.403C250.842 196.597 251.221 196.758 251.736 196.886L253.031 197.205C253.812 197.394 254.393 197.684 254.776 198.074C255.158 198.46 255.349 198.958 255.349 199.568C255.349 200.068 255.205 200.515 254.918 200.909C254.634 201.303 254.236 201.614 253.724 201.841C253.213 202.068 252.618 202.182 251.94 202.182C251.05 202.182 250.313 201.989 249.73 201.602C249.147 201.216 248.777 200.652 248.622 199.909L249.895 199.591C250.016 200.061 250.245 200.413 250.582 200.648C250.923 200.883 251.368 201 251.918 201C252.543 201 253.039 200.867 253.406 200.602C253.777 200.333 253.963 200.011 253.963 199.636C253.963 199.333 253.857 199.08 253.645 198.875C253.433 198.667 253.107 198.511 252.668 198.409L251.213 198.068C250.414 197.879 249.827 197.585 249.452 197.188C249.08 196.786 248.895 196.284 248.895 195.682C248.895 195.189 249.033 194.754 249.31 194.375C249.59 193.996 249.971 193.699 250.452 193.483C250.937 193.267 251.486 193.159 252.099 193.159C252.963 193.159 253.641 193.348 254.134 193.727C254.63 194.106 254.982 194.606 255.19 195.227ZM264.436 202.205C263.883 202.205 263.381 202.1 262.93 201.892C262.48 201.68 262.122 201.375 261.857 200.977C261.591 200.576 261.459 200.091 261.459 199.523C261.459 199.023 261.557 198.617 261.754 198.307C261.951 197.992 262.214 197.746 262.544 197.568C262.874 197.39 263.237 197.258 263.635 197.17C264.036 197.08 264.44 197.008 264.845 196.955C265.375 196.886 265.805 196.835 266.135 196.801C266.468 196.763 266.711 196.701 266.862 196.614C267.018 196.527 267.095 196.375 267.095 196.159V196.114C267.095 195.553 266.942 195.117 266.635 194.807C266.332 194.496 265.872 194.341 265.254 194.341C264.614 194.341 264.112 194.481 263.749 194.761C263.385 195.042 263.129 195.341 262.982 195.659L261.709 195.205C261.936 194.674 262.239 194.261 262.618 193.966C263 193.667 263.417 193.458 263.868 193.341C264.322 193.22 264.769 193.159 265.209 193.159C265.489 193.159 265.811 193.193 266.175 193.261C266.542 193.326 266.896 193.46 267.237 193.665C267.582 193.869 267.868 194.178 268.095 194.591C268.322 195.004 268.436 195.557 268.436 196.25V202H267.095V200.818H267.027C266.936 201.008 266.785 201.21 266.572 201.426C266.36 201.642 266.078 201.826 265.726 201.977C265.374 202.129 264.944 202.205 264.436 202.205ZM264.641 201C265.171 201 265.618 200.896 265.982 200.688C266.349 200.479 266.625 200.21 266.811 199.881C267 199.551 267.095 199.205 267.095 198.841V197.614C267.038 197.682 266.913 197.744 266.72 197.801C266.531 197.854 266.311 197.902 266.061 197.943C265.815 197.981 265.574 198.015 265.339 198.045C265.108 198.072 264.921 198.095 264.777 198.114C264.429 198.159 264.103 198.233 263.8 198.335C263.5 198.434 263.258 198.583 263.072 198.784C262.891 198.981 262.8 199.25 262.8 199.591C262.8 200.057 262.972 200.409 263.317 200.648C263.665 200.883 264.107 201 264.641 201ZM272.224 196.75V202H270.884V193.273H272.179V194.636H272.293C272.497 194.193 272.808 193.837 273.224 193.568C273.641 193.295 274.179 193.159 274.838 193.159C275.429 193.159 275.946 193.28 276.389 193.523C276.832 193.761 277.177 194.125 277.423 194.614C277.67 195.098 277.793 195.712 277.793 196.455V202H276.452V196.545C276.452 195.86 276.274 195.326 275.918 194.943C275.562 194.557 275.073 194.364 274.452 194.364C274.024 194.364 273.641 194.456 273.304 194.642C272.971 194.828 272.707 195.098 272.514 195.455C272.321 195.811 272.224 196.242 272.224 196.75ZM284.038 193.273V194.409H279.516V193.273H284.038ZM280.834 191.182H282.175V199.5C282.175 199.879 282.23 200.163 282.339 200.352C282.453 200.538 282.597 200.663 282.771 200.727C282.949 200.788 283.137 200.818 283.334 200.818C283.482 200.818 283.603 200.811 283.697 200.795C283.792 200.777 283.868 200.761 283.925 200.75L284.197 201.955C284.107 201.989 283.98 202.023 283.817 202.057C283.654 202.095 283.447 202.114 283.197 202.114C282.819 202.114 282.447 202.032 282.084 201.869C281.724 201.706 281.425 201.458 281.186 201.125C280.951 200.792 280.834 200.371 280.834 199.864V191.182ZM289.621 202.182C288.78 202.182 288.054 201.996 287.445 201.625C286.839 201.25 286.371 200.727 286.041 200.057C285.715 199.383 285.553 198.598 285.553 197.705C285.553 196.811 285.715 196.023 286.041 195.341C286.371 194.655 286.829 194.121 287.416 193.739C288.007 193.352 288.696 193.159 289.484 193.159C289.939 193.159 290.388 193.235 290.831 193.386C291.274 193.538 291.678 193.784 292.041 194.125C292.405 194.462 292.695 194.909 292.911 195.466C293.126 196.023 293.234 196.708 293.234 197.523V198.091H286.507V196.932H291.871C291.871 196.439 291.772 196 291.575 195.614C291.382 195.227 291.106 194.922 290.746 194.699C290.39 194.475 289.969 194.364 289.484 194.364C288.95 194.364 288.488 194.496 288.098 194.761C287.712 195.023 287.414 195.364 287.206 195.784C286.998 196.205 286.893 196.655 286.893 197.136V197.909C286.893 198.568 287.007 199.127 287.234 199.585C287.465 200.04 287.786 200.386 288.195 200.625C288.604 200.86 289.079 200.977 289.621 200.977C289.973 200.977 290.291 200.928 290.575 200.83C290.863 200.727 291.111 200.576 291.32 200.375C291.528 200.17 291.689 199.917 291.803 199.614L293.098 199.977C292.962 200.417 292.732 200.803 292.411 201.136C292.089 201.466 291.691 201.723 291.217 201.909C290.744 202.091 290.212 202.182 289.621 202.182ZM295.274 202V193.273H296.57V194.591H296.661C296.82 194.159 297.107 193.809 297.524 193.54C297.941 193.271 298.411 193.136 298.933 193.136C299.032 193.136 299.155 193.138 299.303 193.142C299.45 193.146 299.562 193.152 299.638 193.159V194.523C299.592 194.511 299.488 194.494 299.325 194.472C299.166 194.445 298.998 194.432 298.82 194.432C298.395 194.432 298.017 194.521 297.683 194.699C297.354 194.873 297.092 195.116 296.899 195.426C296.71 195.733 296.615 196.083 296.615 196.477V202H295.274ZM301.227 202V193.273H302.568V202H301.227ZM301.909 191.818C301.648 191.818 301.422 191.729 301.233 191.551C301.047 191.373 300.955 191.159 300.955 190.909C300.955 190.659 301.047 190.445 301.233 190.267C301.422 190.089 301.648 190 301.909 190C302.17 190 302.394 190.089 302.58 190.267C302.769 190.445 302.864 190.659 302.864 190.909C302.864 191.159 302.769 191.373 302.58 191.551C302.394 191.729 302.17 191.818 301.909 191.818ZM308.57 202.182C307.782 202.182 307.09 201.994 306.496 201.619C305.905 201.244 305.443 200.72 305.109 200.045C304.78 199.371 304.615 198.583 304.615 197.682C304.615 196.773 304.78 195.979 305.109 195.301C305.443 194.623 305.905 194.097 306.496 193.722C307.09 193.347 307.782 193.159 308.57 193.159C309.357 193.159 310.047 193.347 310.638 193.722C311.232 194.097 311.695 194.623 312.024 195.301C312.357 195.979 312.524 196.773 312.524 197.682C312.524 198.583 312.357 199.371 312.024 200.045C311.695 200.72 311.232 201.244 310.638 201.619C310.047 201.994 309.357 202.182 308.57 202.182ZM308.57 200.977C309.168 200.977 309.661 200.824 310.047 200.517C310.433 200.21 310.719 199.807 310.905 199.307C311.09 198.807 311.183 198.265 311.183 197.682C311.183 197.098 311.09 196.555 310.905 196.051C310.719 195.547 310.433 195.14 310.047 194.83C309.661 194.519 309.168 194.364 308.57 194.364C307.971 194.364 307.479 194.519 307.092 194.83C306.706 195.14 306.42 195.547 306.234 196.051C306.049 196.555 305.956 197.098 305.956 197.682C305.956 198.265 306.049 198.807 306.234 199.307C306.42 199.807 306.706 200.21 307.092 200.517C307.479 200.824 307.971 200.977 308.57 200.977ZM314.571 202V193.273H315.866V194.591H315.957C316.116 194.159 316.404 193.809 316.821 193.54C317.238 193.271 317.707 193.136 318.23 193.136C318.329 193.136 318.452 193.138 318.599 193.142C318.747 193.146 318.859 193.152 318.935 193.159V194.523C318.889 194.511 318.785 194.494 318.622 194.472C318.463 194.445 318.295 194.432 318.116 194.432C317.692 194.432 317.313 194.521 316.98 194.699C316.651 194.873 316.389 195.116 316.196 195.426C316.007 195.733 315.912 196.083 315.912 196.477V202H314.571Z" fill="white"/>
<path d="M74.6818 134.636C71.5606 134.636 68.7727 134.098 66.3182 133.023C63.8788 131.947 61.947 130.455 60.5227 128.545C59.1136 126.621 58.3561 124.394 58.25 121.864H65.3864C65.4773 123.242 65.9394 124.439 66.7727 125.455C67.6212 126.455 68.7273 127.227 70.0909 127.773C71.4545 128.318 72.9697 128.591 74.6364 128.591C76.4697 128.591 78.0909 128.273 79.5 127.636C80.9242 127 82.0379 126.114 82.8409 124.977C83.6439 123.826 84.0455 122.5 84.0455 121C84.0455 119.439 83.6439 118.068 82.8409 116.886C82.053 115.689 80.8939 114.75 79.3636 114.068C77.8485 113.386 76.0152 113.045 73.8636 113.045H69.9318V107.318H73.8636C75.5909 107.318 77.1061 107.008 78.4091 106.386C79.7273 105.765 80.7576 104.902 81.5 103.795C82.2424 102.674 82.6136 101.364 82.6136 99.8636C82.6136 98.4242 82.2879 97.1742 81.6364 96.1136C81 95.0379 80.0909 94.197 78.9091 93.5909C77.7424 92.9848 76.3636 92.6818 74.7727 92.6818C73.2576 92.6818 71.8409 92.9621 70.5227 93.5227C69.2197 94.0682 68.1591 94.8561 67.3409 95.8864C66.5227 96.9015 66.0833 98.1212 66.0227 99.5455H59.2273C59.303 97.0303 60.0455 94.8182 61.4545 92.9091C62.8788 91 64.7576 89.5076 67.0909 88.4318C69.4242 87.3561 72.0152 86.8182 74.8636 86.8182C77.8485 86.8182 80.4242 87.4015 82.5909 88.5682C84.7727 89.7197 86.4545 91.2576 87.6364 93.1818C88.8333 95.1061 89.4242 97.2121 89.4091 99.5C89.4242 102.106 88.697 104.318 87.2273 106.136C85.7727 107.955 83.8333 109.174 81.4091 109.795V110.159C84.5 110.629 86.8939 111.856 88.5909 113.841C90.303 115.826 91.1515 118.288 91.1364 121.227C91.1515 123.788 90.4394 126.083 89 128.114C87.5758 130.144 85.6288 131.742 83.1591 132.909C80.6894 134.061 77.8636 134.636 74.6818 134.636ZM99.7273 134V128.909L115.477 112.591C117.159 110.818 118.545 109.265 119.636 107.932C120.742 106.583 121.568 105.303 122.114 104.091C122.659 102.879 122.932 101.591 122.932 100.227C122.932 98.6818 122.568 97.3485 121.841 96.2273C121.114 95.0909 120.121 94.2197 118.864 93.6136C117.606 92.9924 116.189 92.6818 114.614 92.6818C112.947 92.6818 111.492 93.0227 110.25 93.7045C109.008 94.3864 108.053 95.3485 107.386 96.5909C106.72 97.8333 106.386 99.2879 106.386 100.955H99.6818C99.6818 98.1212 100.333 95.6439 101.636 93.5227C102.939 91.4015 104.727 89.7576 107 88.5909C109.273 87.4091 111.856 86.8182 114.75 86.8182C117.674 86.8182 120.25 87.4015 122.477 88.5682C124.72 89.7197 126.47 91.2955 127.727 93.2955C128.985 95.2803 129.614 97.5227 129.614 100.023C129.614 101.75 129.288 103.439 128.636 105.091C128 106.742 126.886 108.583 125.295 110.614C123.705 112.629 121.492 115.076 118.659 117.955L109.409 127.636V127.977H130.364V134H99.7273ZM154.705 134.636C151.447 134.636 148.568 134.076 146.068 132.955C143.583 131.833 141.636 130.288 140.227 128.318C138.818 126.348 138.121 124.106 138.136 121.591C138.121 119.621 138.523 117.811 139.341 116.159C140.174 114.492 141.303 113.106 142.727 112C144.152 110.879 145.742 110.167 147.5 109.864V109.591C145.182 109.03 143.326 107.788 141.932 105.864C140.538 103.939 139.848 101.727 139.864 99.2273C139.848 96.8485 140.477 94.7273 141.75 92.8636C143.038 90.9848 144.803 89.5076 147.045 88.4318C149.288 87.3561 151.841 86.8182 154.705 86.8182C157.538 86.8182 160.068 87.3636 162.295 88.4545C164.538 89.5303 166.303 91.0076 167.591 92.8864C168.879 94.75 169.53 96.8636 169.545 99.2273C169.53 101.727 168.818 103.939 167.409 105.864C166 107.788 164.167 109.03 161.909 109.591V109.864C163.652 110.167 165.22 110.879 166.614 112C168.023 113.106 169.144 114.492 169.977 116.159C170.826 117.811 171.258 119.621 171.273 121.591C171.258 124.106 170.545 126.348 169.136 128.318C167.727 130.288 165.773 131.833 163.273 132.955C160.788 134.076 157.932 134.636 154.705 134.636ZM154.705 128.886C156.629 128.886 158.295 128.568 159.705 127.932C161.114 127.28 162.205 126.379 162.977 125.227C163.75 124.061 164.144 122.697 164.159 121.136C164.144 119.515 163.72 118.083 162.886 116.841C162.068 115.598 160.955 114.621 159.545 113.909C158.136 113.197 156.523 112.841 154.705 112.841C152.871 112.841 151.242 113.197 149.818 113.909C148.394 114.621 147.273 115.598 146.455 116.841C145.636 118.083 145.235 119.515 145.25 121.136C145.235 122.697 145.606 124.061 146.364 125.227C147.136 126.379 148.235 127.28 149.659 127.932C151.083 128.568 152.765 128.886 154.705 128.886ZM154.705 107.227C156.25 107.227 157.621 106.917 158.818 106.295C160.015 105.674 160.955 104.811 161.636 103.705C162.333 102.598 162.689 101.303 162.705 99.8182C162.689 98.3636 162.341 97.0909 161.659 96C160.992 94.9091 160.061 94.0682 158.864 93.4773C157.667 92.8712 156.28 92.5682 154.705 92.5682C153.098 92.5682 151.689 92.8712 150.477 93.4773C149.28 94.0682 148.348 94.9091 147.682 96C147.015 97.0909 146.689 98.3636 146.705 99.8182C146.689 101.303 147.023 102.598 147.705 103.705C148.386 104.811 149.326 105.674 150.523 106.295C151.735 106.917 153.129 107.227 154.705 107.227ZM180.983 134L201.301 93.8182V93.4773H177.801V87.4545H208.574V93.6818L188.324 134H180.983Z" fill="white"/>
<g clip-path="url(#clip1_521_49)">
<path d="M56.25 197H59.25V203.75H56.25V197ZM66.75 194H69.75V203.75H66.75V194ZM61.5 189.5H64.5V203.75H61.5V189.5Z" fill="white"/>
</g>
<defs>
<filter id="filter0_b_521_49" x="-47" y="-47" width="465" height="338" filterUnits="userSpaceOnUse" color-interpolation-filters="sRGB">
<feFlood flood-opacity="0" result="BackgroundImageFix"/>
<feGaussianBlur in="BackgroundImageFix" stdDeviation="23.5"/>
<feComposite in2="SourceAlpha" operator="in" result="effect1_backgroundBlur_521_49"/>
<feBlend mode="normal" in="SourceGraphic" in2="effect1_backgroundBlur_521_49" result="shape"/>
</filter>
<linearGradient id="paint0_linear_521_49" x1="185.5" y1="235.166" x2="188.436" y2="-5.2851" gradientUnits="userSpaceOnUse">
<stop stop-color="#155339"/>
<stop offset="1" stop-color="#155339" stop-opacity="0"/>
</linearGradient>
<linearGradient id="paint1_linear_521_49" x1="185.5" y1="0" x2="185.5" y2="235.802" gradientUnits="userSpaceOnUse">
<stop stop-color="#BDFFDF"/>
<stop offset="1" stop-color="#BDFFDF" stop-opacity="0"/>
</linearGradient>
<clipPath id="clip0_521_49">
<rect width="32" height="32" fill="white" transform="translate(51 36)"/>
</clipPath>
<clipPath id="clip1_521_49">
<rect width="18" height="18" fill="white" transform="translate(54 188)"/>
</clipPath>
</defs>
</svg>
